{"glyphs":{"0":{"ha":983,"x_min":78,"x_max":907,"o":"m 492 -17 q 275 50 368 -17 q 130 238 182 117 q 78 518 78 358 q 129 799 78 679 q 274 985 181 918 q 490 1051 367 1051 q 709 985 617 1051 q 854 798 801 918 q 907 518 907 678 q 855 238 907 358 q 710 51 803 118 q 492 -17 617 -17 m 493 156 q 614 199 564 156 q 691 324 664 243 q 718 518 718 406 q 691 712 718 631 q 613 836 664 793 q 490 879 563 879 q 371 836 421 879 q 294 712 321 793 q 267 518 267 631 q 294 326 267 407 q 372 200 321 244 q 493 156 422 156 z "},"1":{"ha":560,"x_min":40,"x_max":429,"o":"m 240 0 l 240 874 l 40 874 l 40 1035 l 429 1035 l 429 0 l 240 0 z "},"2":{"ha":829,"x_min":57,"x_max":758,"o":"m 64 0 l 64 143 l 344 436 q 473 576 428 524 q 536 665 518 628 q 554 742 554 703 q 513 844 554 807 q 408 882 472 882 q 293 844 342 882 q 222 732 244 806 l 57 783 q 125 926 74 865 q 251 1019 176 986 q 408 1051 325 1051 q 584 1015 508 1051 q 702 914 660 979 q 744 761 744 849 q 724 651 744 706 q 661 541 703 597 q 553 415 619 485 l 310 160 l 758 160 l 758 0 l 64 0 z "},"3":{"ha":849,"x_min":44,"x_max":781,"o":"m 407 -17 q 247 15 322 -17 q 117 103 171 46 q 44 240 64 161 l 210 299 q 286 191 235 228 q 407 154 338 154 q 503 175 463 154 q 568 235 544 196 q 592 329 592 275 q 569 422 592 383 q 504 481 546 460 q 406 501 463 501 q 351 496 379 501 q 300 479 322 490 l 257 569 l 525 875 l 103 875 l 103 1035 l 738 1035 l 738 886 l 468 571 l 471 642 q 633 601 564 640 q 742 494 703 563 q 781 335 781 426 q 732 155 781 235 q 599 29 683 75 q 407 -17 514 -17 z "},"4":{"ha":908,"x_min":50,"x_max":863,"o":"m 525 0 l 525 228 l 50 228 l 50 386 l 514 1035 l 711 1035 l 711 386 l 863 386 l 863 228 l 711 228 l 711 0 l 525 0 m 189 318 l 156 386 l 525 386 l 525 886 l 574 871 l 189 318 z "},"5":{"ha":854,"x_min":56,"x_max":782,"o":"m 413 -17 q 256 14 331 -17 q 128 101 182 44 q 56 235 75 157 l 219 293 q 296 188 243 222 q 413 154 349 154 q 506 177 465 154 q 569 241 547 200 q 592 336 592 282 q 569 431 592 390 q 506 494 546 471 q 413 517 465 517 q 315 493 358 517 q 251 425 271 469 l 97 460 l 179 1035 l 743 1035 l 743 875 l 254 875 l 325 957 l 267 524 l 213 568 q 308 651 251 625 q 444 678 364 678 q 623 633 547 678 q 740 513 699 589 q 782 336 782 436 q 733 156 782 236 q 601 29 685 75 q 413 -17 518 -17 z "},"6":{"ha":836,"x_min":60,"x_max":778,"o":"m 419 -17 q 233 28 314 -17 q 106 151 151 74 q 60 326 60 228 q 70 426 60 376 q 109 533 81 476 q 192 660 138 590 l 481 1035 l 706 1035 l 354 583 l 324 617 q 364 641 343 632 q 406 654 385 650 q 451 658 428 658 q 619 615 546 658 q 735 498 693 572 q 778 331 778 424 q 732 152 778 231 q 605 28 686 74 q 419 -17 524 -17 m 419 154 q 505 176 467 154 q 566 238 543 197 q 589 328 589 278 q 566 419 589 381 q 506 479 543 457 q 419 501 468 501 q 333 479 372 501 q 272 419 294 457 q 249 328 249 381 q 272 238 249 278 q 333 176 294 197 q 419 154 372 154 z "},"7":{"ha":776,"x_min":43,"x_max":729,"o":"m 100 0 l 531 875 l 43 875 l 43 1035 l 729 1035 l 729 875 l 308 0 l 100 0 z "},"8":{"ha":878,"x_min":71,"x_max":807,"o":"m 439 -17 q 244 26 326 -17 q 116 140 161 68 q 71 299 71 213 q 125 470 71 400 q 282 574 179 540 l 271 528 q 155 619 197 551 q 113 769 113 688 q 154 915 113 851 q 269 1015 196 979 q 439 1051 343 1051 q 606 1015 533 1051 q 722 915 679 979 q 764 769 764 851 q 722 619 764 686 q 606 526 679 551 l 596 575 q 753 469 699 539 q 807 297 807 399 q 762 140 807 211 q 634 26 717 68 q 439 -17 551 -17 m 439 143 q 533 163 493 143 q 596 220 574 183 q 618 304 618 257 q 596 388 618 353 q 533 444 574 424 q 439 464 493 464 q 345 444 385 464 q 283 388 306 424 q 261 304 261 353 q 283 220 261 257 q 345 163 306 183 q 439 143 385 143 m 439 624 q 510 642 479 624 q 558 690 540 660 q 575 758 575 719 q 558 827 575 797 q 510 874 540 857 q 439 892 479 892 q 367 874 399 892 q 319 827 336 857 q 301 758 301 797 q 319 690 301 719 q 367 642 336 660 q 439 624 399 624 z "},"9":{"ha":836,"x_min":58,"x_max":778,"o":"m 131 0 l 482 453 l 514 419 q 474 394 493 404 q 432 381 454 385 q 385 376 410 376 q 217 419 290 376 q 101 537 143 463 q 58 706 58 611 q 105 883 58 806 q 233 1006 151 961 q 418 1051 314 1051 q 604 1007 524 1051 q 731 885 685 963 q 778 708 778 808 q 767 608 778 658 q 727 502 756 558 q 646 375 699 446 l 357 0 l 131 0 m 418 535 q 505 556 467 535 q 565 617 543 578 q 588 707 588 657 q 565 799 588 760 q 504 860 542 838 q 418 882 467 882 q 332 860 371 882 q 270 799 293 838 q 247 707 247 760 q 270 617 247 657 q 332 556 293 578 q 418 535 371 535 z "},"A":{"ha":989,"x_min":15,"x_max":974,"o":"m 15 0 l 372 1035 l 617 1035 l 974 0 l 768 0 l 694 222 l 294 222 l 219 0 l 15 0 m 349 389 l 640 389 l 468 904 l 521 904 l 349 389 z "},"Á":{"ha":989,"x_min":15,"x_max":974,"o":"m 15 0 l 372 1035 l 617 1035 l 974 0 l 768 0 l 694 222 l 294 222 l 219 0 l 15 0 m 349 389 l 640 389 l 468 904 l 521 904 l 349 389 m 406 1169 l 496 1410 l 732 1410 l 585 1169 l 406 1169 z "},"Ă":{"ha":989,"x_min":15,"x_max":974,"o":"m 15 0 l 372 1035 l 617 1035 l 974 0 l 768 0 l 694 222 l 294 222 l 219 0 l 15 0 m 349 389 l 640 389 l 468 904 l 521 904 l 349 389 m 494 1174 q 339 1207 400 1174 q 248 1292 278 1240 q 217 1403 218 1344 l 396 1403 q 424 1338 397 1361 q 494 1314 450 1314 q 567 1338 542 1314 q 596 1403 593 1361 l 774 1403 q 742 1290 772 1343 q 651 1206 713 1238 q 494 1174 590 1174 z "},"Ắ":{"ha":989,"x_min":15,"x_max":974,"o":"m 15 0 l 372 1035 l 617 1035 l 974 0 l 768 0 l 694 222 l 294 222 l 219 0 l 15 0 m 349 389 l 640 389 l 468 904 l 521 904 l 349 389 m 494 1174 q 339 1206 400 1174 q 248 1290 278 1239 q 217 1396 218 1340 l 396 1396 q 424 1335 397 1357 q 494 1314 450 1314 q 567 1335 542 1314 q 596 1396 593 1357 l 774 1396 q 742 1287 772 1338 q 651 1205 713 1236 q 494 1174 590 1174 m 404 1438 l 496 1678 l 732 1678 l 585 1438 l 404 1438 z "},"Ặ":{"ha":989,"x_min":15,"x_max":974,"o":"m 15 0 l 372 1035 l 617 1035 l 974 0 l 768 0 l 694 222 l 294 222 l 219 0 l 15 0 m 349 389 l 640 389 l 468 904 l 521 904 l 349 389 m 400 -315 l 400 -125 l 590 -125 l 590 -315 l 400 -315 m 494 1174 q 339 1207 400 1174 q 248 1292 278 1240 q 217 1403 218 1344 l 396 1403 q 424 1338 397 1361 q 494 1314 450 1314 q 567 1338 542 1314 q 596 1403 593 1361 l 774 1403 q 742 1290 772 1343 q 651 1206 713 1238 q 494 1174 590 1174 z "},"Ằ":{"ha":989,"x_min":15,"x_max":974,"o":"m 15 0 l 372 1035 l 617 1035 l 974 0 l 768 0 l 694 222 l 294 222 l 219 0 l 15 0 m 349 389 l 640 389 l 468 904 l 521 904 l 349 389 m 494 1174 q 339 1205 400 1174 q 248 1287 278 1236 q 217 1396 218 1338 l 394 1396 q 422 1335 396 1357 q 494 1314 449 1314 q 566 1335 540 1314 q 594 1396 592 1357 l 774 1396 q 742 1290 772 1340 q 651 1206 713 1239 q 494 1174 589 1174 m 406 1438 l 257 1678 l 494 1678 l 585 1438 l 406 1438 z "},"Ẳ":{"ha":989,"x_min":15,"x_max":974,"o":"m 15 0 l 372 1035 l 617 1035 l 974 0 l 768 0 l 694 222 l 294 222 l 219 0 l 15 0 m 349 389 l 640 389 l 468 904 l 521 904 l 349 389 m 494 1174 q 339 1206 400 1174 q 248 1290 278 1239 q 217 1396 218 1340 l 394 1396 q 424 1335 397 1357 q 494 1314 450 1314 q 567 1335 542 1314 q 596 1396 593 1357 l 774 1396 q 740 1288 771 1339 q 649 1206 710 1238 q 494 1174 589 1174 m 507 1404 l 429 1494 q 483 1533 468 1514 q 499 1578 499 1551 q 478 1619 499 1603 q 419 1635 457 1635 q 385 1633 403 1635 q 349 1622 367 1631 l 328 1736 q 384 1755 353 1749 q 450 1761 415 1761 q 603 1715 546 1761 q 660 1593 660 1669 q 619 1488 660 1536 q 507 1404 579 1439 z "},"Ẵ":{"ha":989,"x_min":15,"x_max":974,"o":"m 15 0 l 372 1035 l 617 1035 l 974 0 l 768 0 l 694 222 l 294 222 l 219 0 l 15 0 m 349 389 l 640 389 l 468 904 l 521 904 l 349 389 m 581 1469 q 528 1481 549 1469 q 491 1508 507 1493 q 460 1534 475 1522 q 426 1546 446 1546 q 398 1528 407 1546 q 389 1475 389 1510 l 250 1475 q 272 1597 250 1549 q 328 1667 293 1644 q 404 1690 364 1690 q 458 1679 436 1690 q 498 1653 481 1668 q 530 1626 515 1638 q 561 1615 544 1615 q 590 1634 583 1615 q 597 1685 597 1653 l 736 1685 q 688 1524 735 1578 q 581 1469 642 1469 m 494 1169 q 338 1202 400 1169 q 247 1285 276 1235 q 215 1392 218 1336 l 394 1392 q 422 1331 396 1353 q 494 1310 449 1310 q 567 1331 540 1310 q 594 1392 593 1353 l 772 1392 q 740 1284 769 1335 q 649 1201 710 1233 q 494 1169 589 1169 z "},"Â":{"ha":989,"x_min":15,"x_max":974,"o":"m 15 0 l 372 1035 l 617 1035 l 974 0 l 768 0 l 694 222 l 294 222 l 219 0 l 15 0 m 349 389 l 640 389 l 468 904 l 521 904 l 349 389 m 225 1169 l 388 1399 l 603 1399 l 767 1169 l 586 1169 l 496 1294 l 406 1169 l 225 1169 z "},"Ấ":{"ha":989,"x_min":15,"x_max":975,"o":"m 15 0 l 372 1035 l 617 1035 l 974 0 l 768 0 l 694 222 l 294 222 l 219 0 l 15 0 m 349 389 l 640 389 l 468 904 l 521 904 l 349 389 m 225 1169 l 388 1385 l 603 1385 l 767 1169 l 586 1169 l 496 1281 l 406 1169 l 225 1169 m 707 1278 l 771 1479 l 976 1479 l 856 1278 l 707 1278 z "},"Ậ":{"ha":989,"x_min":15,"x_max":974,"o":"m 15 0 l 372 1035 l 617 1035 l 974 0 l 768 0 l 694 222 l 294 222 l 219 0 l 15 0 m 349 389 l 640 389 l 468 904 l 521 904 l 349 389 m 400 -315 l 400 -125 l 590 -125 l 590 -315 l 400 -315 m 225 1169 l 388 1399 l 603 1399 l 767 1169 l 586 1169 l 496 1294 l 406 1169 l 225 1169 z "},"Ầ":{"ha":989,"x_min":15,"x_max":974,"o":"m 15 0 l 372 1035 l 617 1035 l 974 0 l 768 0 l 694 222 l 294 222 l 219 0 l 15 0 m 349 389 l 640 389 l 468 904 l 521 904 l 349 389 m 225 1169 l 388 1385 l 603 1385 l 767 1169 l 586 1169 l 496 1281 l 406 1169 l 225 1169 m 785 1278 l 665 1479 l 871 1479 l 933 1278 l 785 1278 z "},"Ẩ":{"ha":989,"x_min":15,"x_max":974,"o":"m 15 0 l 372 1035 l 617 1035 l 974 0 l 768 0 l 694 222 l 294 222 l 219 0 l 15 0 m 349 389 l 640 389 l 468 904 l 521 904 l 349 389 m 225 1169 l 388 1385 l 603 1385 l 767 1169 l 586 1169 l 496 1281 l 406 1169 l 225 1169 m 764 1265 l 692 1350 q 743 1385 729 1368 q 757 1426 757 1403 q 738 1465 757 1450 q 683 1481 718 1481 q 651 1478 668 1481 q 618 1468 633 1476 l 599 1575 q 651 1592 622 1586 q 713 1597 679 1597 q 853 1555 800 1597 q 907 1442 907 1513 q 868 1343 907 1389 q 764 1265 829 1297 z "},"Ẫ":{"ha":989,"x_min":15,"x_max":974,"o":"m 15 0 l 372 1035 l 617 1035 l 974 0 l 768 0 l 694 222 l 294 222 l 219 0 l 15 0 m 349 389 l 640 389 l 468 904 l 521 904 l 349 389 m 224 1169 l 386 1385 l 601 1385 l 765 1169 l 585 1169 l 494 1281 l 404 1169 l 224 1169 m 582 1469 q 528 1481 550 1469 q 491 1508 507 1493 q 460 1534 475 1522 q 426 1546 446 1546 q 398 1528 407 1546 q 389 1475 389 1510 l 251 1475 q 273 1597 251 1549 q 329 1667 294 1644 q 404 1690 364 1690 q 460 1679 438 1690 q 499 1653 482 1668 q 530 1626 515 1638 q 563 1615 544 1615 q 591 1634 583 1615 q 599 1685 599 1653 l 738 1685 q 690 1524 736 1578 q 582 1469 643 1469 z "},"Ȁ":{"ha":989,"x_min":15,"x_max":974,"o":"m 15 0 l 372 1035 l 617 1035 l 974 0 l 768 0 l 694 222 l 294 222 l 219 0 l 15 0 m 349 389 l 640 389 l 468 904 l 521 904 l 349 389 m 253 1169 l 106 1414 l 339 1414 l 429 1169 l 253 1169 m 561 1169 l 413 1414 l 646 1414 l 736 1169 l 561 1169 z "},"Ä":{"ha":989,"x_min":15,"x_max":974,"o":"m 15 0 l 372 1035 l 617 1035 l 974 0 l 768 0 l 694 222 l 294 222 l 219 0 l 15 0 m 349 389 l 640 389 l 468 904 l 521 904 l 349 389 m 249 1169 l 249 1361 l 439 1361 l 439 1169 l 249 1169 m 550 1169 l 550 1361 l 742 1361 l 742 1169 l 550 1169 z "},"Ạ":{"ha":989,"x_min":15,"x_max":974,"o":"m 15 0 l 372 1035 l 617 1035 l 974 0 l 768 0 l 694 222 l 294 222 l 219 0 l 15 0 m 349 389 l 640 389 l 468 904 l 521 904 l 349 389 m 400 -315 l 400 -125 l 590 -125 l 590 -315 l 400 -315 z "},"À":{"ha":989,"x_min":15,"x_max":974,"o":"m 15 0 l 372 1035 l 617 1035 l 974 0 l 768 0 l 694 222 l 294 222 l 219 0 l 15 0 m 349 389 l 640 389 l 468 904 l 521 904 l 349 389 m 406 1169 l 258 1410 l 494 1410 l 585 1169 l 406 1169 z "},"Ả":{"ha":989,"x_min":15,"x_max":974,"o":"m 15 0 l 372 1035 l 617 1035 l 974 0 l 768 0 l 694 222 l 294 222 l 219 0 l 15 0 m 349 389 l 640 389 l 468 904 l 521 904 l 349 389 m 508 1114 l 429 1204 q 483 1243 468 1224 q 499 1288 499 1263 q 478 1329 499 1314 q 419 1344 457 1344 q 385 1342 403 1344 q 350 1332 367 1340 l 329 1447 q 385 1465 353 1460 q 451 1471 417 1471 q 603 1425 546 1471 q 661 1304 661 1379 q 620 1198 661 1247 q 508 1114 579 1149 z "},"Ȃ":{"ha":989,"x_min":15,"x_max":974,"o":"m 15 0 l 372 1035 l 617 1035 l 974 0 l 768 0 l 694 222 l 294 222 l 219 0 l 15 0 m 349 389 l 640 389 l 468 904 l 521 904 l 349 389 m 217 1169 q 248 1280 218 1228 q 339 1365 278 1332 q 494 1399 400 1399 q 651 1367 590 1399 q 742 1283 713 1335 q 774 1169 772 1231 l 596 1169 q 567 1235 593 1211 q 494 1258 542 1258 q 424 1235 450 1258 q 396 1169 397 1211 l 217 1169 z "},"Ā":{"ha":989,"x_min":15,"x_max":974,"o":"m 15 0 l 372 1035 l 617 1035 l 974 0 l 768 0 l 694 222 l 294 222 l 219 0 l 15 0 m 349 389 l 640 389 l 468 904 l 521 904 l 349 389 m 271 1197 l 271 1347 l 718 1347 l 718 1197 l 271 1197 z "},"Ą":{"ha":989,"x_min":15,"x_max":982,"o":"m 15 0 l 372 1035 l 617 1035 l 974 0 l 768 0 l 694 222 l 294 222 l 219 0 l 15 0 m 349 389 l 640 389 l 468 904 l 521 904 l 349 389 m 835 -329 q 694 -282 747 -329 q 642 -164 642 -235 q 665 -66 642 -111 q 734 10 688 -21 q 851 54 781 42 l 892 54 l 892 0 q 841 -25 864 -6 q 804 -73 818 -44 q 790 -137 790 -101 q 813 -190 790 -171 q 864 -208 836 -208 q 906 -201 888 -208 q 943 -179 924 -194 l 982 -283 q 917 -317 953 -304 q 835 -329 882 -329 z "},"Å":{"ha":989,"x_min":15,"x_max":974,"o":"m 15 0 l 372 1035 l 617 1035 l 974 0 l 768 0 l 694 222 l 294 222 l 219 0 l 15 0 m 349 389 l 640 389 l 468 904 l 521 904 l 349 389 m 496 1111 q 372 1158 422 1111 q 322 1279 322 1204 q 372 1399 322 1353 q 496 1446 421 1446 q 619 1399 569 1446 q 668 1279 668 1353 q 619 1158 668 1204 q 496 1111 569 1111 m 496 1219 q 537 1236 521 1219 q 553 1279 553 1253 q 537 1322 553 1306 q 496 1338 521 1338 q 453 1322 471 1338 q 436 1279 436 1306 q 453 1236 436 1253 q 496 1219 469 1219 z "},"Ǻ":{"ha":989,"x_min":15,"x_max":974,"o":"m 15 0 l 372 1035 l 617 1035 l 974 0 l 768 0 l 694 222 l 294 222 l 219 0 l 15 0 m 349 389 l 640 389 l 468 904 l 521 904 l 349 389 m 496 1111 q 372 1158 422 1111 q 322 1279 322 1204 q 372 1399 322 1353 q 496 1446 421 1446 q 619 1399 569 1446 q 668 1279 668 1353 q 619 1158 668 1204 q 496 1111 569 1111 m 496 1219 q 537 1236 521 1219 q 553 1279 553 1253 q 537 1322 553 1306 q 496 1338 521 1338 q 453 1322 471 1338 q 436 1279 436 1306 q 453 1236 436 1253 q 496 1219 469 1219 m 457 1354 l 526 1579 l 732 1579 l 618 1354 l 457 1354 z "},"Ã":{"ha":989,"x_min":15,"x_max":974,"o":"m 15 0 l 372 1035 l 617 1035 l 974 0 l 768 0 l 694 222 l 294 222 l 219 0 l 15 0 m 349 389 l 640 389 l 468 904 l 521 904 l 349 389 m 594 1169 q 531 1181 557 1169 q 488 1208 506 1193 q 451 1234 469 1222 q 410 1246 433 1246 q 374 1228 386 1246 q 361 1175 361 1211 l 221 1175 q 271 1338 221 1286 q 392 1390 321 1390 q 457 1379 431 1390 q 503 1353 483 1368 q 540 1326 522 1338 q 578 1315 557 1315 q 617 1334 606 1315 q 628 1385 628 1353 l 768 1385 q 717 1224 767 1279 q 594 1169 667 1169 z "},"Æ":{"ha":1376,"x_min":15,"x_max":1339,"o":"m 15 0 l 372 1035 l 1339 1035 l 1339 868 l 839 868 l 839 603 l 1311 603 l 1311 436 l 839 436 l 839 167 l 1339 167 l 1338 0 l 650 0 l 650 222 l 294 222 l 219 0 l 15 0 m 349 389 l 650 389 l 650 868 l 510 868 l 349 389 z "},"Ǽ":{"ha":1376,"x_min":15,"x_max":1339,"o":"m 15 0 l 372 1035 l 1339 1035 l 1339 868 l 839 868 l 839 603 l 1311 603 l 1311 436 l 839 436 l 839 167 l 1339 167 l 1338 0 l 650 0 l 650 222 l 294 222 l 219 0 l 15 0 m 349 389 l 650 389 l 650 868 l 510 868 l 349 389 m 600 1169 l 690 1410 l 926 1410 l 779 1169 l 600 1169 z "},"B":{"ha":960,"x_min":100,"x_max":906,"o":"m 100 0 l 100 1035 l 536 1035 q 712 999 639 1035 q 824 899 785 964 q 864 743 864 835 q 826 610 864 672 q 704 508 788 549 l 704 596 q 825 524 781 567 q 888 428 869 481 q 906 317 906 375 q 808 84 906 168 q 536 0 710 0 l 100 0 m 289 167 l 556 167 q 673 208 629 167 q 717 317 717 249 q 673 426 717 385 q 556 468 629 468 l 289 468 l 289 167 m 289 633 l 546 633 q 639 667 604 633 q 674 756 674 701 q 639 842 674 810 q 546 874 604 874 l 289 874 l 289 633 z "},"C":{"ha":1075,"x_min":69,"x_max":1022,"o":"m 586 -17 q 381 24 475 -17 q 217 136 288 64 q 108 306 147 208 q 69 518 69 403 q 108 731 69 633 q 216 901 146 829 q 381 1012 286 972 q 586 1051 475 1051 q 785 1014 697 1051 q 935 915 874 976 q 1022 779 996 853 l 853 700 q 754 828 824 778 q 586 879 685 879 q 415 833 489 879 q 299 707 340 788 q 258 518 258 626 q 299 328 258 410 q 415 201 340 247 q 586 156 489 156 q 754 206 685 156 q 853 335 824 257 l 1022 256 q 935 120 996 182 q 785 21 874 58 q 586 -17 697 -17 z "},"Ć":{"ha":1075,"x_min":69,"x_max":1022,"o":"m 586 -17 q 381 24 475 -17 q 217 136 288 64 q 108 306 147 208 q 69 518 69 403 q 108 731 69 633 q 216 901 146 829 q 381 1012 286 972 q 586 1051 475 1051 q 785 1014 697 1051 q 935 915 874 976 q 1022 779 996 853 l 853 700 q 754 828 824 778 q 586 879 685 879 q 415 833 489 879 q 299 707 340 788 q 258 518 258 626 q 299 328 258 410 q 415 201 340 247 q 586 156 489 156 q 754 206 685 156 q 853 335 824 257 l 1022 256 q 935 120 996 182 q 785 21 874 58 q 586 -17 697 -17 m 497 1169 l 588 1410 l 824 1410 l 676 1169 l 497 1169 z "},"Č":{"ha":1075,"x_min":69,"x_max":1022,"o":"m 586 -17 q 381 24 475 -17 q 217 136 288 64 q 108 306 147 208 q 69 518 69 403 q 108 731 69 633 q 216 901 146 829 q 381 1012 286 972 q 586 1051 475 1051 q 785 1014 697 1051 q 935 915 874 976 q 1022 779 996 853 l 853 700 q 754 828 824 778 q 586 879 685 879 q 415 833 489 879 q 299 707 340 788 q 258 518 258 626 q 299 328 258 410 q 415 201 340 247 q 586 156 489 156 q 754 206 685 156 q 853 335 824 257 l 1022 256 q 935 120 996 182 q 785 21 874 58 q 586 -17 697 -17 m 478 1169 l 315 1399 l 496 1399 l 586 1274 l 676 1399 l 857 1399 l 693 1169 l 478 1169 z "},"Ç":{"ha":1075,"x_min":69,"x_max":1022,"o":"m 586 -17 q 381 24 475 -17 q 217 136 288 64 q 108 306 147 208 q 69 518 69 403 q 108 731 69 633 q 216 901 146 829 q 381 1012 286 972 q 586 1051 475 1051 q 785 1014 697 1051 q 935 915 874 976 q 1022 779 996 853 l 853 700 q 754 828 824 778 q 586 879 685 879 q 415 833 489 879 q 299 707 340 788 q 258 518 258 626 q 299 328 258 410 q 415 201 340 247 q 586 156 489 156 q 754 206 685 156 q 853 335 824 257 l 1022 256 q 935 120 996 182 q 785 21 874 58 q 586 -17 697 -17 m 600 -329 q 519 -317 564 -329 q 443 -283 474 -306 l 482 -179 q 528 -201 503 -193 q 576 -208 553 -208 q 624 -196 607 -208 q 640 -161 640 -183 q 607 -119 640 -135 q 510 -96 574 -103 l 539 14 l 646 14 l 633 -42 q 747 -87 706 -51 q 789 -175 789 -122 q 738 -287 789 -246 q 600 -329 686 -329 z "},"Ḉ":{"ha":1075,"x_min":69,"x_max":1022,"o":"m 586 -17 q 381 24 475 -17 q 217 136 288 64 q 108 306 147 208 q 69 518 69 403 q 108 731 69 633 q 216 901 146 829 q 381 1012 286 972 q 586 1051 475 1051 q 785 1014 697 1051 q 935 915 874 976 q 1022 779 996 853 l 853 700 q 754 828 824 778 q 586 879 685 879 q 415 833 489 879 q 299 707 340 788 q 258 518 258 626 q 299 328 258 410 q 415 201 340 247 q 586 156 489 156 q 754 206 685 156 q 853 335 824 257 l 1022 256 q 935 120 996 182 q 785 21 874 58 q 586 -17 697 -17 m 600 -329 q 519 -317 564 -329 q 443 -283 474 -306 l 482 -179 q 528 -201 503 -193 q 576 -208 553 -208 q 624 -196 607 -208 q 640 -161 640 -183 q 607 -119 640 -135 q 510 -96 574 -103 l 539 14 l 646 14 l 633 -42 q 747 -87 706 -51 q 789 -175 789 -122 q 738 -287 789 -246 q 600 -329 686 -329 m 497 1169 l 588 1410 l 824 1410 l 676 1169 l 497 1169 z "},"Ĉ":{"ha":1075,"x_min":69,"x_max":1022,"o":"m 586 -17 q 381 24 475 -17 q 217 136 288 64 q 108 306 147 208 q 69 518 69 403 q 108 731 69 633 q 216 901 146 829 q 381 1012 286 972 q 586 1051 475 1051 q 785 1014 697 1051 q 935 915 874 976 q 1022 779 996 853 l 853 700 q 754 828 824 778 q 586 879 685 879 q 415 833 489 879 q 299 707 340 788 q 258 518 258 626 q 299 328 258 410 q 415 201 340 247 q 586 156 489 156 q 754 206 685 156 q 853 335 824 257 l 1022 256 q 935 120 996 182 q 785 21 874 58 q 586 -17 697 -17 m 317 1169 l 479 1399 l 694 1399 l 858 1169 l 678 1169 l 588 1294 l 497 1169 l 317 1169 z "},"Ċ":{"ha":1075,"x_min":69,"x_max":1022,"o":"m 586 -17 q 381 24 475 -17 q 217 136 288 64 q 108 306 147 208 q 69 518 69 403 q 108 731 69 633 q 216 901 146 829 q 381 1012 286 972 q 586 1051 475 1051 q 785 1014 697 1051 q 935 915 874 976 q 1022 779 996 853 l 853 700 q 754 828 824 778 q 586 879 685 879 q 415 833 489 879 q 299 707 340 788 q 258 518 258 626 q 299 328 258 410 q 415 201 340 247 q 586 156 489 156 q 754 206 685 156 q 853 335 824 257 l 1022 256 q 935 120 996 182 q 785 21 874 58 q 586 -17 697 -17 m 492 1169 l 492 1361 l 682 1361 l 682 1169 l 492 1169 z "},"D":{"ha":1028,"x_min":100,"x_max":978,"o":"m 100 0 l 100 1035 l 438 1035 q 723 969 601 1035 q 911 787 844 903 q 978 518 978 671 q 911 249 978 367 q 723 66 844 132 q 438 0 601 0 l 100 0 m 289 167 l 442 167 q 624 210 547 167 q 744 333 701 254 q 788 518 788 411 q 744 704 788 626 q 624 825 701 782 q 442 868 547 868 l 289 868 l 289 167 z "},"Ǆ":{"ha":1821,"x_min":100,"x_max":1801,"o":"m 100 0 l 100 1035 l 438 1035 q 723 969 601 1035 q 911 787 844 903 q 978 518 978 671 q 911 249 978 367 q 723 66 844 132 q 438 0 601 0 l 100 0 m 289 167 l 442 167 q 624 210 547 167 q 744 333 701 254 q 788 518 788 411 q 744 704 788 626 q 624 825 701 782 q 442 868 547 868 l 289 868 l 289 167 m 1047 0 l 1047 149 l 1549 868 l 1076 868 l 1076 1035 l 1789 1035 l 1789 886 l 1289 167 l 1803 167 l 1803 0 l 1047 0 m 1317 1169 l 1154 1399 l 1335 1399 l 1425 1274 l 1515 1399 l 1696 1399 l 1532 1169 l 1317 1169 z "},"Ď":{"ha":1028,"x_min":100,"x_max":978,"o":"m 100 0 l 100 1035 l 438 1035 q 723 969 601 1035 q 911 787 844 903 q 978 518 978 671 q 911 249 978 367 q 723 66 844 132 q 438 0 601 0 l 100 0 m 289 167 l 442 167 q 624 210 547 167 q 744 333 701 254 q 788 518 788 411 q 744 704 788 626 q 624 825 701 782 q 442 868 547 868 l 289 868 l 289 167 m 415 1169 l 253 1399 l 433 1399 l 524 1274 l 614 1399 l 794 1399 l 631 1169 l 415 1169 z "},"Đ":{"ha":1028,"x_min":22,"x_max":978,"o":"m 22 439 l 22 599 l 507 599 l 507 439 l 22 439 m 100 0 l 100 1035 l 438 1035 q 723 969 601 1035 q 911 787 844 903 q 978 518 978 671 q 911 249 978 367 q 723 66 844 132 q 438 0 601 0 l 100 0 m 289 167 l 442 167 q 624 210 547 167 q 744 333 701 254 q 788 518 788 411 q 744 704 788 626 q 624 825 701 782 q 442 868 547 868 l 289 868 l 289 167 z "},"Ḍ":{"ha":1028,"x_min":100,"x_max":978,"o":"m 100 0 l 100 1035 l 438 1035 q 723 969 601 1035 q 911 787 844 903 q 978 518 978 671 q 911 249 978 367 q 723 66 844 132 q 438 0 601 0 l 100 0 m 289 167 l 442 167 q 624 210 547 167 q 744 333 701 254 q 788 518 788 411 q 744 704 788 626 q 624 825 701 782 q 442 868 547 868 l 289 868 l 289 167 m 429 -315 l 429 -125 l 619 -125 l 619 -315 l 429 -315 z "},"Ḏ":{"ha":1028,"x_min":100,"x_max":978,"o":"m 100 0 l 100 1035 l 438 1035 q 723 969 601 1035 q 911 787 844 903 q 978 518 978 671 q 911 249 978 367 q 723 66 844 132 q 438 0 601 0 l 100 0 m 289 167 l 442 167 q 624 210 547 167 q 744 333 701 254 q 788 518 788 411 q 744 704 788 626 q 624 825 701 782 q 442 868 547 868 l 289 868 l 289 167 m 300 -287 l 300 -139 l 747 -139 l 747 -287 l 300 -287 z "},"ǅ":{"ha":1696,"x_min":100,"x_max":1676,"o":"m 100 0 l 100 1035 l 438 1035 q 723 969 601 1035 q 911 787 844 903 q 978 518 978 671 q 911 249 978 367 q 723 66 844 132 q 438 0 601 0 l 100 0 m 289 167 l 442 167 q 624 210 547 167 q 744 333 701 254 q 788 518 788 411 q 744 704 788 626 q 624 825 701 782 q 442 868 547 868 l 289 868 l 289 167 m 1047 0 l 1047 147 l 1486 656 l 1514 593 l 1067 593 l 1067 756 l 1675 756 l 1675 607 l 1244 99 l 1217 161 l 1678 161 l 1678 0 l 1047 0 m 1258 889 l 1096 1118 l 1276 1118 l 1367 993 l 1457 1118 l 1638 1118 l 1474 889 l 1258 889 z "},"Ð":{"ha":1028,"x_min":22,"x_max":978,"o":"m 22 439 l 22 599 l 507 599 l 507 439 l 22 439 m 100 0 l 100 1035 l 438 1035 q 723 969 601 1035 q 911 787 844 903 q 978 518 978 671 q 911 249 978 367 q 723 66 844 132 q 438 0 601 0 l 100 0 m 289 167 l 442 167 q 624 210 547 167 q 744 333 701 254 q 788 518 788 411 q 744 704 788 626 q 624 825 701 782 q 442 868 547 868 l 289 868 l 289 167 z "},"E":{"ha":826,"x_min":100,"x_max":788,"o":"m 100 0 l 100 1035 l 788 1035 l 788 868 l 289 868 l 289 603 l 760 603 l 760 436 l 289 436 l 289 167 l 788 167 l 788 0 l 100 0 z "},"É":{"ha":826,"x_min":100,"x_max":788,"o":"m 100 0 l 100 1035 l 788 1035 l 788 868 l 289 868 l 289 603 l 760 603 l 760 436 l 289 436 l 289 167 l 788 167 l 788 0 l 100 0 m 354 1169 l 444 1410 l 681 1410 l 533 1169 l 354 1169 z "},"Ĕ":{"ha":826,"x_min":100,"x_max":788,"o":"m 100 0 l 100 1035 l 788 1035 l 788 868 l 289 868 l 289 603 l 760 603 l 760 436 l 289 436 l 289 167 l 788 167 l 788 0 l 100 0 m 444 1174 q 289 1207 350 1174 q 198 1292 228 1240 q 167 1403 168 1344 l 346 1403 q 374 1338 347 1361 q 444 1314 400 1314 q 517 1338 492 1314 q 546 1403 543 1361 l 724 1403 q 692 1290 722 1343 q 601 1206 663 1238 q 444 1174 540 1174 z "},"Ě":{"ha":826,"x_min":100,"x_max":788,"o":"m 100 0 l 100 1035 l 788 1035 l 788 868 l 289 868 l 289 603 l 760 603 l 760 436 l 289 436 l 289 167 l 788 167 l 788 0 l 100 0 m 336 1169 l 174 1399 l 354 1399 l 444 1274 l 535 1399 l 715 1399 l 551 1169 l 336 1169 z "},"Ḝ":{"ha":826,"x_min":100,"x_max":788,"o":"m 100 0 l 100 1035 l 788 1035 l 788 868 l 289 868 l 289 603 l 760 603 l 760 436 l 289 436 l 289 167 l 788 167 l 788 0 l 100 0 m 458 -329 q 377 -317 422 -329 q 301 -283 332 -306 l 340 -179 q 386 -201 361 -193 q 435 -208 411 -208 q 482 -196 465 -208 q 499 -161 499 -183 q 465 -119 499 -135 q 368 -96 432 -103 l 397 14 l 504 14 l 492 -42 q 606 -87 564 -51 q 647 -175 647 -122 q 596 -287 647 -246 q 458 -329 544 -329 m 444 1174 q 289 1207 350 1174 q 198 1292 228 1240 q 167 1403 168 1344 l 346 1403 q 374 1338 347 1361 q 444 1314 400 1314 q 517 1338 492 1314 q 546 1403 543 1361 l 724 1403 q 692 1290 722 1343 q 601 1206 663 1238 q 444 1174 540 1174 z "},"Ê":{"ha":826,"x_min":100,"x_max":788,"o":"m 100 0 l 100 1035 l 788 1035 l 788 868 l 289 868 l 289 603 l 760 603 l 760 436 l 289 436 l 289 167 l 788 167 l 788 0 l 100 0 m 174 1169 l 336 1399 l 551 1399 l 715 1169 l 535 1169 l 444 1294 l 354 1169 l 174 1169 z "},"Ế":{"ha":826,"x_min":100,"x_max":925,"o":"m 100 0 l 100 1035 l 788 1035 l 788 868 l 289 868 l 289 603 l 760 603 l 760 436 l 289 436 l 289 167 l 788 167 l 788 0 l 100 0 m 174 1169 l 336 1385 l 551 1385 l 715 1169 l 535 1169 l 444 1281 l 354 1169 l 174 1169 m 656 1278 l 719 1479 l 925 1479 l 804 1278 l 656 1278 z "},"Ệ":{"ha":826,"x_min":100,"x_max":788,"o":"m 100 0 l 100 1035 l 788 1035 l 788 868 l 289 868 l 289 603 l 760 603 l 760 436 l 289 436 l 289 167 l 788 167 l 788 0 l 100 0 m 350 -315 l 350 -125 l 540 -125 l 540 -315 l 350 -315 m 174 1169 l 336 1399 l 551 1399 l 715 1169 l 535 1169 l 444 1294 l 354 1169 l 174 1169 z "},"Ề":{"ha":826,"x_min":100,"x_max":882,"o":"m 100 0 l 100 1035 l 788 1035 l 788 868 l 289 868 l 289 603 l 760 603 l 760 436 l 289 436 l 289 167 l 788 167 l 788 0 l 100 0 m 174 1169 l 336 1385 l 551 1385 l 715 1169 l 535 1169 l 444 1281 l 354 1169 l 174 1169 m 733 1278 l 614 1479 l 819 1479 l 882 1278 l 733 1278 z "},"Ể":{"ha":826,"x_min":100,"x_max":856,"o":"m 100 0 l 100 1035 l 788 1035 l 788 868 l 289 868 l 289 603 l 760 603 l 760 436 l 289 436 l 289 167 l 788 167 l 788 0 l 100 0 m 174 1169 l 336 1385 l 551 1385 l 715 1169 l 535 1169 l 444 1281 l 354 1169 l 174 1169 m 713 1265 l 640 1350 q 692 1385 678 1368 q 706 1426 706 1403 q 686 1465 706 1450 q 632 1481 667 1481 q 599 1478 617 1481 q 567 1468 582 1476 l 547 1575 q 599 1592 571 1586 q 661 1597 628 1597 q 802 1555 749 1597 q 856 1442 856 1513 q 817 1343 856 1389 q 713 1265 778 1297 z "},"Ễ":{"ha":826,"x_min":100,"x_max":788,"o":"m 100 0 l 100 1035 l 788 1035 l 788 868 l 289 868 l 289 603 l 760 603 l 760 436 l 289 436 l 289 167 l 788 167 l 788 0 l 100 0 m 174 1169 l 336 1385 l 551 1385 l 715 1169 l 535 1169 l 444 1281 l 354 1169 l 174 1169 m 532 1469 q 478 1481 500 1469 q 441 1508 457 1493 q 410 1534 425 1522 q 376 1546 396 1546 q 348 1528 357 1546 q 339 1475 339 1510 l 201 1475 q 223 1597 201 1549 q 279 1667 244 1644 q 354 1690 314 1690 q 410 1679 388 1690 q 449 1653 432 1668 q 480 1626 465 1638 q 513 1615 494 1615 q 541 1634 533 1615 q 549 1685 549 1653 l 688 1685 q 640 1524 686 1578 q 532 1469 593 1469 z "},"Ȅ":{"ha":826,"x_min":54,"x_max":788,"o":"m 100 0 l 100 1035 l 788 1035 l 788 868 l 289 868 l 289 603 l 760 603 l 760 436 l 289 436 l 289 167 l 788 167 l 788 0 l 100 0 m 201 1169 l 54 1414 l 288 1414 l 378 1169 l 201 1169 m 510 1169 l 361 1414 l 594 1414 l 685 1169 l 510 1169 z "},"Ë":{"ha":826,"x_min":100,"x_max":788,"o":"m 100 0 l 100 1035 l 788 1035 l 788 868 l 289 868 l 289 603 l 760 603 l 760 436 l 289 436 l 289 167 l 788 167 l 788 0 l 100 0 m 199 1169 l 199 1361 l 389 1361 l 389 1169 l 199 1169 m 500 1169 l 500 1361 l 692 1361 l 692 1169 l 500 1169 z "},"Ė":{"ha":826,"x_min":100,"x_max":788,"o":"m 100 0 l 100 1035 l 788 1035 l 788 868 l 289 868 l 289 603 l 760 603 l 760 436 l 289 436 l 289 167 l 788 167 l 788 0 l 100 0 m 350 1169 l 350 1361 l 540 1361 l 540 1169 l 350 1169 z "},"Ẹ":{"ha":826,"x_min":100,"x_max":788,"o":"m 100 0 l 100 1035 l 788 1035 l 788 868 l 289 868 l 289 603 l 760 603 l 760 436 l 289 436 l 289 167 l 788 167 l 788 0 l 100 0 m 350 -315 l 350 -125 l 540 -125 l 540 -315 l 350 -315 z "},"È":{"ha":826,"x_min":100,"x_max":788,"o":"m 100 0 l 100 1035 l 788 1035 l 788 868 l 289 868 l 289 603 l 760 603 l 760 436 l 289 436 l 289 167 l 788 167 l 788 0 l 100 0 m 356 1169 l 208 1410 l 444 1410 l 535 1169 l 356 1169 z "},"Ẻ":{"ha":826,"x_min":100,"x_max":788,"o":"m 100 0 l 100 1035 l 788 1035 l 788 868 l 289 868 l 289 603 l 760 603 l 760 436 l 289 436 l 289 167 l 788 167 l 788 0 l 100 0 m 457 1114 l 378 1204 q 432 1243 417 1224 q 447 1288 447 1263 q 426 1329 447 1314 q 368 1344 406 1344 q 333 1342 351 1344 q 299 1332 315 1340 l 278 1447 q 333 1465 301 1460 q 400 1471 365 1471 q 552 1425 494 1471 q 610 1304 610 1379 q 569 1198 610 1247 q 457 1114 528 1149 z "},"Ȇ":{"ha":826,"x_min":100,"x_max":788,"o":"m 100 0 l 100 1035 l 788 1035 l 788 868 l 289 868 l 289 603 l 760 603 l 760 436 l 289 436 l 289 167 l 788 167 l 788 0 l 100 0 m 167 1169 q 198 1280 168 1228 q 289 1365 228 1332 q 444 1399 350 1399 q 601 1367 540 1399 q 692 1283 663 1335 q 724 1169 722 1231 l 546 1169 q 517 1235 543 1211 q 444 1258 492 1258 q 374 1235 400 1258 q 346 1169 347 1211 l 167 1169 z "},"Ē":{"ha":826,"x_min":100,"x_max":788,"o":"m 100 0 l 100 1035 l 788 1035 l 788 868 l 289 868 l 289 603 l 760 603 l 760 436 l 289 436 l 289 167 l 788 167 l 788 0 l 100 0 m 221 1197 l 221 1347 l 668 1347 l 668 1197 l 221 1197 z "},"Ḗ":{"ha":826,"x_min":100,"x_max":788,"o":"m 100 0 l 100 1035 l 788 1035 l 788 868 l 289 868 l 289 603 l 760 603 l 760 436 l 289 436 l 289 167 l 788 167 l 788 0 l 100 0 m 351 1433 l 442 1674 l 679 1674 l 531 1433 l 351 1433 m 218 1197 l 218 1347 l 665 1347 l 665 1197 l 218 1197 z "},"Ḕ":{"ha":826,"x_min":100,"x_max":788,"o":"m 100 0 l 100 1035 l 788 1035 l 788 868 l 289 868 l 289 603 l 760 603 l 760 436 l 289 436 l 289 167 l 788 167 l 788 0 l 100 0 m 221 1197 l 221 1347 l 669 1347 l 669 1197 l 221 1197 m 356 1433 l 208 1674 l 444 1674 l 535 1433 l 356 1433 z "},"Ę":{"ha":826,"x_min":100,"x_max":788,"o":"m 100 0 l 100 1035 l 788 1035 l 788 868 l 289 868 l 289 603 l 760 603 l 760 436 l 289 436 l 289 167 l 788 167 l 788 0 l 100 0 m 611 -329 q 471 -282 524 -329 q 418 -164 418 -235 q 441 -66 418 -111 q 510 10 464 -21 q 628 54 557 42 l 668 54 l 668 0 q 617 -25 640 -6 q 581 -73 594 -44 q 567 -137 567 -101 q 590 -190 567 -171 q 640 -208 613 -208 q 682 -201 664 -208 q 719 -179 700 -194 l 758 -283 q 694 -317 729 -304 q 611 -329 658 -329 z "},"Ẽ":{"ha":826,"x_min":100,"x_max":788,"o":"m 100 0 l 100 1035 l 788 1035 l 788 868 l 289 868 l 289 603 l 760 603 l 760 436 l 289 436 l 289 167 l 788 167 l 788 0 l 100 0 m 544 1169 q 481 1181 507 1169 q 438 1208 456 1193 q 401 1234 419 1222 q 360 1246 383 1246 q 324 1228 336 1246 q 311 1175 311 1211 l 171 1175 q 221 1338 171 1286 q 342 1390 271 1390 q 407 1379 381 1390 q 453 1353 433 1368 q 490 1326 472 1338 q 528 1315 507 1315 q 567 1334 556 1315 q 578 1385 578 1353 l 718 1385 q 667 1224 717 1279 q 544 1169 617 1169 z "},"Ə":{"ha":1131,"x_min":69,"x_max":1063,"o":"m 554 -17 q 360 19 449 -17 q 206 122 271 56 q 105 279 140 189 q 69 479 69 369 q 72 528 69 504 q 78 574 74 551 l 907 574 l 907 422 l 190 422 l 278 486 q 275 461 276 474 q 274 436 274 449 q 310 292 274 356 q 412 192 347 228 q 560 156 476 156 q 688 181 629 156 q 788 253 746 206 q 853 367 831 300 q 872 517 875 435 q 851 663 875 596 q 783 778 828 729 q 676 853 739 826 q 536 879 613 879 q 374 840 444 879 q 263 729 303 800 l 106 806 q 204 935 140 879 q 354 1021 268 990 q 538 1051 440 1051 q 750 1010 654 1051 q 916 896 846 969 q 1024 725 986 822 q 1063 514 1063 628 q 1025 306 1063 401 q 919 137 988 210 q 758 24 851 64 q 554 -17 665 -17 z "},"F":{"ha":814,"x_min":100,"x_max":790,"o":"m 100 0 l 100 1035 l 790 1035 l 790 868 l 289 868 l 289 582 l 728 582 l 728 415 l 289 415 l 289 0 l 100 0 z "},"G":{"ha":1122,"x_min":69,"x_max":1072,"o":"m 590 -17 q 385 24 479 -17 q 219 136 290 64 q 109 306 149 208 q 69 518 69 403 q 108 731 69 633 q 216 901 146 829 q 381 1012 286 972 q 586 1051 475 1051 q 785 1014 697 1051 q 935 915 874 976 q 1022 779 996 853 l 854 699 q 756 829 825 779 q 586 879 686 879 q 415 833 489 879 q 299 707 340 788 q 258 518 258 626 q 301 328 258 410 q 418 201 343 247 q 590 156 493 156 q 736 187 669 156 q 843 276 803 218 q 883 413 883 333 l 883 492 l 969 417 l 586 417 l 586 576 l 1072 576 l 1072 472 q 1032 261 1072 353 q 923 108 992 169 q 768 15 854 46 q 590 -17 682 -17 z "},"Ğ":{"ha":1122,"x_min":69,"x_max":1072,"o":"m 590 -17 q 385 24 479 -17 q 219 136 290 64 q 109 306 149 208 q 69 518 69 403 q 108 731 69 633 q 216 901 146 829 q 381 1012 286 972 q 586 1051 475 1051 q 785 1014 697 1051 q 935 915 874 976 q 1022 779 996 853 l 854 699 q 756 829 825 779 q 586 879 686 879 q 415 833 489 879 q 299 707 340 788 q 258 518 258 626 q 301 328 258 410 q 418 201 343 247 q 590 156 493 156 q 736 187 669 156 q 843 276 803 218 q 883 413 883 333 l 883 492 l 969 417 l 586 417 l 586 576 l 1072 576 l 1072 472 q 1032 261 1072 353 q 923 108 992 169 q 768 15 854 46 q 590 -17 682 -17 m 561 1174 q 406 1207 467 1174 q 315 1292 344 1240 q 283 1403 285 1344 l 463 1403 q 490 1338 464 1361 q 561 1314 517 1314 q 634 1338 608 1314 q 663 1403 660 1361 l 840 1403 q 809 1290 839 1343 q 718 1206 779 1238 q 561 1174 657 1174 z "},"Ǧ":{"ha":1122,"x_min":69,"x_max":1072,"o":"m 590 -17 q 385 24 479 -17 q 219 136 290 64 q 109 306 149 208 q 69 518 69 403 q 108 731 69 633 q 216 901 146 829 q 381 1012 286 972 q 586 1051 475 1051 q 785 1014 697 1051 q 935 915 874 976 q 1022 779 996 853 l 854 699 q 756 829 825 779 q 586 879 686 879 q 415 833 489 879 q 299 707 340 788 q 258 518 258 626 q 301 328 258 410 q 418 201 343 247 q 590 156 493 156 q 736 187 669 156 q 843 276 803 218 q 883 413 883 333 l 883 492 l 969 417 l 586 417 l 586 576 l 1072 576 l 1072 472 q 1032 261 1072 353 q 923 108 992 169 q 768 15 854 46 q 590 -17 682 -17 m 454 1169 l 292 1399 l 472 1399 l 563 1274 l 653 1399 l 833 1399 l 669 1169 l 454 1169 z "},"Ĝ":{"ha":1122,"x_min":69,"x_max":1072,"o":"m 590 -17 q 385 24 479 -17 q 219 136 290 64 q 109 306 149 208 q 69 518 69 403 q 108 731 69 633 q 216 901 146 829 q 381 1012 286 972 q 586 1051 475 1051 q 785 1014 697 1051 q 935 915 874 976 q 1022 779 996 853 l 854 699 q 756 829 825 779 q 586 879 686 879 q 415 833 489 879 q 299 707 340 788 q 258 518 258 626 q 301 328 258 410 q 418 201 343 247 q 590 156 493 156 q 736 187 669 156 q 843 276 803 218 q 883 413 883 333 l 883 492 l 969 417 l 586 417 l 586 576 l 1072 576 l 1072 472 q 1032 261 1072 353 q 923 108 992 169 q 768 15 854 46 q 590 -17 682 -17 m 292 1169 l 454 1399 l 669 1399 l 833 1169 l 653 1169 l 563 1294 l 472 1169 l 292 1169 z "},"Ģ":{"ha":1122,"x_min":69,"x_max":1072,"o":"m 590 -17 q 385 24 479 -17 q 219 136 290 64 q 109 306 149 208 q 69 518 69 403 q 108 731 69 633 q 216 901 146 829 q 381 1012 286 972 q 586 1051 475 1051 q 785 1014 697 1051 q 935 915 874 976 q 1022 779 996 853 l 854 699 q 756 829 825 779 q 586 879 686 879 q 415 833 489 879 q 299 707 340 788 q 258 518 258 626 q 301 328 258 410 q 418 201 343 247 q 590 156 493 156 q 736 187 669 156 q 843 276 803 218 q 883 413 883 333 l 883 492 l 969 417 l 586 417 l 586 576 l 1072 576 l 1072 472 q 1032 261 1072 353 q 923 108 992 169 q 768 15 854 46 q 590 -17 682 -17 m 407 -357 l 447 -97 l 679 -97 l 578 -357 l 407 -357 z "},"Ġ":{"ha":1122,"x_min":69,"x_max":1072,"o":"m 590 -17 q 385 24 479 -17 q 219 136 290 64 q 109 306 149 208 q 69 518 69 403 q 108 731 69 633 q 216 901 146 829 q 381 1012 286 972 q 586 1051 475 1051 q 785 1014 697 1051 q 935 915 874 976 q 1022 779 996 853 l 854 699 q 756 829 825 779 q 586 879 686 879 q 415 833 489 879 q 299 707 340 788 q 258 518 258 626 q 301 328 258 410 q 418 201 343 247 q 590 156 493 156 q 736 187 669 156 q 843 276 803 218 q 883 413 883 333 l 883 492 l 969 417 l 586 417 l 586 576 l 1072 576 l 1072 472 q 1032 261 1072 353 q 923 108 992 169 q 768 15 854 46 q 590 -17 682 -17 m 467 1169 l 467 1361 l 657 1361 l 657 1169 l 467 1169 z "},"Ḡ":{"ha":1122,"x_min":69,"x_max":1072,"o":"m 590 -17 q 385 24 479 -17 q 219 136 290 64 q 109 306 149 208 q 69 518 69 403 q 108 731 69 633 q 216 901 146 829 q 381 1012 286 972 q 586 1051 475 1051 q 785 1014 697 1051 q 935 915 874 976 q 1022 779 996 853 l 854 699 q 756 829 825 779 q 586 879 686 879 q 415 833 489 879 q 299 707 340 788 q 258 518 258 626 q 301 328 258 410 q 418 201 343 247 q 590 156 493 156 q 736 187 669 156 q 843 276 803 218 q 883 413 883 333 l 883 492 l 969 417 l 586 417 l 586 576 l 1072 576 l 1072 472 q 1032 261 1072 353 q 923 108 992 169 q 768 15 854 46 q 590 -17 682 -17 m 339 1197 l 339 1347 l 786 1347 l 786 1197 l 339 1197 z "},"H":{"ha":1018,"x_min":100,"x_max":919,"o":"m 100 0 l 100 1035 l 289 1035 l 289 583 l 729 583 l 729 1035 l 919 1035 l 919 0 l 729 0 l 729 417 l 289 417 l 289 0 l 100 0 z "},"Ħ":{"ha":1018,"x_min":-10,"x_max":1028,"o":"m -10 746 l -10 907 l 1028 907 l 1028 746 l -10 746 m 100 0 l 100 1035 l 289 1035 l 289 583 l 729 583 l 729 1035 l 919 1035 l 919 0 l 729 0 l 729 417 l 289 417 l 289 0 l 100 0 z "},"Ḫ":{"ha":1018,"x_min":100,"x_max":919,"o":"m 100 0 l 100 1035 l 289 1035 l 289 583 l 729 583 l 729 1035 l 919 1035 l 919 0 l 729 0 l 729 417 l 289 417 l 289 0 l 100 0 m 508 -354 q 353 -321 414 -354 q 262 -235 292 -287 q 231 -125 232 -183 l 410 -125 q 438 -190 411 -167 q 508 -214 464 -214 q 581 -190 556 -214 q 610 -125 607 -167 l 788 -125 q 756 -237 786 -185 q 665 -322 726 -290 q 508 -354 604 -354 z "},"Ĥ":{"ha":1018,"x_min":100,"x_max":919,"o":"m 100 0 l 100 1035 l 289 1035 l 289 583 l 729 583 l 729 1035 l 919 1035 l 919 0 l 729 0 l 729 417 l 289 417 l 289 0 l 100 0 m 239 1169 l 401 1399 l 617 1399 l 781 1169 l 600 1169 l 510 1294 l 419 1169 l 239 1169 z "},"Ḥ":{"ha":1018,"x_min":100,"x_max":919,"o":"m 100 0 l 100 1035 l 289 1035 l 289 583 l 729 583 l 729 1035 l 919 1035 l 919 0 l 729 0 l 729 417 l 289 417 l 289 0 l 100 0 m 414 -315 l 414 -125 l 604 -125 l 604 -315 l 414 -315 z "},"I":{"ha":388,"x_min":100,"x_max":289,"o":"m 100 0 l 100 1035 l 289 1035 l 289 0 l 100 0 z "},"Ĳ":{"ha":933,"x_min":100,"x_max":838,"o":"m 100 0 l 100 1035 l 289 1035 l 289 0 l 100 0 m 442 0 l 442 174 l 501 174 q 608 212 568 174 q 647 314 647 250 l 647 1035 l 838 1035 l 838 321 q 797 153 838 225 q 680 40 756 81 q 501 0 604 0 l 442 0 z "},"Í":{"ha":388,"x_min":100,"x_max":432,"o":"m 100 0 l 100 1035 l 289 1035 l 289 0 l 100 0 m 106 1169 l 196 1410 l 432 1410 l 285 1169 l 106 1169 z "},"Ĭ":{"ha":388,"x_min":-85,"x_max":474,"o":"m 100 0 l 100 1035 l 289 1035 l 289 0 l 100 0 m 194 1174 q 39 1207 100 1174 q -52 1292 -22 1240 q -83 1403 -82 1344 l 96 1403 q 124 1338 97 1361 q 194 1314 150 1314 q 267 1338 242 1314 q 296 1403 293 1361 l 474 1403 q 442 1290 472 1343 q 351 1206 413 1238 q 194 1174 290 1174 z "},"Î":{"ha":388,"x_min":-76,"x_max":465,"o":"m 100 0 l 100 1035 l 289 1035 l 289 0 l 100 0 m -75 1169 l 88 1399 l 303 1399 l 467 1169 l 286 1169 l 196 1294 l 106 1169 l -75 1169 z "},"Ȉ":{"ha":388,"x_min":-196,"x_max":436,"o":"m 100 0 l 100 1035 l 289 1035 l 289 0 l 100 0 m -47 1169 l -194 1414 l 39 1414 l 129 1169 l -47 1169 m 261 1169 l 113 1414 l 346 1414 l 436 1169 l 261 1169 z "},"Ï":{"ha":388,"x_min":-51,"x_max":442,"o":"m 100 0 l 100 1035 l 289 1035 l 289 0 l 100 0 m -51 1169 l -51 1361 l 139 1361 l 139 1169 l -51 1169 m 250 1169 l 250 1361 l 442 1361 l 442 1169 l 250 1169 z "},"Ḯ":{"ha":388,"x_min":-54,"x_max":439,"o":"m 100 0 l 100 1035 l 289 1035 l 289 0 l 100 0 m 104 1433 l 194 1674 l 432 1674 l 283 1433 l 104 1433 m -53 1169 l -53 1361 l 138 1361 l 138 1169 l -53 1169 m 249 1169 l 249 1361 l 440 1361 l 440 1169 l 249 1169 z "},"İ":{"ha":388,"x_min":99,"x_max":290,"o":"m 100 0 l 100 1035 l 289 1035 l 289 0 l 100 0 m 100 1169 l 100 1361 l 290 1361 l 290 1169 l 100 1169 z "},"Ị":{"ha":388,"x_min":99,"x_max":290,"o":"m 100 0 l 100 1035 l 289 1035 l 289 0 l 100 0 m 100 -315 l 100 -125 l 290 -125 l 290 -315 l 100 -315 z "},"Ì":{"ha":388,"x_min":-43,"x_max":289,"o":"m 100 0 l 100 1035 l 289 1035 l 289 0 l 100 0 m 106 1169 l -42 1410 l 194 1410 l 285 1169 l 106 1169 z "},"Ỉ":{"ha":388,"x_min":28,"x_max":360,"o":"m 100 0 l 100 1035 l 289 1035 l 289 0 l 100 0 m 208 1114 l 129 1204 q 183 1243 168 1224 q 199 1288 199 1263 q 178 1329 199 1314 q 119 1344 157 1344 q 85 1342 103 1344 q 50 1332 67 1340 l 29 1447 q 85 1465 53 1460 q 151 1471 117 1471 q 303 1425 246 1471 q 361 1304 361 1379 q 320 1198 361 1247 q 208 1114 279 1149 z "},"Ȋ":{"ha":388,"x_min":-85,"x_max":474,"o":"m 100 0 l 100 1035 l 289 1035 l 289 0 l 100 0 m -83 1169 q -52 1280 -82 1228 q 39 1365 -22 1332 q 194 1399 100 1399 q 351 1367 290 1399 q 442 1283 413 1335 q 474 1169 472 1231 l 296 1169 q 267 1235 293 1211 q 194 1258 242 1258 q 124 1235 150 1258 q 96 1169 97 1211 l -83 1169 z "},"Ī":{"ha":388,"x_min":-29,"x_max":418,"o":"m 100 0 l 100 1035 l 289 1035 l 289 0 l 100 0 m -29 1197 l -29 1347 l 418 1347 l 418 1197 l -29 1197 z "},"Į":{"ha":388,"x_min":-6,"x_max":336,"o":"m 100 0 l 100 1035 l 289 1035 l 289 0 l 100 0 m 189 -329 q 49 -282 101 -329 q -4 -164 -4 -235 q 19 -66 -4 -111 q 88 10 42 -21 q 206 54 135 42 l 246 54 l 246 0 q 195 -25 218 -6 q 158 -73 172 -44 q 144 -137 144 -101 q 167 -190 144 -171 q 218 -208 190 -208 q 260 -201 242 -208 q 297 -179 278 -194 l 336 -283 q 272 -317 307 -304 q 189 -329 236 -329 z "},"Ĩ":{"ha":388,"x_min":-79,"x_max":468,"o":"m 100 0 l 100 1035 l 289 1035 l 289 0 l 100 0 m 294 1169 q 231 1181 257 1169 q 188 1208 206 1193 q 151 1234 169 1222 q 110 1246 133 1246 q 74 1228 86 1246 q 61 1175 61 1211 l -79 1175 q -29 1338 -79 1286 q 92 1390 21 1390 q 157 1379 131 1390 q 203 1353 183 1368 q 240 1326 222 1338 q 278 1315 257 1315 q 317 1334 306 1315 q 328 1385 328 1353 l 468 1385 q 417 1224 467 1279 q 294 1169 367 1169 z "},"J":{"ha":546,"x_min":54,"x_max":450,"o":"m 54 0 l 54 174 l 114 174 q 220 212 181 174 q 260 314 260 250 l 260 1035 l 450 1035 l 450 321 q 409 153 450 225 q 292 40 368 81 q 114 0 217 0 l 54 0 z "},"Ĵ":{"ha":546,"x_min":54,"x_max":626,"o":"m 54 0 l 54 174 l 114 174 q 220 212 181 174 q 260 314 260 250 l 260 1035 l 450 1035 l 450 321 q 409 153 450 225 q 292 40 368 81 q 114 0 217 0 l 54 0 m 85 1169 l 247 1399 l 463 1399 l 626 1169 l 446 1169 l 356 1294 l 265 1169 l 85 1169 z "},"K":{"ha":943,"x_min":100,"x_max":928,"o":"m 100 0 l 100 1035 l 289 1035 l 289 496 l 238 514 l 678 1035 l 915 1035 l 503 546 l 514 679 l 928 0 l 706 0 l 428 456 l 289 290 l 289 0 l 100 0 z "},"Ķ":{"ha":943,"x_min":100,"x_max":928,"o":"m 100 0 l 100 1035 l 289 1035 l 289 496 l 238 514 l 678 1035 l 915 1035 l 503 546 l 514 679 l 928 0 l 706 0 l 428 456 l 289 290 l 289 0 l 100 0 m 317 -357 l 357 -97 l 589 -97 l 488 -357 l 317 -357 z "},"L":{"ha":754,"x_min":100,"x_max":732,"o":"m 100 0 l 100 1035 l 289 1035 l 289 167 l 732 167 l 732 0 l 100 0 z "},"Ǉ":{"ha":1606,"x_min":100,"x_max":1510,"o":"m 100 0 l 100 1035 l 289 1035 l 289 167 l 732 167 l 732 0 l 100 0 m 1157 -17 q 918 56 1015 -17 q 794 254 821 128 l 969 301 q 1039 193 989 231 q 1158 156 1089 156 q 1246 176 1210 156 q 1301 234 1282 196 q 1321 324 1321 272 l 1321 1035 l 1510 1035 l 1510 324 q 1468 149 1510 225 q 1347 28 1426 72 q 1157 -17 1268 -17 z "},"Ĺ":{"ha":754,"x_min":100,"x_max":732,"o":"m 100 0 l 100 1035 l 289 1035 l 289 167 l 732 167 l 732 0 l 100 0 m 106 1169 l 196 1410 l 432 1410 l 285 1169 l 106 1169 z "},"Ľ":{"ha":754,"x_min":100,"x_max":736,"o":"m 100 0 l 100 1035 l 289 1035 l 289 167 l 732 167 l 732 0 l 100 0 m 511 789 l 511 1051 l 736 1051 l 676 789 l 511 789 z "},"Ļ":{"ha":754,"x_min":100,"x_max":732,"o":"m 100 0 l 100 1035 l 289 1035 l 289 167 l 732 167 l 732 0 l 100 0 m 260 -357 l 300 -97 l 532 -97 l 431 -357 l 260 -357 z "},"Ŀ":{"ha":754,"x_min":100,"x_max":732,"o":"m 511 415 q 440 445 469 415 q 410 517 410 475 q 440 588 410 560 q 511 617 469 617 q 582 588 553 617 q 611 517 611 560 q 582 444 611 474 q 511 415 553 415 m 100 0 l 100 1035 l 289 1035 l 289 167 l 732 167 l 732 0 l 100 0 z "},"Ḷ":{"ha":754,"x_min":100,"x_max":732,"o":"m 100 0 l 100 1035 l 289 1035 l 289 167 l 732 167 l 732 0 l 100 0 m 321 -315 l 321 -125 l 511 -125 l 511 -315 l 321 -315 z "},"ǈ":{"ha":1104,"x_min":100,"x_max":1021,"o":"m 100 0 l 100 1035 l 289 1035 l 289 167 l 732 167 l 732 0 l 100 0 m 735 -307 q 697 -306 717 -307 q 665 -301 678 -304 l 665 -143 q 715 -147 690 -147 q 806 -120 774 -147 q 839 -37 839 -93 l 839 756 l 1021 756 l 1021 -37 q 986 -184 1021 -124 q 887 -276 951 -244 q 735 -307 822 -307 m 839 840 l 839 1035 l 1021 1035 l 1021 840 l 839 840 z "},"Ḻ":{"ha":754,"x_min":100,"x_max":732,"o":"m 100 0 l 100 1035 l 289 1035 l 289 167 l 732 167 l 732 0 l 100 0 m 192 -287 l 192 -139 l 639 -139 l 639 -287 l 192 -287 z "},"Ł":{"ha":849,"x_min":50,"x_max":825,"o":"m 50 290 l 50 468 l 526 746 l 526 568 l 50 290 m 193 0 l 193 1035 l 382 1035 l 382 167 l 825 167 l 825 0 l 193 0 z "},"M":{"ha":1240,"x_min":100,"x_max":1142,"o":"m 100 0 l 100 1035 l 281 1035 l 668 508 l 582 508 l 961 1035 l 1142 1035 l 1142 0 l 951 0 l 951 819 l 1025 801 l 632 278 l 610 278 l 226 801 l 289 819 l 289 0 l 100 0 z "},"Ṃ":{"ha":1240,"x_min":100,"x_max":1142,"o":"m 100 0 l 100 1035 l 281 1035 l 668 508 l 582 508 l 961 1035 l 1142 1035 l 1142 0 l 951 0 l 951 819 l 1025 801 l 632 278 l 610 278 l 226 801 l 289 819 l 289 0 l 100 0 m 525 -315 l 525 -125 l 715 -125 l 715 -315 l 525 -315 z "},"N":{"ha":1029,"x_min":100,"x_max":929,"o":"m 100 0 l 100 1035 l 247 1035 l 817 268 l 740 253 l 740 1035 l 929 1035 l 929 0 l 781 0 l 219 772 l 289 788 l 289 0 l 100 0 z "},"Ǌ":{"ha":1574,"x_min":100,"x_max":1478,"o":"m 100 0 l 100 1035 l 247 1035 l 817 268 l 740 253 l 740 1035 l 929 1035 l 929 0 l 781 0 l 219 772 l 289 788 l 289 0 l 100 0 m 1083 0 l 1083 174 l 1143 174 q 1249 212 1210 174 q 1289 314 1289 250 l 1289 1035 l 1479 1035 l 1479 321 q 1438 153 1479 225 q 1322 40 1397 81 q 1143 0 1246 0 l 1083 0 z "},"Ń":{"ha":1029,"x_min":100,"x_max":929,"o":"m 100 0 l 100 1035 l 247 1035 l 817 268 l 740 253 l 740 1035 l 929 1035 l 929 0 l 781 0 l 219 772 l 289 788 l 289 0 l 100 0 m 425 1169 l 515 1410 l 751 1410 l 604 1169 l 425 1169 z "},"Ň":{"ha":1029,"x_min":100,"x_max":929,"o":"m 100 0 l 100 1035 l 247 1035 l 817 268 l 740 253 l 740 1035 l 929 1035 l 929 0 l 781 0 l 219 772 l 289 788 l 289 0 l 100 0 m 407 1169 l 244 1399 l 425 1399 l 515 1274 l 606 1399 l 786 1399 l 622 1169 l 407 1169 z "},"Ņ":{"ha":1029,"x_min":100,"x_max":929,"o":"m 100 0 l 100 1035 l 247 1035 l 817 268 l 740 253 l 740 1035 l 929 1035 l 929 0 l 781 0 l 219 772 l 289 788 l 289 0 l 100 0 m 360 -357 l 400 -97 l 632 -97 l 531 -357 l 360 -357 z "},"Ṅ":{"ha":1029,"x_min":100,"x_max":929,"o":"m 100 0 l 100 1035 l 247 1035 l 817 268 l 740 253 l 740 1035 l 929 1035 l 929 0 l 781 0 l 219 772 l 289 788 l 289 0 l 100 0 m 419 1169 l 419 1361 l 610 1361 l 610 1169 l 419 1169 z "},"Ṇ":{"ha":1029,"x_min":100,"x_max":929,"o":"m 100 0 l 100 1035 l 247 1035 l 817 268 l 740 253 l 740 1035 l 929 1035 l 929 0 l 781 0 l 219 772 l 289 788 l 289 0 l 100 0 m 419 -315 l 419 -125 l 610 -125 l 610 -315 l 419 -315 z "},"ǋ":{"ha":1379,"x_min":100,"x_max":1294,"o":"m 100 0 l 100 1035 l 247 1035 l 817 268 l 740 253 l 740 1035 l 929 1035 l 929 0 l 781 0 l 219 772 l 289 788 l 289 0 l 100 0 m 1010 -307 q 972 -306 992 -307 q 940 -301 953 -304 l 940 -143 q 990 -147 965 -147 q 1081 -120 1049 -147 q 1114 -37 1114 -93 l 1114 756 l 1296 756 l 1296 -37 q 1261 -184 1296 -124 q 1162 -276 1226 -244 q 1010 -307 1097 -307 m 1114 840 l 1114 1035 l 1296 1035 l 1296 840 l 1114 840 z "},"Ṉ":{"ha":1029,"x_min":100,"x_max":929,"o":"m 100 0 l 100 1035 l 247 1035 l 817 268 l 740 253 l 740 1035 l 929 1035 l 929 0 l 781 0 l 219 772 l 289 788 l 289 0 l 100 0 m 292 -287 l 292 -139 l 739 -139 l 739 -287 l 292 -287 z "},"Ñ":{"ha":1029,"x_min":100,"x_max":929,"o":"m 100 0 l 100 1035 l 247 1035 l 817 268 l 740 253 l 740 1035 l 929 1035 l 929 0 l 781 0 l 219 772 l 289 788 l 289 0 l 100 0 m 615 1169 q 552 1181 578 1169 q 508 1208 526 1193 q 472 1234 490 1222 q 431 1246 454 1246 q 394 1228 407 1246 q 382 1175 382 1211 l 242 1175 q 292 1338 242 1286 q 413 1390 342 1390 q 478 1379 451 1390 q 524 1353 504 1368 q 560 1326 543 1338 q 599 1315 578 1315 q 638 1334 626 1315 q 649 1385 649 1353 l 789 1385 q 738 1224 788 1279 q 615 1169 688 1169 z "},"Ŋ":{"ha":1029,"x_min":100,"x_max":929,"o":"m 643 -307 q 606 -306 625 -307 q 574 -301 586 -304 l 574 -142 q 624 -146 599 -146 q 714 -119 682 -146 q 746 -37 746 -93 l 746 129 l 794 -19 l 240 744 l 289 760 l 289 0 l 100 0 l 100 1035 l 247 1035 l 790 303 l 740 288 l 740 1035 l 929 1035 l 929 -37 q 894 -184 929 -124 q 795 -276 860 -244 q 643 -307 731 -307 z "},"O":{"ha":1219,"x_min":69,"x_max":1151,"o":"m 610 -17 q 397 24 496 -17 q 225 136 299 64 q 110 306 151 208 q 69 518 69 404 q 110 731 69 633 q 224 900 150 828 q 396 1012 297 972 q 610 1051 494 1051 q 824 1011 725 1051 q 996 899 922 971 q 1110 731 1069 828 q 1151 518 1151 633 q 1110 306 1151 404 q 994 136 1068 208 q 823 24 921 64 q 610 -17 725 -17 m 610 156 q 750 183 686 156 q 862 258 814 210 q 935 374 910 307 q 961 518 961 440 q 935 662 961 596 q 862 777 910 728 q 750 853 814 826 q 610 879 686 879 q 471 853 535 879 q 359 777 407 826 q 285 662 311 728 q 258 518 258 596 q 285 374 258 440 q 359 258 311 307 q 471 183 407 210 q 610 156 535 156 z "},"Ó":{"ha":1219,"x_min":69,"x_max":1151,"o":"m 610 -17 q 397 24 496 -17 q 225 136 299 64 q 110 306 151 208 q 69 518 69 404 q 110 731 69 633 q 224 900 150 828 q 396 1012 297 972 q 610 1051 494 1051 q 824 1011 725 1051 q 996 899 922 971 q 1110 731 1069 828 q 1151 518 1151 633 q 1110 306 1151 404 q 994 136 1068 208 q 823 24 921 64 q 610 -17 725 -17 m 610 156 q 750 183 686 156 q 862 258 814 210 q 935 374 910 307 q 961 518 961 440 q 935 662 961 596 q 862 777 910 728 q 750 853 814 826 q 610 879 686 879 q 471 853 535 879 q 359 777 407 826 q 285 662 311 728 q 258 518 258 596 q 285 374 258 440 q 359 258 311 307 q 471 183 407 210 q 610 156 535 156 m 521 1169 l 611 1410 l 847 1410 l 700 1169 l 521 1169 z "},"Ŏ":{"ha":1219,"x_min":69,"x_max":1151,"o":"m 610 -17 q 397 24 496 -17 q 225 136 299 64 q 110 306 151 208 q 69 518 69 404 q 110 731 69 633 q 224 900 150 828 q 396 1012 297 972 q 610 1051 494 1051 q 824 1011 725 1051 q 996 899 922 971 q 1110 731 1069 828 q 1151 518 1151 633 q 1110 306 1151 404 q 994 136 1068 208 q 823 24 921 64 q 610 -17 725 -17 m 610 156 q 750 183 686 156 q 862 258 814 210 q 935 374 910 307 q 961 518 961 440 q 935 662 961 596 q 862 777 910 728 q 750 853 814 826 q 610 879 686 879 q 471 853 535 879 q 359 777 407 826 q 285 662 311 728 q 258 518 258 596 q 285 374 258 440 q 359 258 311 307 q 471 183 407 210 q 610 156 535 156 m 610 1174 q 454 1207 515 1174 q 363 1292 393 1240 q 332 1403 333 1344 l 511 1403 q 539 1338 513 1361 q 610 1314 565 1314 q 683 1338 657 1314 q 711 1403 708 1361 l 889 1403 q 858 1290 888 1343 q 767 1206 828 1238 q 610 1174 706 1174 z "},"Ô":{"ha":1219,"x_min":69,"x_max":1151,"o":"m 610 -17 q 397 24 496 -17 q 225 136 299 64 q 110 306 151 208 q 69 518 69 404 q 110 731 69 633 q 224 900 150 828 q 396 1012 297 972 q 610 1051 494 1051 q 824 1011 725 1051 q 996 899 922 971 q 1110 731 1069 828 q 1151 518 1151 633 q 1110 306 1151 404 q 994 136 1068 208 q 823 24 921 64 q 610 -17 725 -17 m 610 156 q 750 183 686 156 q 862 258 814 210 q 935 374 910 307 q 961 518 961 440 q 935 662 961 596 q 862 777 910 728 q 750 853 814 826 q 610 879 686 879 q 471 853 535 879 q 359 777 407 826 q 285 662 311 728 q 258 518 258 596 q 285 374 258 440 q 359 258 311 307 q 471 183 407 210 q 610 156 535 156 m 340 1169 l 503 1399 l 718 1399 l 882 1169 l 701 1169 l 611 1294 l 521 1169 l 340 1169 z "},"Ố":{"ha":1219,"x_min":69,"x_max":1151,"o":"m 610 -17 q 397 24 496 -17 q 225 136 299 64 q 110 306 151 208 q 69 518 69 404 q 110 731 69 633 q 224 900 150 828 q 396 1012 297 972 q 610 1051 494 1051 q 824 1011 725 1051 q 996 899 922 971 q 1110 731 1069 828 q 1151 518 1151 633 q 1110 306 1151 404 q 994 136 1068 208 q 823 24 921 64 q 610 -17 725 -17 m 610 156 q 750 183 686 156 q 862 258 814 210 q 935 374 910 307 q 961 518 961 440 q 935 662 961 596 q 862 777 910 728 q 750 853 814 826 q 610 879 686 879 q 471 853 535 879 q 359 777 407 826 q 285 662 311 728 q 258 518 258 596 q 285 374 258 440 q 359 258 311 307 q 471 183 407 210 q 610 156 535 156 m 340 1169 l 503 1385 l 718 1385 l 882 1169 l 701 1169 l 611 1281 l 521 1169 l 340 1169 m 822 1278 l 886 1479 l 1092 1479 l 971 1278 l 822 1278 z "},"Ộ":{"ha":1219,"x_min":69,"x_max":1151,"o":"m 610 -17 q 397 24 496 -17 q 225 136 299 64 q 110 306 151 208 q 69 518 69 404 q 110 731 69 633 q 224 900 150 828 q 396 1012 297 972 q 610 1051 494 1051 q 824 1011 725 1051 q 996 899 922 971 q 1110 731 1069 828 q 1151 518 1151 633 q 1110 306 1151 404 q 994 136 1068 208 q 823 24 921 64 q 610 -17 725 -17 m 610 156 q 750 183 686 156 q 862 258 814 210 q 935 374 910 307 q 961 518 961 440 q 935 662 961 596 q 862 777 910 728 q 750 853 814 826 q 610 879 686 879 q 471 853 535 879 q 359 777 407 826 q 285 662 311 728 q 258 518 258 596 q 285 374 258 440 q 359 258 311 307 q 471 183 407 210 q 610 156 535 156 m 515 -315 l 515 -125 l 706 -125 l 706 -315 l 515 -315 m 340 1169 l 503 1399 l 718 1399 l 882 1169 l 701 1169 l 611 1294 l 521 1169 l 340 1169 z "},"Ồ":{"ha":1219,"x_min":69,"x_max":1151,"o":"m 610 -17 q 397 24 496 -17 q 225 136 299 64 q 110 306 151 208 q 69 518 69 404 q 110 731 69 633 q 224 900 150 828 q 396 1012 297 972 q 610 1051 494 1051 q 824 1011 725 1051 q 996 899 922 971 q 1110 731 1069 828 q 1151 518 1151 633 q 1110 306 1151 404 q 994 136 1068 208 q 823 24 921 64 q 610 -17 725 -17 m 610 156 q 750 183 686 156 q 862 258 814 210 q 935 374 910 307 q 961 518 961 440 q 935 662 961 596 q 862 777 910 728 q 750 853 814 826 q 610 879 686 879 q 471 853 535 879 q 359 777 407 826 q 285 662 311 728 q 258 518 258 596 q 285 374 258 440 q 359 258 311 307 q 471 183 407 210 q 610 156 535 156 m 340 1169 l 503 1385 l 718 1385 l 882 1169 l 701 1169 l 611 1281 l 521 1169 l 340 1169 m 900 1278 l 781 1479 l 986 1479 l 1049 1278 l 900 1278 z "},"Ổ":{"ha":1219,"x_min":69,"x_max":1151,"o":"m 610 -17 q 397 24 496 -17 q 225 136 299 64 q 110 306 151 208 q 69 518 69 404 q 110 731 69 633 q 224 900 150 828 q 396 1012 297 972 q 610 1051 494 1051 q 824 1011 725 1051 q 996 899 922 971 q 1110 731 1069 828 q 1151 518 1151 633 q 1110 306 1151 404 q 994 136 1068 208 q 823 24 921 64 q 610 -17 725 -17 m 610 156 q 750 183 686 156 q 862 258 814 210 q 935 374 910 307 q 961 518 961 440 q 935 662 961 596 q 862 777 910 728 q 750 853 814 826 q 610 879 686 879 q 471 853 535 879 q 359 777 407 826 q 285 662 311 728 q 258 518 258 596 q 285 374 258 440 q 359 258 311 307 q 471 183 407 210 q 610 156 535 156 m 340 1169 l 503 1385 l 718 1385 l 882 1169 l 701 1169 l 611 1281 l 521 1169 l 340 1169 m 879 1265 l 807 1350 q 858 1385 844 1368 q 872 1426 872 1403 q 853 1465 872 1450 q 799 1481 833 1481 q 766 1478 783 1481 q 733 1468 749 1476 l 714 1575 q 766 1592 738 1586 q 828 1597 794 1597 q 969 1555 915 1597 q 1022 1442 1022 1513 q 983 1343 1022 1389 q 879 1265 944 1297 z "},"Ỗ":{"ha":1219,"x_min":69,"x_max":1151,"o":"m 610 -17 q 397 24 496 -17 q 225 136 299 64 q 110 306 151 208 q 69 518 69 404 q 110 731 69 633 q 224 900 150 828 q 396 1012 297 972 q 610 1051 494 1051 q 824 1011 725 1051 q 996 899 922 971 q 1110 731 1069 828 q 1151 518 1151 633 q 1110 306 1151 404 q 994 136 1068 208 q 823 24 921 64 q 610 -17 725 -17 m 610 156 q 750 183 686 156 q 862 258 814 210 q 935 374 910 307 q 961 518 961 440 q 935 662 961 596 q 862 777 910 728 q 750 853 814 826 q 610 879 686 879 q 471 853 535 879 q 359 777 407 826 q 285 662 311 728 q 258 518 258 596 q 285 374 258 440 q 359 258 311 307 q 471 183 407 210 q 610 156 535 156 m 339 1169 l 501 1385 l 717 1385 l 881 1169 l 700 1169 l 610 1281 l 519 1169 l 339 1169 m 697 1469 q 644 1481 665 1469 q 606 1508 622 1493 q 576 1534 590 1522 q 542 1546 561 1546 q 513 1528 522 1546 q 504 1475 504 1510 l 367 1475 q 388 1597 367 1549 q 444 1667 410 1644 q 519 1690 479 1690 q 575 1679 553 1690 q 614 1653 597 1668 q 645 1626 631 1638 q 678 1615 660 1615 q 706 1634 699 1615 q 714 1685 714 1653 l 853 1685 q 805 1524 851 1578 q 697 1469 758 1469 z "},"Ȍ":{"ha":1219,"x_min":69,"x_max":1151,"o":"m 610 -17 q 397 24 496 -17 q 225 136 299 64 q 110 306 151 208 q 69 518 69 404 q 110 731 69 633 q 224 900 150 828 q 396 1012 297 972 q 610 1051 494 1051 q 824 1011 725 1051 q 996 899 922 971 q 1110 731 1069 828 q 1151 518 1151 633 q 1110 306 1151 404 q 994 136 1068 208 q 823 24 921 64 q 610 -17 725 -17 m 610 156 q 750 183 686 156 q 862 258 814 210 q 935 374 910 307 q 961 518 961 440 q 935 662 961 596 q 862 777 910 728 q 750 853 814 826 q 610 879 686 879 q 471 853 535 879 q 359 777 407 826 q 285 662 311 728 q 258 518 258 596 q 285 374 258 440 q 359 258 311 307 q 471 183 407 210 q 610 156 535 156 m 368 1169 l 221 1414 l 454 1414 l 544 1169 l 368 1169 m 676 1169 l 528 1414 l 761 1414 l 851 1169 l 676 1169 z "},"Ö":{"ha":1219,"x_min":69,"x_max":1151,"o":"m 610 -17 q 397 24 496 -17 q 225 136 299 64 q 110 306 151 208 q 69 518 69 404 q 110 731 69 633 q 224 900 150 828 q 396 1012 297 972 q 610 1051 494 1051 q 824 1011 725 1051 q 996 899 922 971 q 1110 731 1069 828 q 1151 518 1151 633 q 1110 306 1151 404 q 994 136 1068 208 q 823 24 921 64 q 610 -17 725 -17 m 610 156 q 750 183 686 156 q 862 258 814 210 q 935 374 910 307 q 961 518 961 440 q 935 662 961 596 q 862 777 910 728 q 750 853 814 826 q 610 879 686 879 q 471 853 535 879 q 359 777 407 826 q 285 662 311 728 q 258 518 258 596 q 285 374 258 440 q 359 258 311 307 q 471 183 407 210 q 610 156 535 156 m 364 1169 l 364 1361 l 554 1361 l 554 1169 l 364 1169 m 665 1169 l 665 1361 l 857 1361 l 857 1169 l 665 1169 z "},"Ȫ":{"ha":1219,"x_min":69,"x_max":1151,"o":"m 610 -17 q 397 24 496 -17 q 225 136 299 64 q 110 306 151 208 q 69 518 69 404 q 110 731 69 633 q 224 900 150 828 q 396 1012 297 972 q 610 1051 494 1051 q 824 1011 725 1051 q 996 899 922 971 q 1110 731 1069 828 q 1151 518 1151 633 q 1110 306 1151 404 q 994 136 1068 208 q 823 24 921 64 q 610 -17 725 -17 m 610 156 q 750 183 686 156 q 862 258 814 210 q 935 374 910 307 q 961 518 961 440 q 935 662 961 596 q 862 777 910 728 q 750 853 814 826 q 610 879 686 879 q 471 853 535 879 q 359 777 407 826 q 285 662 311 728 q 258 518 258 596 q 285 374 258 440 q 359 258 311 307 q 471 183 407 210 q 610 156 535 156 m 364 1169 l 364 1361 l 554 1361 l 554 1169 l 364 1169 m 665 1169 l 665 1361 l 857 1361 l 857 1169 l 665 1169 m 386 1444 l 386 1594 l 833 1594 l 833 1444 l 386 1444 z "},"Ȱ":{"ha":1219,"x_min":69,"x_max":1151,"o":"m 610 -17 q 397 24 496 -17 q 225 136 299 64 q 110 306 151 208 q 69 518 69 404 q 110 731 69 633 q 224 900 150 828 q 396 1012 297 972 q 610 1051 494 1051 q 824 1011 725 1051 q 996 899 922 971 q 1110 731 1069 828 q 1151 518 1151 633 q 1110 306 1151 404 q 994 136 1068 208 q 823 24 921 64 q 610 -17 725 -17 m 610 156 q 750 183 686 156 q 862 258 814 210 q 935 374 910 307 q 961 518 961 440 q 935 662 961 596 q 862 777 910 728 q 750 853 814 826 q 610 879 686 879 q 471 853 535 879 q 359 777 407 826 q 285 662 311 728 q 258 518 258 596 q 285 374 258 440 q 359 258 311 307 q 471 183 407 210 q 610 156 535 156 m 514 1169 l 514 1361 l 706 1361 l 706 1169 l 514 1169 m 386 1444 l 386 1594 l 833 1594 l 833 1444 l 386 1444 z "},"Ọ":{"ha":1219,"x_min":69,"x_max":1151,"o":"m 610 -17 q 397 24 496 -17 q 225 136 299 64 q 110 306 151 208 q 69 518 69 404 q 110 731 69 633 q 224 900 150 828 q 396 1012 297 972 q 610 1051 494 1051 q 824 1011 725 1051 q 996 899 922 971 q 1110 731 1069 828 q 1151 518 1151 633 q 1110 306 1151 404 q 994 136 1068 208 q 823 24 921 64 q 610 -17 725 -17 m 610 156 q 750 183 686 156 q 862 258 814 210 q 935 374 910 307 q 961 518 961 440 q 935 662 961 596 q 862 777 910 728 q 750 853 814 826 q 610 879 686 879 q 471 853 535 879 q 359 777 407 826 q 285 662 311 728 q 258 518 258 596 q 285 374 258 440 q 359 258 311 307 q 471 183 407 210 q 610 156 535 156 m 515 -315 l 515 -125 l 706 -125 l 706 -315 l 515 -315 z "},"Ò":{"ha":1219,"x_min":69,"x_max":1151,"o":"m 610 -17 q 397 24 496 -17 q 225 136 299 64 q 110 306 151 208 q 69 518 69 404 q 110 731 69 633 q 224 900 150 828 q 396 1012 297 972 q 610 1051 494 1051 q 824 1011 725 1051 q 996 899 922 971 q 1110 731 1069 828 q 1151 518 1151 633 q 1110 306 1151 404 q 994 136 1068 208 q 823 24 921 64 q 610 -17 725 -17 m 610 156 q 750 183 686 156 q 862 258 814 210 q 935 374 910 307 q 961 518 961 440 q 935 662 961 596 q 862 777 910 728 q 750 853 814 826 q 610 879 686 879 q 471 853 535 879 q 359 777 407 826 q 285 662 311 728 q 258 518 258 596 q 285 374 258 440 q 359 258 311 307 q 471 183 407 210 q 610 156 535 156 m 521 1169 l 374 1410 l 610 1410 l 700 1169 l 521 1169 z "},"Ỏ":{"ha":1219,"x_min":69,"x_max":1151,"o":"m 610 -17 q 397 24 496 -17 q 225 136 299 64 q 110 306 151 208 q 69 518 69 404 q 110 731 69 633 q 224 900 150 828 q 396 1012 297 972 q 610 1051 494 1051 q 824 1011 725 1051 q 996 899 922 971 q 1110 731 1069 828 q 1151 518 1151 633 q 1110 306 1151 404 q 994 136 1068 208 q 823 24 921 64 q 610 -17 725 -17 m 610 156 q 750 183 686 156 q 862 258 814 210 q 935 374 910 307 q 961 518 961 440 q 935 662 961 596 q 862 777 910 728 q 750 853 814 826 q 610 879 686 879 q 471 853 535 879 q 359 777 407 826 q 285 662 311 728 q 258 518 258 596 q 285 374 258 440 q 359 258 311 307 q 471 183 407 210 q 610 156 535 156 m 624 1114 l 544 1204 q 599 1243 583 1224 q 614 1288 614 1263 q 593 1329 614 1314 q 535 1344 572 1344 q 500 1342 518 1344 q 465 1332 482 1340 l 444 1447 q 500 1465 468 1460 q 567 1471 532 1471 q 719 1425 661 1471 q 776 1304 776 1379 q 735 1198 776 1247 q 624 1114 694 1149 z "},"Ơ":{"ha":1219,"x_min":69,"x_max":1151,"o":"m 610 -17 q 397 24 496 -17 q 225 136 299 64 q 110 306 151 208 q 69 518 69 404 q 110 731 69 633 q 224 900 150 828 q 396 1012 297 972 q 610 1051 494 1051 l 892 1051 q 918 1054 903 1051 q 946 1072 933 1057 q 958 1121 958 1086 q 950 1173 958 1144 q 929 1228 942 1201 l 1093 1228 q 1116 1170 1107 1199 q 1125 1104 1125 1142 q 1089 965 1125 1008 q 994 922 1053 922 l 889 922 l 929 956 q 1047 841 997 908 q 1124 692 1097 774 q 1151 518 1151 611 q 1110 306 1151 404 q 994 136 1068 208 q 823 24 921 64 q 610 -17 725 -17 m 610 156 q 750 183 686 156 q 862 258 814 210 q 935 374 910 307 q 961 518 961 440 q 935 662 961 596 q 862 777 910 728 q 750 853 814 826 q 610 879 686 879 q 471 853 535 879 q 359 777 407 826 q 285 662 311 728 q 258 518 258 596 q 285 374 258 440 q 359 258 311 307 q 471 183 407 210 q 610 156 535 156 z "},"Ớ":{"ha":1219,"x_min":69,"x_max":1151,"o":"m 610 -17 q 397 24 496 -17 q 225 136 299 64 q 110 306 151 208 q 69 518 69 404 q 110 731 69 633 q 224 900 150 828 q 396 1012 297 972 q 610 1051 494 1051 l 892 1051 q 918 1054 903 1051 q 946 1072 933 1057 q 958 1121 958 1086 q 950 1173 958 1144 q 929 1228 942 1201 l 1093 1228 q 1116 1170 1107 1199 q 1125 1104 1125 1142 q 1089 965 1125 1008 q 994 922 1053 922 l 889 922 l 929 956 q 1047 841 997 908 q 1124 692 1097 774 q 1151 518 1151 611 q 1110 306 1151 404 q 994 136 1068 208 q 823 24 921 64 q 610 -17 725 -17 m 610 156 q 750 183 686 156 q 862 258 814 210 q 935 374 910 307 q 961 518 961 440 q 935 662 961 596 q 862 777 910 728 q 750 853 814 826 q 610 879 686 879 q 471 853 535 879 q 359 777 407 826 q 285 662 311 728 q 258 518 258 596 q 285 374 258 440 q 359 258 311 307 q 471 183 407 210 q 610 156 535 156 m 521 1169 l 611 1410 l 847 1410 l 700 1169 l 521 1169 z "},"Ợ":{"ha":1219,"x_min":69,"x_max":1151,"o":"m 610 -17 q 397 24 496 -17 q 225 136 299 64 q 110 306 151 208 q 69 518 69 404 q 110 731 69 633 q 224 900 150 828 q 396 1012 297 972 q 610 1051 494 1051 l 892 1051 q 918 1054 903 1051 q 946 1072 933 1057 q 958 1121 958 1086 q 950 1173 958 1144 q 929 1228 942 1201 l 1093 1228 q 1116 1170 1107 1199 q 1125 1104 1125 1142 q 1089 965 1125 1008 q 994 922 1053 922 l 889 922 l 929 956 q 1047 841 997 908 q 1124 692 1097 774 q 1151 518 1151 611 q 1110 306 1151 404 q 994 136 1068 208 q 823 24 921 64 q 610 -17 725 -17 m 610 156 q 750 183 686 156 q 862 258 814 210 q 935 374 910 307 q 961 518 961 440 q 935 662 961 596 q 862 777 910 728 q 750 853 814 826 q 610 879 686 879 q 471 853 535 879 q 359 777 407 826 q 285 662 311 728 q 258 518 258 596 q 285 374 258 440 q 359 258 311 307 q 471 183 407 210 q 610 156 535 156 m 515 -315 l 515 -125 l 706 -125 l 706 -315 l 515 -315 z "},"Ờ":{"ha":1219,"x_min":69,"x_max":1151,"o":"m 610 -17 q 397 24 496 -17 q 225 136 299 64 q 110 306 151 208 q 69 518 69 404 q 110 731 69 633 q 224 900 150 828 q 396 1012 297 972 q 610 1051 494 1051 l 892 1051 q 918 1054 903 1051 q 946 1072 933 1057 q 958 1121 958 1086 q 950 1173 958 1144 q 929 1228 942 1201 l 1093 1228 q 1116 1170 1107 1199 q 1125 1104 1125 1142 q 1089 965 1125 1008 q 994 922 1053 922 l 889 922 l 929 956 q 1047 841 997 908 q 1124 692 1097 774 q 1151 518 1151 611 q 1110 306 1151 404 q 994 136 1068 208 q 823 24 921 64 q 610 -17 725 -17 m 610 156 q 750 183 686 156 q 862 258 814 210 q 935 374 910 307 q 961 518 961 440 q 935 662 961 596 q 862 777 910 728 q 750 853 814 826 q 610 879 686 879 q 471 853 535 879 q 359 777 407 826 q 285 662 311 728 q 258 518 258 596 q 285 374 258 440 q 359 258 311 307 q 471 183 407 210 q 610 156 535 156 m 521 1169 l 374 1410 l 610 1410 l 700 1169 l 521 1169 z "},"Ở":{"ha":1219,"x_min":69,"x_max":1151,"o":"m 610 -17 q 397 24 496 -17 q 225 136 299 64 q 110 306 151 208 q 69 518 69 404 q 110 731 69 633 q 224 900 150 828 q 396 1012 297 972 q 610 1051 494 1051 l 892 1051 q 918 1054 903 1051 q 946 1072 933 1057 q 958 1121 958 1086 q 950 1173 958 1144 q 929 1228 942 1201 l 1093 1228 q 1116 1170 1107 1199 q 1125 1104 1125 1142 q 1089 965 1125 1008 q 994 922 1053 922 l 889 922 l 929 956 q 1047 841 997 908 q 1124 692 1097 774 q 1151 518 1151 611 q 1110 306 1151 404 q 994 136 1068 208 q 823 24 921 64 q 610 -17 725 -17 m 610 156 q 750 183 686 156 q 862 258 814 210 q 935 374 910 307 q 961 518 961 440 q 935 662 961 596 q 862 777 910 728 q 750 853 814 826 q 610 879 686 879 q 471 853 535 879 q 359 777 407 826 q 285 662 311 728 q 258 518 258 596 q 285 374 258 440 q 359 258 311 307 q 471 183 407 210 q 610 156 535 156 m 624 1114 l 544 1204 q 599 1243 583 1224 q 614 1288 614 1263 q 593 1329 614 1314 q 535 1344 572 1344 q 500 1342 518 1344 q 465 1332 482 1340 l 444 1447 q 500 1465 468 1460 q 567 1471 532 1471 q 719 1425 661 1471 q 776 1304 776 1379 q 735 1198 776 1247 q 624 1114 694 1149 z "},"Ỡ":{"ha":1219,"x_min":69,"x_max":1151,"o":"m 610 -17 q 397 24 496 -17 q 225 136 299 64 q 110 306 151 208 q 69 518 69 404 q 110 731 69 633 q 224 900 150 828 q 396 1012 297 972 q 610 1051 494 1051 l 892 1051 q 918 1054 903 1051 q 946 1072 933 1057 q 958 1121 958 1086 q 950 1173 958 1144 q 929 1228 942 1201 l 1093 1228 q 1116 1170 1107 1199 q 1125 1104 1125 1142 q 1089 965 1125 1008 q 994 922 1053 922 l 889 922 l 929 956 q 1047 841 997 908 q 1124 692 1097 774 q 1151 518 1151 611 q 1110 306 1151 404 q 994 136 1068 208 q 823 24 921 64 q 610 -17 725 -17 m 610 156 q 750 183 686 156 q 862 258 814 210 q 935 374 910 307 q 961 518 961 440 q 935 662 961 596 q 862 777 910 728 q 750 853 814 826 q 610 879 686 879 q 471 853 535 879 q 359 777 407 826 q 285 662 311 728 q 258 518 258 596 q 285 374 258 440 q 359 258 311 307 q 471 183 407 210 q 610 156 535 156 m 710 1169 q 647 1181 672 1169 q 603 1208 621 1193 q 567 1234 585 1222 q 525 1246 549 1246 q 489 1228 501 1246 q 476 1175 476 1211 l 336 1175 q 386 1338 336 1286 q 507 1390 436 1390 q 572 1379 546 1390 q 618 1353 599 1368 q 655 1326 638 1338 q 693 1315 672 1315 q 732 1334 721 1315 q 743 1385 743 1353 l 883 1385 q 832 1224 882 1279 q 710 1169 782 1169 z "},"Ő":{"ha":1219,"x_min":69,"x_max":1151,"o":"m 610 -17 q 397 24 496 -17 q 225 136 299 64 q 110 306 151 208 q 69 518 69 404 q 110 731 69 633 q 224 900 150 828 q 396 1012 297 972 q 610 1051 494 1051 q 824 1011 725 1051 q 996 899 922 971 q 1110 731 1069 828 q 1151 518 1151 633 q 1110 306 1151 404 q 994 136 1068 208 q 823 24 921 64 q 610 -17 725 -17 m 610 156 q 750 183 686 156 q 862 258 814 210 q 935 374 910 307 q 961 518 961 440 q 935 662 961 596 q 862 777 910 728 q 750 853 814 826 q 610 879 686 879 q 471 853 535 879 q 359 777 407 826 q 285 662 311 728 q 258 518 258 596 q 285 374 258 440 q 359 258 311 307 q 471 183 407 210 q 610 156 535 156 m 368 1169 l 426 1410 l 660 1410 l 543 1169 l 368 1169 m 675 1169 l 735 1410 l 968 1410 l 851 1169 l 675 1169 z "},"Ȏ":{"ha":1219,"x_min":69,"x_max":1151,"o":"m 610 -17 q 397 24 496 -17 q 225 136 299 64 q 110 306 151 208 q 69 518 69 404 q 110 731 69 633 q 224 900 150 828 q 396 1012 297 972 q 610 1051 494 1051 q 824 1011 725 1051 q 996 899 922 971 q 1110 731 1069 828 q 1151 518 1151 633 q 1110 306 1151 404 q 994 136 1068 208 q 823 24 921 64 q 610 -17 725 -17 m 610 156 q 750 183 686 156 q 862 258 814 210 q 935 374 910 307 q 961 518 961 440 q 935 662 961 596 q 862 777 910 728 q 750 853 814 826 q 610 879 686 879 q 471 853 535 879 q 359 777 407 826 q 285 662 311 728 q 258 518 258 596 q 285 374 258 440 q 359 258 311 307 q 471 183 407 210 q 610 156 535 156 m 332 1169 q 363 1280 333 1228 q 454 1365 393 1332 q 610 1399 515 1399 q 767 1367 706 1399 q 858 1283 828 1335 q 889 1169 888 1231 l 711 1169 q 683 1235 708 1211 q 610 1258 657 1258 q 539 1235 565 1258 q 511 1169 513 1211 l 332 1169 z "},"Ō":{"ha":1219,"x_min":69,"x_max":1151,"o":"m 610 -17 q 397 24 496 -17 q 225 136 299 64 q 110 306 151 208 q 69 518 69 404 q 110 731 69 633 q 224 900 150 828 q 396 1012 297 972 q 610 1051 494 1051 q 824 1011 725 1051 q 996 899 922 971 q 1110 731 1069 828 q 1151 518 1151 633 q 1110 306 1151 404 q 994 136 1068 208 q 823 24 921 64 q 610 -17 725 -17 m 610 156 q 750 183 686 156 q 862 258 814 210 q 935 374 910 307 q 961 518 961 440 q 935 662 961 596 q 862 777 910 728 q 750 853 814 826 q 610 879 686 879 q 471 853 535 879 q 359 777 407 826 q 285 662 311 728 q 258 518 258 596 q 285 374 258 440 q 359 258 311 307 q 471 183 407 210 q 610 156 535 156 m 386 1197 l 386 1347 l 833 1347 l 833 1197 l 386 1197 z "},"Ṓ":{"ha":1219,"x_min":69,"x_max":1151,"o":"m 610 -17 q 397 24 496 -17 q 225 136 299 64 q 110 306 151 208 q 69 518 69 404 q 110 731 69 633 q 224 900 150 828 q 396 1012 297 972 q 610 1051 494 1051 q 824 1011 725 1051 q 996 899 922 971 q 1110 731 1069 828 q 1151 518 1151 633 q 1110 306 1151 404 q 994 136 1068 208 q 823 24 921 64 q 610 -17 725 -17 m 610 156 q 750 183 686 156 q 862 258 814 210 q 935 374 910 307 q 961 518 961 440 q 935 662 961 596 q 862 777 910 728 q 750 853 814 826 q 610 879 686 879 q 471 853 535 879 q 359 777 407 826 q 285 662 311 728 q 258 518 258 596 q 285 374 258 440 q 359 258 311 307 q 471 183 407 210 q 610 156 535 156 m 517 1433 l 607 1674 l 844 1674 l 696 1433 l 517 1433 m 383 1197 l 383 1347 l 831 1347 l 831 1197 l 383 1197 z "},"Ṑ":{"ha":1219,"x_min":69,"x_max":1151,"o":"m 610 -17 q 397 24 496 -17 q 225 136 299 64 q 110 306 151 208 q 69 518 69 404 q 110 731 69 633 q 224 900 150 828 q 396 1012 297 972 q 610 1051 494 1051 q 824 1011 725 1051 q 996 899 922 971 q 1110 731 1069 828 q 1151 518 1151 633 q 1110 306 1151 404 q 994 136 1068 208 q 823 24 921 64 q 610 -17 725 -17 m 610 156 q 750 183 686 156 q 862 258 814 210 q 935 374 910 307 q 961 518 961 440 q 935 662 961 596 q 862 777 910 728 q 750 853 814 826 q 610 879 686 879 q 471 853 535 879 q 359 777 407 826 q 285 662 311 728 q 258 518 258 596 q 285 374 258 440 q 359 258 311 307 q 471 183 407 210 q 610 156 535 156 m 386 1197 l 386 1347 l 835 1347 l 835 1197 l 386 1197 m 521 1433 l 374 1674 l 610 1674 l 700 1433 l 521 1433 z "},"Ǫ":{"ha":1219,"x_min":69,"x_max":1151,"o":"m 610 -17 q 397 24 496 -17 q 225 136 299 64 q 110 306 151 208 q 69 518 69 404 q 110 731 69 633 q 224 900 150 828 q 396 1012 297 972 q 610 1051 494 1051 q 824 1011 725 1051 q 996 899 922 971 q 1110 731 1069 828 q 1151 518 1151 633 q 1110 306 1151 404 q 994 136 1068 208 q 823 24 921 64 q 610 -17 725 -17 m 610 156 q 750 183 686 156 q 862 258 814 210 q 935 374 910 307 q 961 518 961 440 q 935 662 961 596 q 862 777 910 728 q 750 853 814 826 q 610 879 686 879 q 471 853 535 879 q 359 777 407 826 q 285 662 311 728 q 258 518 258 596 q 285 374 258 440 q 359 258 311 307 q 471 183 407 210 q 610 156 535 156 m 642 -329 q 501 -282 554 -329 q 449 -164 449 -235 q 472 -66 449 -111 q 541 10 494 -21 q 658 54 588 42 l 699 54 l 699 0 q 648 -25 671 -6 q 611 -73 625 -44 q 597 -137 597 -101 q 620 -190 597 -171 q 671 -208 643 -208 q 713 -201 694 -208 q 750 -179 731 -194 l 789 -283 q 724 -317 760 -304 q 642 -329 689 -329 z "},"Ø":{"ha":1219,"x_min":69,"x_max":1151,"o":"m 81 0 l 928 1035 l 1139 1035 l 292 0 l 81 0 m 610 -17 q 397 24 496 -17 q 225 136 299 64 q 110 306 151 208 q 69 518 69 404 q 110 731 69 633 q 224 900 150 828 q 396 1012 297 972 q 610 1051 494 1051 q 824 1011 725 1051 q 996 899 922 971 q 1110 731 1069 828 q 1151 518 1151 633 q 1110 306 1151 404 q 994 136 1068 208 q 823 24 921 64 q 610 -17 725 -17 m 610 156 q 750 183 686 156 q 862 258 814 210 q 935 374 910 307 q 961 518 961 440 q 935 662 961 596 q 862 777 910 728 q 750 853 814 826 q 610 879 686 879 q 471 853 535 879 q 359 777 407 826 q 285 662 311 728 q 258 518 258 596 q 285 374 258 440 q 359 258 311 307 q 471 183 407 210 q 610 156 535 156 z "},"Ǿ":{"ha":1219,"x_min":69,"x_max":1151,"o":"m 81 0 l 928 1035 l 1139 1035 l 292 0 l 81 0 m 610 -17 q 397 24 496 -17 q 225 136 299 64 q 110 306 151 208 q 69 518 69 404 q 110 731 69 633 q 224 900 150 828 q 396 1012 297 972 q 610 1051 494 1051 q 824 1011 725 1051 q 996 899 922 971 q 1110 731 1069 828 q 1151 518 1151 633 q 1110 306 1151 404 q 994 136 1068 208 q 823 24 921 64 q 610 -17 725 -17 m 610 156 q 750 183 686 156 q 862 258 814 210 q 935 374 910 307 q 961 518 961 440 q 935 662 961 596 q 862 777 910 728 q 750 853 814 826 q 610 879 686 879 q 471 853 535 879 q 359 777 407 826 q 285 662 311 728 q 258 518 258 596 q 285 374 258 440 q 359 258 311 307 q 471 183 407 210 q 610 156 535 156 m 521 1169 l 611 1410 l 847 1410 l 700 1169 l 521 1169 z "},"Õ":{"ha":1219,"x_min":69,"x_max":1151,"o":"m 610 -17 q 397 24 496 -17 q 225 136 299 64 q 110 306 151 208 q 69 518 69 404 q 110 731 69 633 q 224 900 150 828 q 396 1012 297 972 q 610 1051 494 1051 q 824 1011 725 1051 q 996 899 922 971 q 1110 731 1069 828 q 1151 518 1151 633 q 1110 306 1151 404 q 994 136 1068 208 q 823 24 921 64 q 610 -17 725 -17 m 610 156 q 750 183 686 156 q 862 258 814 210 q 935 374 910 307 q 961 518 961 440 q 935 662 961 596 q 862 777 910 728 q 750 853 814 826 q 610 879 686 879 q 471 853 535 879 q 359 777 407 826 q 285 662 311 728 q 258 518 258 596 q 285 374 258 440 q 359 258 311 307 q 471 183 407 210 q 610 156 535 156 m 710 1169 q 647 1181 672 1169 q 603 1208 621 1193 q 567 1234 585 1222 q 525 1246 549 1246 q 489 1228 501 1246 q 476 1175 476 1211 l 336 1175 q 386 1338 336 1286 q 507 1390 436 1390 q 572 1379 546 1390 q 618 1353 599 1368 q 655 1326 638 1338 q 693 1315 672 1315 q 732 1334 721 1315 q 743 1385 743 1353 l 883 1385 q 832 1224 882 1279 q 710 1169 782 1169 z "},"Ṍ":{"ha":1219,"x_min":69,"x_max":1151,"o":"m 610 -17 q 397 24 496 -17 q 225 136 299 64 q 110 306 151 208 q 69 518 69 404 q 110 731 69 633 q 224 900 150 828 q 396 1012 297 972 q 610 1051 494 1051 q 824 1011 725 1051 q 996 899 922 971 q 1110 731 1069 828 q 1151 518 1151 633 q 1110 306 1151 404 q 994 136 1068 208 q 823 24 921 64 q 610 -17 725 -17 m 610 156 q 750 183 686 156 q 862 258 814 210 q 935 374 910 307 q 961 518 961 440 q 935 662 961 596 q 862 777 910 728 q 750 853 814 826 q 610 879 686 879 q 471 853 535 879 q 359 777 407 826 q 285 662 311 728 q 258 518 258 596 q 285 374 258 440 q 359 258 311 307 q 471 183 407 210 q 610 156 535 156 m 710 1169 q 647 1181 672 1169 q 603 1208 621 1193 q 567 1234 585 1222 q 525 1246 549 1246 q 489 1228 501 1246 q 476 1175 476 1211 l 336 1175 q 386 1338 336 1286 q 507 1390 436 1390 q 572 1379 546 1390 q 618 1353 599 1368 q 655 1326 638 1338 q 693 1315 672 1315 q 732 1334 721 1315 q 743 1385 743 1353 l 883 1385 q 832 1224 882 1279 q 710 1169 782 1169 m 519 1433 l 610 1674 l 847 1674 l 699 1433 l 519 1433 z "},"Ṏ":{"ha":1219,"x_min":69,"x_max":1151,"o":"m 610 -17 q 397 24 496 -17 q 225 136 299 64 q 110 306 151 208 q 69 518 69 404 q 110 731 69 633 q 224 900 150 828 q 396 1012 297 972 q 610 1051 494 1051 q 824 1011 725 1051 q 996 899 922 971 q 1110 731 1069 828 q 1151 518 1151 633 q 1110 306 1151 404 q 994 136 1068 208 q 823 24 921 64 q 610 -17 725 -17 m 610 156 q 750 183 686 156 q 862 258 814 210 q 935 374 910 307 q 961 518 961 440 q 935 662 961 596 q 862 777 910 728 q 750 853 814 826 q 610 879 686 879 q 471 853 535 879 q 359 777 407 826 q 285 662 311 728 q 258 518 258 596 q 285 374 258 440 q 359 258 311 307 q 471 183 407 210 q 610 156 535 156 m 710 1169 q 647 1181 672 1169 q 603 1208 621 1193 q 567 1234 585 1222 q 525 1246 549 1246 q 489 1228 501 1246 q 476 1175 476 1211 l 336 1175 q 386 1338 336 1286 q 507 1390 436 1390 q 572 1379 546 1390 q 618 1353 599 1368 q 655 1326 638 1338 q 693 1315 672 1315 q 732 1334 721 1315 q 743 1385 743 1353 l 883 1385 q 832 1224 882 1279 q 710 1169 782 1169 m 363 1440 l 363 1632 l 554 1632 l 554 1440 l 363 1440 m 665 1440 l 665 1632 l 856 1632 l 856 1440 l 665 1440 z "},"Ȭ":{"ha":1219,"x_min":69,"x_max":1151,"o":"m 610 -17 q 397 24 496 -17 q 225 136 299 64 q 110 306 151 208 q 69 518 69 404 q 110 731 69 633 q 224 900 150 828 q 396 1012 297 972 q 610 1051 494 1051 q 824 1011 725 1051 q 996 899 922 971 q 1110 731 1069 828 q 1151 518 1151 633 q 1110 306 1151 404 q 994 136 1068 208 q 823 24 921 64 q 610 -17 725 -17 m 610 156 q 750 183 686 156 q 862 258 814 210 q 935 374 910 307 q 961 518 961 440 q 935 662 961 596 q 862 777 910 728 q 750 853 814 826 q 610 879 686 879 q 471 853 535 879 q 359 777 407 826 q 285 662 311 728 q 258 518 258 596 q 285 374 258 440 q 359 258 311 307 q 471 183 407 210 q 610 156 535 156 m 710 1169 q 647 1181 672 1169 q 603 1208 621 1193 q 567 1234 585 1222 q 525 1246 549 1246 q 489 1228 501 1246 q 476 1175 476 1211 l 336 1175 q 386 1338 336 1286 q 507 1390 436 1390 q 572 1379 546 1390 q 618 1353 599 1368 q 655 1326 638 1338 q 693 1315 672 1315 q 732 1334 721 1315 q 743 1385 743 1353 l 883 1385 q 832 1224 882 1279 q 710 1169 782 1169 m 386 1451 l 386 1600 l 833 1600 l 833 1451 l 386 1451 z "},"Œ":{"ha":1696,"x_min":69,"x_max":1657,"o":"m 610 -17 q 397 24 496 -17 q 225 136 299 64 q 110 306 151 208 q 69 518 69 404 q 110 731 69 633 q 224 900 150 828 q 396 1012 297 972 q 610 1051 494 1051 q 763 1031 690 1051 q 898 970 836 1010 q 1007 874 960 931 l 968 836 l 968 1035 l 1657 1035 l 1657 868 l 1158 868 l 1158 603 l 1629 603 l 1629 436 l 1158 436 l 1158 167 l 1657 167 l 1656 0 l 968 0 l 968 200 l 1007 164 q 898 65 960 106 q 763 4 836 25 q 610 -17 690 -17 m 610 156 q 750 183 686 156 q 862 258 814 210 q 935 374 910 307 q 961 518 961 440 q 935 662 961 596 q 862 777 910 728 q 750 853 814 826 q 610 879 686 879 q 471 853 535 879 q 359 777 407 826 q 285 662 311 728 q 258 518 258 596 q 285 374 258 440 q 359 258 311 307 q 471 183 407 210 q 610 156 535 156 z "},"P":{"ha":900,"x_min":100,"x_max":846,"o":"m 100 0 l 100 1035 l 486 1035 q 673 997 592 1035 q 800 885 754 958 q 846 708 846 813 q 799 533 846 606 q 672 421 753 460 q 486 382 592 382 l 289 382 l 289 0 l 100 0 m 289 549 l 489 549 q 578 569 540 549 q 636 625 615 589 q 657 708 657 661 q 636 792 657 757 q 578 848 615 828 q 489 868 540 868 l 289 868 l 289 549 z "},"Þ":{"ha":903,"x_min":90,"x_max":838,"o":"m 90 0 l 90 1035 l 279 1035 l 279 844 l 478 844 q 664 806 583 844 q 791 695 744 768 q 838 517 838 622 q 791 341 838 414 q 663 230 744 268 q 478 192 582 192 l 279 192 l 279 0 l 90 0 m 279 358 l 479 358 q 568 378 531 358 q 626 433 606 397 q 647 517 647 469 q 626 601 647 565 q 568 658 606 638 q 479 678 531 678 l 279 678 l 279 358 z "},"Q":{"ha":1219,"x_min":69,"x_max":1151,"o":"m 610 -17 q 397 24 496 -17 q 225 136 299 64 q 110 306 151 208 q 69 518 69 404 q 110 731 69 633 q 224 900 150 828 q 396 1012 297 972 q 610 1051 494 1051 q 824 1011 725 1051 q 996 899 922 971 q 1110 731 1069 828 q 1151 518 1151 633 q 1110 306 1151 404 q 994 136 1068 208 q 823 24 921 64 q 610 -17 725 -17 m 610 156 q 750 183 686 156 q 862 258 814 210 q 935 374 910 307 q 961 518 961 440 q 935 662 961 596 q 862 777 910 728 q 750 853 814 826 q 610 879 686 879 q 471 853 535 879 q 359 777 407 826 q 285 662 311 728 q 258 518 258 596 q 285 374 258 440 q 359 258 311 307 q 471 183 407 210 q 610 156 535 156 m 849 -125 l 526 414 l 724 414 l 1050 -125 l 849 -125 z "},"R":{"ha":918,"x_min":100,"x_max":894,"o":"m 100 0 l 100 1035 l 485 1035 q 672 997 590 1035 q 799 885 753 958 q 844 708 844 813 q 794 526 844 601 q 657 415 743 451 l 894 0 l 681 0 l 426 454 l 549 382 l 289 382 l 289 0 l 100 0 m 289 549 l 488 549 q 576 569 539 549 q 635 625 614 589 q 656 708 656 661 q 635 792 656 757 q 576 848 614 828 q 488 868 539 868 l 289 868 l 289 549 z "},"Ŕ":{"ha":918,"x_min":100,"x_max":894,"o":"m 100 0 l 100 1035 l 485 1035 q 672 997 590 1035 q 799 885 753 958 q 844 708 844 813 q 794 526 844 601 q 657 415 743 451 l 894 0 l 681 0 l 426 454 l 549 382 l 289 382 l 289 0 l 100 0 m 289 549 l 488 549 q 576 569 539 549 q 635 625 614 589 q 656 708 656 661 q 635 792 656 757 q 576 848 614 828 q 488 868 539 868 l 289 868 l 289 549 m 368 1169 l 458 1410 l 694 1410 l 547 1169 l 368 1169 z "},"Ř":{"ha":918,"x_min":100,"x_max":894,"o":"m 100 0 l 100 1035 l 485 1035 q 672 997 590 1035 q 799 885 753 958 q 844 708 844 813 q 794 526 844 601 q 657 415 743 451 l 894 0 l 681 0 l 426 454 l 549 382 l 289 382 l 289 0 l 100 0 m 289 549 l 488 549 q 576 569 539 549 q 635 625 614 589 q 656 708 656 661 q 635 792 656 757 q 576 848 614 828 q 488 868 539 868 l 289 868 l 289 549 m 350 1169 l 188 1399 l 368 1399 l 458 1274 l 549 1399 l 729 1399 l 565 1169 l 350 1169 z "},"Ŗ":{"ha":918,"x_min":100,"x_max":894,"o":"m 100 0 l 100 1035 l 485 1035 q 672 997 590 1035 q 799 885 753 958 q 844 708 844 813 q 794 526 844 601 q 657 415 743 451 l 894 0 l 681 0 l 426 454 l 549 382 l 289 382 l 289 0 l 100 0 m 289 549 l 488 549 q 576 569 539 549 q 635 625 614 589 q 656 708 656 661 q 635 792 656 757 q 576 848 614 828 q 488 868 539 868 l 289 868 l 289 549 m 303 -357 l 343 -97 l 575 -97 l 474 -357 l 303 -357 z "},"Ȑ":{"ha":918,"x_min":67,"x_max":894,"o":"m 100 0 l 100 1035 l 485 1035 q 672 997 590 1035 q 799 885 753 958 q 844 708 844 813 q 794 526 844 601 q 657 415 743 451 l 894 0 l 681 0 l 426 454 l 549 382 l 289 382 l 289 0 l 100 0 m 289 549 l 488 549 q 576 569 539 549 q 635 625 614 589 q 656 708 656 661 q 635 792 656 757 q 576 848 614 828 q 488 868 539 868 l 289 868 l 289 549 m 215 1169 l 68 1414 l 301 1414 l 392 1169 l 215 1169 m 524 1169 l 375 1414 l 608 1414 l 699 1169 l 524 1169 z "},"Ṛ":{"ha":918,"x_min":100,"x_max":894,"o":"m 100 0 l 100 1035 l 485 1035 q 672 997 590 1035 q 799 885 753 958 q 844 708 844 813 q 794 526 844 601 q 657 415 743 451 l 894 0 l 681 0 l 426 454 l 549 382 l 289 382 l 289 0 l 100 0 m 289 549 l 488 549 q 576 569 539 549 q 635 625 614 589 q 656 708 656 661 q 635 792 656 757 q 576 848 614 828 q 488 868 539 868 l 289 868 l 289 549 m 363 -315 l 363 -125 l 553 -125 l 553 -315 l 363 -315 z "},"Ȓ":{"ha":918,"x_min":100,"x_max":894,"o":"m 100 0 l 100 1035 l 485 1035 q 672 997 590 1035 q 799 885 753 958 q 844 708 844 813 q 794 526 844 601 q 657 415 743 451 l 894 0 l 681 0 l 426 454 l 549 382 l 289 382 l 289 0 l 100 0 m 289 549 l 488 549 q 576 569 539 549 q 635 625 614 589 q 656 708 656 661 q 635 792 656 757 q 576 848 614 828 q 488 868 539 868 l 289 868 l 289 549 m 179 1169 q 210 1280 181 1228 q 301 1365 240 1332 q 457 1399 363 1399 q 614 1367 553 1399 q 705 1283 675 1335 q 736 1169 735 1231 l 558 1169 q 530 1235 556 1211 q 457 1258 504 1258 q 386 1235 413 1258 q 358 1169 360 1211 l 179 1169 z "},"Ṟ":{"ha":918,"x_min":100,"x_max":894,"o":"m 100 0 l 100 1035 l 485 1035 q 672 997 590 1035 q 799 885 753 958 q 844 708 844 813 q 794 526 844 601 q 657 415 743 451 l 894 0 l 681 0 l 426 454 l 549 382 l 289 382 l 289 0 l 100 0 m 289 549 l 488 549 q 576 569 539 549 q 635 625 614 589 q 656 708 656 661 q 635 792 656 757 q 576 848 614 828 q 488 868 539 868 l 289 868 l 289 549 m 235 -287 l 235 -139 l 682 -139 l 682 -287 l 235 -287 z "},"S":{"ha":899,"x_min":54,"x_max":829,"o":"m 469 -17 q 287 19 371 -17 q 142 120 203 56 q 54 271 82 185 l 211 339 q 319 199 249 250 q 479 149 390 149 q 566 165 529 149 q 623 208 603 181 q 643 275 643 236 q 616 351 643 321 q 535 397 589 381 l 336 461 q 154 574 215 499 q 93 750 93 649 q 137 907 93 839 q 259 1013 181 975 q 439 1051 338 1051 q 610 1019 532 1051 q 744 928 688 986 q 828 793 800 871 l 672 724 q 581 844 642 801 q 439 886 519 886 q 356 870 392 886 q 299 826 319 854 q 279 758 279 797 q 307 683 279 715 q 392 632 335 650 l 582 572 q 767 461 706 532 q 829 286 829 390 q 783 129 829 197 q 657 22 738 61 q 469 -17 576 -17 z "},"Ś":{"ha":899,"x_min":54,"x_max":829,"o":"m 469 -17 q 287 19 371 -17 q 142 120 203 56 q 54 271 82 185 l 211 339 q 319 199 249 250 q 479 149 390 149 q 566 165 529 149 q 623 208 603 181 q 643 275 643 236 q 616 351 643 321 q 535 397 589 381 l 336 461 q 154 574 215 499 q 93 750 93 649 q 137 907 93 839 q 259 1013 181 975 q 439 1051 338 1051 q 610 1019 532 1051 q 744 928 688 986 q 828 793 800 871 l 672 724 q 581 844 642 801 q 439 886 519 886 q 356 870 392 886 q 299 826 319 854 q 279 758 279 797 q 307 683 279 715 q 392 632 335 650 l 582 572 q 767 461 706 532 q 829 286 829 390 q 783 129 829 197 q 657 22 738 61 q 469 -17 576 -17 m 354 1169 l 444 1410 l 681 1410 l 533 1169 l 354 1169 z "},"Ṥ":{"ha":899,"x_min":54,"x_max":829,"o":"m 469 -17 q 287 19 371 -17 q 142 120 203 56 q 54 271 82 185 l 211 339 q 319 199 249 250 q 479 149 390 149 q 566 165 529 149 q 623 208 603 181 q 643 275 643 236 q 616 351 643 321 q 535 397 589 381 l 336 461 q 154 574 215 499 q 93 750 93 649 q 137 907 93 839 q 259 1013 181 975 q 439 1051 338 1051 q 610 1019 532 1051 q 744 928 688 986 q 828 793 800 871 l 672 724 q 581 844 642 801 q 439 886 519 886 q 356 870 392 886 q 299 826 319 854 q 279 758 279 797 q 307 683 279 715 q 392 632 335 650 l 582 572 q 767 461 706 532 q 829 286 829 390 q 783 129 829 197 q 657 22 738 61 q 469 -17 576 -17 m 339 1169 l 429 1378 l 688 1378 l 539 1169 l 339 1169 m 149 1319 l 149 1510 l 339 1510 l 339 1319 l 149 1319 z "},"Š":{"ha":899,"x_min":54,"x_max":829,"o":"m 469 -17 q 287 19 371 -17 q 142 120 203 56 q 54 271 82 185 l 211 339 q 319 199 249 250 q 479 149 390 149 q 566 165 529 149 q 623 208 603 181 q 643 275 643 236 q 616 351 643 321 q 535 397 589 381 l 336 461 q 154 574 215 499 q 93 750 93 649 q 137 907 93 839 q 259 1013 181 975 q 439 1051 338 1051 q 610 1019 532 1051 q 744 928 688 986 q 828 793 800 871 l 672 724 q 581 844 642 801 q 439 886 519 886 q 356 870 392 886 q 299 826 319 854 q 279 758 279 797 q 307 683 279 715 q 392 632 335 650 l 582 572 q 767 461 706 532 q 829 286 829 390 q 783 129 829 197 q 657 22 738 61 q 469 -17 576 -17 m 336 1169 l 174 1399 l 354 1399 l 444 1274 l 535 1399 l 715 1399 l 551 1169 l 336 1169 z "},"Ṧ":{"ha":899,"x_min":54,"x_max":829,"o":"m 469 -17 q 287 19 371 -17 q 142 120 203 56 q 54 271 82 185 l 211 339 q 319 199 249 250 q 479 149 390 149 q 566 165 529 149 q 623 208 603 181 q 643 275 643 236 q 616 351 643 321 q 535 397 589 381 l 336 461 q 154 574 215 499 q 93 750 93 649 q 137 907 93 839 q 259 1013 181 975 q 439 1051 338 1051 q 610 1019 532 1051 q 744 928 688 986 q 828 793 800 871 l 672 724 q 581 844 642 801 q 439 886 519 886 q 356 870 392 886 q 299 826 319 854 q 279 758 279 797 q 307 683 279 715 q 392 632 335 650 l 582 572 q 767 461 706 532 q 829 286 829 390 q 783 129 829 197 q 657 22 738 61 q 469 -17 576 -17 m 336 1169 l 174 1385 l 354 1385 l 444 1274 l 535 1385 l 715 1385 l 551 1169 l 336 1169 m 349 1440 l 349 1632 l 540 1632 l 540 1440 l 349 1440 z "},"Ş":{"ha":899,"x_min":54,"x_max":829,"o":"m 469 -17 q 287 19 371 -17 q 142 120 203 56 q 54 271 82 185 l 211 339 q 319 199 249 250 q 479 149 390 149 q 566 165 529 149 q 623 208 603 181 q 643 275 643 236 q 616 351 643 321 q 535 397 589 381 l 336 461 q 154 574 215 499 q 93 750 93 649 q 137 907 93 839 q 259 1013 181 975 q 439 1051 338 1051 q 610 1019 532 1051 q 744 928 688 986 q 828 793 800 871 l 672 724 q 581 844 642 801 q 439 886 519 886 q 356 870 392 886 q 299 826 319 854 q 279 758 279 797 q 307 683 279 715 q 392 632 335 650 l 582 572 q 767 461 706 532 q 829 286 829 390 q 783 129 829 197 q 657 22 738 61 q 469 -17 576 -17 m 483 -329 q 402 -317 447 -329 q 326 -283 357 -306 l 365 -179 q 411 -201 386 -193 q 460 -208 436 -208 q 507 -196 490 -208 q 524 -161 524 -183 q 490 -119 524 -135 q 393 -96 457 -103 l 422 14 l 529 14 l 517 -42 q 631 -87 589 -51 q 672 -175 672 -122 q 621 -287 672 -246 q 483 -329 569 -329 z "},"Ŝ":{"ha":899,"x_min":54,"x_max":829,"o":"m 469 -17 q 287 19 371 -17 q 142 120 203 56 q 54 271 82 185 l 211 339 q 319 199 249 250 q 479 149 390 149 q 566 165 529 149 q 623 208 603 181 q 643 275 643 236 q 616 351 643 321 q 535 397 589 381 l 336 461 q 154 574 215 499 q 93 750 93 649 q 137 907 93 839 q 259 1013 181 975 q 439 1051 338 1051 q 610 1019 532 1051 q 744 928 688 986 q 828 793 800 871 l 672 724 q 581 844 642 801 q 439 886 519 886 q 356 870 392 886 q 299 826 319 854 q 279 758 279 797 q 307 683 279 715 q 392 632 335 650 l 582 572 q 767 461 706 532 q 829 286 829 390 q 783 129 829 197 q 657 22 738 61 q 469 -17 576 -17 m 174 1169 l 336 1399 l 551 1399 l 715 1169 l 535 1169 l 444 1294 l 354 1169 l 174 1169 z "},"Ș":{"ha":899,"x_min":54,"x_max":829,"o":"m 469 -17 q 287 19 371 -17 q 142 120 203 56 q 54 271 82 185 l 211 339 q 319 199 249 250 q 479 149 390 149 q 566 165 529 149 q 623 208 603 181 q 643 275 643 236 q 616 351 643 321 q 535 397 589 381 l 336 461 q 154 574 215 499 q 93 750 93 649 q 137 907 93 839 q 259 1013 181 975 q 439 1051 338 1051 q 610 1019 532 1051 q 744 928 688 986 q 828 793 800 871 l 672 724 q 581 844 642 801 q 439 886 519 886 q 356 870 392 886 q 299 826 319 854 q 279 758 279 797 q 307 683 279 715 q 392 632 335 650 l 582 572 q 767 461 706 532 q 829 286 829 390 q 783 129 829 197 q 657 22 738 61 q 469 -17 576 -17 m 314 -357 l 354 -97 l 586 -97 l 485 -357 l 314 -357 z "},"Ṡ":{"ha":899,"x_min":54,"x_max":829,"o":"m 469 -17 q 287 19 371 -17 q 142 120 203 56 q 54 271 82 185 l 211 339 q 319 199 249 250 q 479 149 390 149 q 566 165 529 149 q 623 208 603 181 q 643 275 643 236 q 616 351 643 321 q 535 397 589 381 l 336 461 q 154 574 215 499 q 93 750 93 649 q 137 907 93 839 q 259 1013 181 975 q 439 1051 338 1051 q 610 1019 532 1051 q 744 928 688 986 q 828 793 800 871 l 672 724 q 581 844 642 801 q 439 886 519 886 q 356 870 392 886 q 299 826 319 854 q 279 758 279 797 q 307 683 279 715 q 392 632 335 650 l 582 572 q 767 461 706 532 q 829 286 829 390 q 783 129 829 197 q 657 22 738 61 q 469 -17 576 -17 m 349 1169 l 349 1361 l 539 1361 l 539 1169 l 349 1169 z "},"Ṣ":{"ha":899,"x_min":54,"x_max":829,"o":"m 469 -17 q 287 19 371 -17 q 142 120 203 56 q 54 271 82 185 l 211 339 q 319 199 249 250 q 479 149 390 149 q 566 165 529 149 q 623 208 603 181 q 643 275 643 236 q 616 351 643 321 q 535 397 589 381 l 336 461 q 154 574 215 499 q 93 750 93 649 q 137 907 93 839 q 259 1013 181 975 q 439 1051 338 1051 q 610 1019 532 1051 q 744 928 688 986 q 828 793 800 871 l 672 724 q 581 844 642 801 q 439 886 519 886 q 356 870 392 886 q 299 826 319 854 q 279 758 279 797 q 307 683 279 715 q 392 632 335 650 l 582 572 q 767 461 706 532 q 829 286 829 390 q 783 129 829 197 q 657 22 738 61 q 469 -17 576 -17 m 374 -315 l 374 -125 l 564 -125 l 564 -315 l 374 -315 z "},"Ṩ":{"ha":899,"x_min":54,"x_max":829,"o":"m 469 -17 q 287 19 371 -17 q 142 120 203 56 q 54 271 82 185 l 211 339 q 319 199 249 250 q 479 149 390 149 q 566 165 529 149 q 623 208 603 181 q 643 275 643 236 q 616 351 643 321 q 535 397 589 381 l 336 461 q 154 574 215 499 q 93 750 93 649 q 137 907 93 839 q 259 1013 181 975 q 439 1051 338 1051 q 610 1019 532 1051 q 744 928 688 986 q 828 793 800 871 l 672 724 q 581 844 642 801 q 439 886 519 886 q 356 870 392 886 q 299 826 319 854 q 279 758 279 797 q 307 683 279 715 q 392 632 335 650 l 582 572 q 767 461 706 532 q 829 286 829 390 q 783 129 829 197 q 657 22 738 61 q 469 -17 576 -17 m 374 -315 l 374 -125 l 564 -125 l 564 -315 l 374 -315 m 349 1169 l 349 1361 l 539 1361 l 539 1169 l 349 1169 z "},"ẞ":{"ha":1797,"x_min":54,"x_max":1728,"o":"m 469 -17 q 287 19 371 -17 q 142 120 203 56 q 54 271 82 185 l 211 339 q 319 199 249 250 q 479 149 390 149 q 566 165 529 149 q 623 208 603 181 q 643 275 643 236 q 616 351 643 321 q 535 397 589 381 l 336 461 q 154 574 215 499 q 93 750 93 649 q 137 907 93 839 q 259 1013 181 975 q 439 1051 338 1051 q 610 1019 532 1051 q 744 928 688 986 q 828 793 800 871 l 672 724 q 581 844 642 801 q 439 886 519 886 q 356 870 392 886 q 299 826 319 854 q 279 758 279 797 q 307 683 279 715 q 392 632 335 650 l 582 572 q 767 461 706 532 q 829 286 829 390 q 783 129 829 197 q 657 22 738 61 q 469 -17 576 -17 m 1368 -17 q 1185 19 1269 -17 q 1041 120 1101 56 q 953 271 981 185 l 1110 339 q 1218 199 1147 250 q 1378 149 1289 149 q 1465 165 1428 149 q 1522 208 1501 181 q 1542 275 1542 236 q 1515 351 1542 321 q 1433 397 1488 381 l 1235 461 q 1053 574 1114 499 q 992 750 992 649 q 1035 907 992 839 q 1158 1013 1079 975 q 1338 1051 1236 1051 q 1508 1019 1431 1051 q 1642 928 1586 986 q 1726 793 1699 871 l 1571 724 q 1479 844 1540 801 q 1338 886 1418 886 q 1254 870 1290 886 q 1198 826 1218 854 q 1178 758 1178 797 q 1206 683 1178 715 q 1290 632 1233 650 l 1481 572 q 1666 461 1604 532 q 1728 286 1728 390 q 1682 129 1728 197 q 1556 22 1636 61 q 1368 -17 1475 -17 z "},"T":{"ha":753,"x_min":15,"x_max":738,"o":"m 283 0 l 283 868 l 15 868 l 15 1035 l 738 1035 l 738 868 l 474 868 l 474 0 l 283 0 z "},"Ŧ":{"ha":753,"x_min":15,"x_max":738,"o":"m 135 439 l 135 599 l 619 599 l 619 439 l 135 439 m 283 0 l 283 868 l 15 868 l 15 1035 l 738 1035 l 738 868 l 474 868 l 474 0 l 283 0 z "},"Ť":{"ha":753,"x_min":15,"x_max":738,"o":"m 283 0 l 283 868 l 15 868 l 15 1035 l 738 1035 l 738 868 l 474 868 l 474 0 l 283 0 m 268 1169 l 106 1399 l 286 1399 l 376 1274 l 467 1399 l 647 1399 l 483 1169 l 268 1169 z "},"Ţ":{"ha":753,"x_min":15,"x_max":738,"o":"m 283 0 l 283 868 l 15 868 l 15 1035 l 738 1035 l 738 868 l 474 868 l 474 0 l 283 0 m 390 -329 q 309 -317 354 -329 q 233 -283 264 -306 l 272 -179 q 318 -201 293 -193 q 367 -208 343 -208 q 414 -196 397 -208 q 431 -161 431 -183 q 397 -119 431 -135 q 300 -96 364 -103 l 329 14 l 436 14 l 424 -42 q 538 -87 496 -51 q 579 -175 579 -122 q 528 -287 579 -246 q 390 -329 476 -329 z "},"Ț":{"ha":753,"x_min":15,"x_max":738,"o":"m 283 0 l 283 868 l 15 868 l 15 1035 l 738 1035 l 738 868 l 474 868 l 474 0 l 283 0 m 221 -357 l 261 -97 l 493 -97 l 392 -357 l 221 -357 z "},"Ṭ":{"ha":753,"x_min":15,"x_max":738,"o":"m 283 0 l 283 868 l 15 868 l 15 1035 l 738 1035 l 738 868 l 474 868 l 474 0 l 283 0 m 282 -315 l 282 -125 l 472 -125 l 472 -315 l 282 -315 z "},"Ṯ":{"ha":753,"x_min":15,"x_max":738,"o":"m 283 0 l 283 868 l 15 868 l 15 1035 l 738 1035 l 738 868 l 474 868 l 474 0 l 283 0 m 153 -287 l 153 -139 l 600 -139 l 600 -287 l 153 -287 z "},"U":{"ha":997,"x_min":89,"x_max":908,"o":"m 499 -17 q 287 33 379 -17 q 142 171 194 83 q 89 369 89 258 l 89 1035 l 278 1035 l 278 379 q 306 264 278 315 q 385 184 335 213 q 499 156 435 156 q 613 184 564 156 q 691 264 663 213 q 719 379 719 315 l 719 1035 l 908 1035 l 908 369 q 856 171 908 258 q 710 33 803 83 q 499 -17 618 -17 z "},"Ú":{"ha":997,"x_min":89,"x_max":908,"o":"m 499 -17 q 287 33 379 -17 q 142 171 194 83 q 89 369 89 258 l 89 1035 l 278 1035 l 278 379 q 306 264 278 315 q 385 184 335 213 q 499 156 435 156 q 613 184 564 156 q 691 264 663 213 q 719 379 719 315 l 719 1035 l 908 1035 l 908 369 q 856 171 908 258 q 710 33 803 83 q 499 -17 618 -17 m 410 1169 l 500 1410 l 736 1410 l 589 1169 l 410 1169 z "},"Ŭ":{"ha":997,"x_min":89,"x_max":908,"o":"m 499 -17 q 287 33 379 -17 q 142 171 194 83 q 89 369 89 258 l 89 1035 l 278 1035 l 278 379 q 306 264 278 315 q 385 184 335 213 q 499 156 435 156 q 613 184 564 156 q 691 264 663 213 q 719 379 719 315 l 719 1035 l 908 1035 l 908 369 q 856 171 908 258 q 710 33 803 83 q 499 -17 618 -17 m 499 1174 q 343 1207 404 1174 q 252 1292 282 1240 q 221 1403 222 1344 l 400 1403 q 428 1338 401 1361 q 499 1314 454 1314 q 572 1338 546 1314 q 600 1403 597 1361 l 778 1403 q 747 1290 776 1343 q 656 1206 717 1238 q 499 1174 594 1174 z "},"Û":{"ha":997,"x_min":89,"x_max":908,"o":"m 499 -17 q 287 33 379 -17 q 142 171 194 83 q 89 369 89 258 l 89 1035 l 278 1035 l 278 379 q 306 264 278 315 q 385 184 335 213 q 499 156 435 156 q 613 184 564 156 q 691 264 663 213 q 719 379 719 315 l 719 1035 l 908 1035 l 908 369 q 856 171 908 258 q 710 33 803 83 q 499 -17 618 -17 m 229 1169 l 392 1399 l 607 1399 l 771 1169 l 590 1169 l 500 1294 l 410 1169 l 229 1169 z "},"Ȕ":{"ha":997,"x_min":89,"x_max":908,"o":"m 499 -17 q 287 33 379 -17 q 142 171 194 83 q 89 369 89 258 l 89 1035 l 278 1035 l 278 379 q 306 264 278 315 q 385 184 335 213 q 499 156 435 156 q 613 184 564 156 q 691 264 663 213 q 719 379 719 315 l 719 1035 l 908 1035 l 908 369 q 856 171 908 258 q 710 33 803 83 q 499 -17 618 -17 m 257 1169 l 110 1414 l 343 1414 l 433 1169 l 257 1169 m 565 1169 l 417 1414 l 650 1414 l 740 1169 l 565 1169 z "},"Ü":{"ha":997,"x_min":89,"x_max":908,"o":"m 499 -17 q 287 33 379 -17 q 142 171 194 83 q 89 369 89 258 l 89 1035 l 278 1035 l 278 379 q 306 264 278 315 q 385 184 335 213 q 499 156 435 156 q 613 184 564 156 q 691 264 663 213 q 719 379 719 315 l 719 1035 l 908 1035 l 908 369 q 856 171 908 258 q 710 33 803 83 q 499 -17 618 -17 m 253 1169 l 253 1361 l 443 1361 l 443 1169 l 253 1169 m 554 1169 l 554 1361 l 746 1361 l 746 1169 l 554 1169 z "},"Ụ":{"ha":997,"x_min":89,"x_max":908,"o":"m 499 -17 q 287 33 379 -17 q 142 171 194 83 q 89 369 89 258 l 89 1035 l 278 1035 l 278 379 q 306 264 278 315 q 385 184 335 213 q 499 156 435 156 q 613 184 564 156 q 691 264 663 213 q 719 379 719 315 l 719 1035 l 908 1035 l 908 369 q 856 171 908 258 q 710 33 803 83 q 499 -17 618 -17 m 404 -315 l 404 -125 l 594 -125 l 594 -315 l 404 -315 z "},"Ù":{"ha":997,"x_min":89,"x_max":908,"o":"m 499 -17 q 287 33 379 -17 q 142 171 194 83 q 89 369 89 258 l 89 1035 l 278 1035 l 278 379 q 306 264 278 315 q 385 184 335 213 q 499 156 435 156 q 613 184 564 156 q 691 264 663 213 q 719 379 719 315 l 719 1035 l 908 1035 l 908 369 q 856 171 908 258 q 710 33 803 83 q 499 -17 618 -17 m 410 1169 l 263 1410 l 499 1410 l 589 1169 l 410 1169 z "},"Ủ":{"ha":997,"x_min":89,"x_max":908,"o":"m 499 -17 q 287 33 379 -17 q 142 171 194 83 q 89 369 89 258 l 89 1035 l 278 1035 l 278 379 q 306 264 278 315 q 385 184 335 213 q 499 156 435 156 q 613 184 564 156 q 691 264 663 213 q 719 379 719 315 l 719 1035 l 908 1035 l 908 369 q 856 171 908 258 q 710 33 803 83 q 499 -17 618 -17 m 513 1114 l 433 1204 q 488 1243 472 1224 q 503 1288 503 1263 q 482 1329 503 1314 q 424 1344 461 1344 q 389 1342 407 1344 q 354 1332 371 1340 l 333 1447 q 389 1465 357 1460 q 456 1471 421 1471 q 608 1425 550 1471 q 665 1304 665 1379 q 624 1198 665 1247 q 513 1114 583 1149 z "},"Ư":{"ha":997,"x_min":89,"x_max":1113,"o":"m 499 -17 q 287 33 379 -17 q 142 171 194 83 q 89 369 89 258 l 89 1035 l 278 1035 l 278 379 q 306 264 278 315 q 385 184 335 213 q 499 156 435 156 q 613 184 564 156 q 691 264 663 213 q 719 379 719 315 l 719 1035 l 886 1035 q 925 1047 904 1035 q 946 1104 946 1058 q 937 1156 946 1128 q 917 1211 928 1185 l 1079 1211 q 1103 1153 1094 1182 q 1113 1088 1113 1125 q 1061 947 1113 992 q 918 901 1010 901 l 908 901 l 908 369 q 856 171 908 258 q 710 33 803 83 q 499 -17 618 -17 z "},"Ứ":{"ha":997,"x_min":89,"x_max":1113,"o":"m 499 -17 q 287 33 379 -17 q 142 171 194 83 q 89 369 89 258 l 89 1035 l 278 1035 l 278 379 q 306 264 278 315 q 385 184 335 213 q 499 156 435 156 q 613 184 564 156 q 691 264 663 213 q 719 379 719 315 l 719 1035 l 886 1035 q 925 1047 904 1035 q 946 1104 946 1058 q 937 1156 946 1128 q 917 1211 928 1185 l 1079 1211 q 1103 1153 1094 1182 q 1113 1088 1113 1125 q 1061 947 1113 992 q 918 901 1010 901 l 908 901 l 908 369 q 856 171 908 258 q 710 33 803 83 q 499 -17 618 -17 m 410 1169 l 500 1410 l 736 1410 l 589 1169 l 410 1169 z "},"Ự":{"ha":997,"x_min":89,"x_max":1113,"o":"m 499 -17 q 287 33 379 -17 q 142 171 194 83 q 89 369 89 258 l 89 1035 l 278 1035 l 278 379 q 306 264 278 315 q 385 184 335 213 q 499 156 435 156 q 613 184 564 156 q 691 264 663 213 q 719 379 719 315 l 719 1035 l 886 1035 q 925 1047 904 1035 q 946 1104 946 1058 q 937 1156 946 1128 q 917 1211 928 1185 l 1079 1211 q 1103 1153 1094 1182 q 1113 1088 1113 1125 q 1061 947 1113 992 q 918 901 1010 901 l 908 901 l 908 369 q 856 171 908 258 q 710 33 803 83 q 499 -17 618 -17 m 404 -315 l 404 -125 l 594 -125 l 594 -315 l 404 -315 z "},"Ừ":{"ha":997,"x_min":89,"x_max":1113,"o":"m 499 -17 q 287 33 379 -17 q 142 171 194 83 q 89 369 89 258 l 89 1035 l 278 1035 l 278 379 q 306 264 278 315 q 385 184 335 213 q 499 156 435 156 q 613 184 564 156 q 691 264 663 213 q 719 379 719 315 l 719 1035 l 886 1035 q 925 1047 904 1035 q 946 1104 946 1058 q 937 1156 946 1128 q 917 1211 928 1185 l 1079 1211 q 1103 1153 1094 1182 q 1113 1088 1113 1125 q 1061 947 1113 992 q 918 901 1010 901 l 908 901 l 908 369 q 856 171 908 258 q 710 33 803 83 q 499 -17 618 -17 m 410 1169 l 263 1410 l 499 1410 l 589 1169 l 410 1169 z "},"Ử":{"ha":997,"x_min":89,"x_max":1113,"o":"m 499 -17 q 287 33 379 -17 q 142 171 194 83 q 89 369 89 258 l 89 1035 l 278 1035 l 278 379 q 306 264 278 315 q 385 184 335 213 q 499 156 435 156 q 613 184 564 156 q 691 264 663 213 q 719 379 719 315 l 719 1035 l 886 1035 q 925 1047 904 1035 q 946 1104 946 1058 q 937 1156 946 1128 q 917 1211 928 1185 l 1079 1211 q 1103 1153 1094 1182 q 1113 1088 1113 1125 q 1061 947 1113 992 q 918 901 1010 901 l 908 901 l 908 369 q 856 171 908 258 q 710 33 803 83 q 499 -17 618 -17 m 513 1114 l 433 1204 q 488 1243 472 1224 q 503 1288 503 1263 q 482 1329 503 1314 q 424 1344 461 1344 q 389 1342 407 1344 q 354 1332 371 1340 l 333 1447 q 389 1465 357 1460 q 456 1471 421 1471 q 608 1425 550 1471 q 665 1304 665 1379 q 624 1198 665 1247 q 513 1114 583 1149 z "},"Ữ":{"ha":997,"x_min":89,"x_max":1113,"o":"m 499 -17 q 287 33 379 -17 q 142 171 194 83 q 89 369 89 258 l 89 1035 l 278 1035 l 278 379 q 306 264 278 315 q 385 184 335 213 q 499 156 435 156 q 613 184 564 156 q 691 264 663 213 q 719 379 719 315 l 719 1035 l 886 1035 q 925 1047 904 1035 q 946 1104 946 1058 q 937 1156 946 1128 q 917 1211 928 1185 l 1079 1211 q 1103 1153 1094 1182 q 1113 1088 1113 1125 q 1061 947 1113 992 q 918 901 1010 901 l 908 901 l 908 369 q 856 171 908 258 q 710 33 803 83 q 499 -17 618 -17 m 599 1169 q 535 1181 561 1169 q 492 1208 510 1193 q 456 1234 474 1222 q 414 1246 438 1246 q 378 1228 390 1246 q 365 1175 365 1211 l 225 1175 q 275 1338 225 1286 q 396 1390 325 1390 q 461 1379 435 1390 q 507 1353 488 1368 q 544 1326 526 1338 q 582 1315 561 1315 q 621 1334 610 1315 q 632 1385 632 1353 l 772 1385 q 721 1224 771 1279 q 599 1169 671 1169 z "},"Ű":{"ha":997,"x_min":89,"x_max":908,"o":"m 499 -17 q 287 33 379 -17 q 142 171 194 83 q 89 369 89 258 l 89 1035 l 278 1035 l 278 379 q 306 264 278 315 q 385 184 335 213 q 499 156 435 156 q 613 184 564 156 q 691 264 663 213 q 719 379 719 315 l 719 1035 l 908 1035 l 908 369 q 856 171 908 258 q 710 33 803 83 q 499 -17 618 -17 m 257 1169 l 315 1410 l 549 1410 l 432 1169 l 257 1169 m 564 1169 l 624 1410 l 857 1410 l 740 1169 l 564 1169 z "},"Ȗ":{"ha":997,"x_min":89,"x_max":908,"o":"m 499 -17 q 287 33 379 -17 q 142 171 194 83 q 89 369 89 258 l 89 1035 l 278 1035 l 278 379 q 306 264 278 315 q 385 184 335 213 q 499 156 435 156 q 613 184 564 156 q 691 264 663 213 q 719 379 719 315 l 719 1035 l 908 1035 l 908 369 q 856 171 908 258 q 710 33 803 83 q 499 -17 618 -17 m 221 1169 q 252 1280 222 1228 q 343 1365 282 1332 q 499 1399 404 1399 q 656 1367 594 1399 q 747 1283 717 1335 q 778 1169 776 1231 l 600 1169 q 572 1235 597 1211 q 499 1258 546 1258 q 428 1235 454 1258 q 400 1169 401 1211 l 221 1169 z "},"Ū":{"ha":997,"x_min":89,"x_max":908,"o":"m 499 -17 q 287 33 379 -17 q 142 171 194 83 q 89 369 89 258 l 89 1035 l 278 1035 l 278 379 q 306 264 278 315 q 385 184 335 213 q 499 156 435 156 q 613 184 564 156 q 691 264 663 213 q 719 379 719 315 l 719 1035 l 908 1035 l 908 369 q 856 171 908 258 q 710 33 803 83 q 499 -17 618 -17 m 275 1197 l 275 1347 l 722 1347 l 722 1197 l 275 1197 z "},"Ṻ":{"ha":997,"x_min":89,"x_max":908,"o":"m 499 -17 q 287 33 379 -17 q 142 171 194 83 q 89 369 89 258 l 89 1035 l 278 1035 l 278 379 q 306 264 278 315 q 385 184 335 213 q 499 156 435 156 q 613 184 564 156 q 691 264 663 213 q 719 379 719 315 l 719 1035 l 908 1035 l 908 369 q 856 171 908 258 q 710 33 803 83 q 499 -17 618 -17 m 275 1197 l 275 1347 l 722 1347 l 722 1197 l 275 1197 m 253 1440 l 253 1632 l 443 1632 l 443 1440 l 253 1440 m 554 1440 l 554 1632 l 746 1632 l 746 1440 l 554 1440 z "},"Ų":{"ha":997,"x_min":89,"x_max":908,"o":"m 499 -17 q 287 33 379 -17 q 142 171 194 83 q 89 369 89 258 l 89 1035 l 278 1035 l 278 379 q 306 264 278 315 q 385 184 335 213 q 499 156 435 156 q 613 184 564 156 q 691 264 663 213 q 719 379 719 315 l 719 1035 l 908 1035 l 908 369 q 856 171 908 258 q 710 33 803 83 q 499 -17 618 -17 m 489 -329 q 349 -282 401 -329 q 296 -164 296 -235 q 319 -66 296 -111 q 388 10 342 -21 q 506 54 435 42 l 546 54 l 546 0 q 495 -25 518 -6 q 458 -73 472 -44 q 444 -137 444 -101 q 467 -190 444 -171 q 518 -208 490 -208 q 560 -201 542 -208 q 597 -179 578 -194 l 636 -283 q 572 -317 607 -304 q 489 -329 536 -329 z "},"Ů":{"ha":997,"x_min":89,"x_max":908,"o":"m 499 -17 q 287 33 379 -17 q 142 171 194 83 q 89 369 89 258 l 89 1035 l 278 1035 l 278 379 q 306 264 278 315 q 385 184 335 213 q 499 156 435 156 q 613 184 564 156 q 691 264 663 213 q 719 379 719 315 l 719 1035 l 908 1035 l 908 369 q 856 171 908 258 q 710 33 803 83 q 499 -17 618 -17 m 500 1111 q 376 1158 426 1111 q 326 1279 326 1204 q 376 1399 326 1353 q 500 1446 425 1446 q 623 1399 574 1446 q 672 1279 672 1353 q 623 1158 672 1204 q 500 1111 574 1111 m 500 1219 q 541 1236 525 1219 q 557 1279 557 1253 q 541 1322 557 1306 q 500 1338 525 1338 q 458 1322 475 1338 q 440 1279 440 1306 q 457 1236 440 1253 q 500 1219 474 1219 z "},"Ũ":{"ha":997,"x_min":89,"x_max":908,"o":"m 499 -17 q 287 33 379 -17 q 142 171 194 83 q 89 369 89 258 l 89 1035 l 278 1035 l 278 379 q 306 264 278 315 q 385 184 335 213 q 499 156 435 156 q 613 184 564 156 q 691 264 663 213 q 719 379 719 315 l 719 1035 l 908 1035 l 908 369 q 856 171 908 258 q 710 33 803 83 q 499 -17 618 -17 m 599 1169 q 535 1181 561 1169 q 492 1208 510 1193 q 456 1234 474 1222 q 414 1246 438 1246 q 378 1228 390 1246 q 365 1175 365 1211 l 225 1175 q 275 1338 225 1286 q 396 1390 325 1390 q 461 1379 435 1390 q 507 1353 488 1368 q 544 1326 526 1338 q 582 1315 561 1315 q 621 1334 610 1315 q 632 1385 632 1353 l 772 1385 q 721 1224 771 1279 q 599 1169 671 1169 z "},"Ṹ":{"ha":997,"x_min":89,"x_max":908,"o":"m 499 -17 q 287 33 379 -17 q 142 171 194 83 q 89 369 89 258 l 89 1035 l 278 1035 l 278 379 q 306 264 278 315 q 385 184 335 213 q 499 156 435 156 q 613 184 564 156 q 691 264 663 213 q 719 379 719 315 l 719 1035 l 908 1035 l 908 369 q 856 171 908 258 q 710 33 803 83 q 499 -17 618 -17 m 599 1169 q 535 1181 561 1169 q 492 1208 510 1193 q 456 1234 474 1222 q 414 1246 438 1246 q 378 1228 390 1246 q 365 1175 365 1211 l 225 1175 q 275 1338 225 1286 q 396 1390 325 1390 q 461 1379 435 1390 q 507 1353 488 1368 q 544 1326 526 1338 q 582 1315 561 1315 q 621 1334 610 1315 q 632 1385 632 1353 l 772 1385 q 721 1224 771 1279 q 599 1169 671 1169 m 408 1433 l 499 1674 l 736 1674 l 588 1433 l 408 1433 z "},"V":{"ha":968,"x_min":15,"x_max":953,"o":"m 376 0 l 15 1035 l 221 1035 l 504 178 l 464 178 l 747 1035 l 953 1035 l 593 0 l 376 0 z "},"W":{"ha":1417,"x_min":15,"x_max":1401,"o":"m 293 0 l 15 1035 l 218 1035 l 436 153 l 383 153 l 611 1035 l 807 1035 l 1033 153 l 981 153 l 1199 1035 l 1401 1035 l 1124 0 l 907 0 l 678 858 l 739 858 l 510 0 l 293 0 z "},"Ẃ":{"ha":1417,"x_min":15,"x_max":1401,"o":"m 293 0 l 15 1035 l 218 1035 l 436 153 l 383 153 l 611 1035 l 807 1035 l 1033 153 l 981 153 l 1199 1035 l 1401 1035 l 1124 0 l 907 0 l 678 858 l 739 858 l 510 0 l 293 0 m 619 1169 l 710 1410 l 946 1410 l 799 1169 l 619 1169 z "},"Ŵ":{"ha":1417,"x_min":15,"x_max":1401,"o":"m 293 0 l 15 1035 l 218 1035 l 436 153 l 383 153 l 611 1035 l 807 1035 l 1033 153 l 981 153 l 1199 1035 l 1401 1035 l 1124 0 l 907 0 l 678 858 l 739 858 l 510 0 l 293 0 m 439 1169 l 601 1399 l 817 1399 l 981 1169 l 800 1169 l 710 1294 l 619 1169 l 439 1169 z "},"Ẅ":{"ha":1417,"x_min":15,"x_max":1401,"o":"m 293 0 l 15 1035 l 218 1035 l 436 153 l 383 153 l 611 1035 l 807 1035 l 1033 153 l 981 153 l 1199 1035 l 1401 1035 l 1124 0 l 907 0 l 678 858 l 739 858 l 510 0 l 293 0 m 463 1169 l 463 1361 l 653 1361 l 653 1169 l 463 1169 m 764 1169 l 764 1361 l 956 1361 l 956 1169 l 764 1169 z "},"Ẁ":{"ha":1417,"x_min":15,"x_max":1401,"o":"m 293 0 l 15 1035 l 218 1035 l 436 153 l 383 153 l 611 1035 l 807 1035 l 1033 153 l 981 153 l 1199 1035 l 1401 1035 l 1124 0 l 907 0 l 678 858 l 739 858 l 510 0 l 293 0 m 619 1169 l 472 1410 l 708 1410 l 799 1169 l 619 1169 z "},"X":{"ha":918,"x_min":15,"x_max":903,"o":"m 15 0 l 354 521 l 18 1035 l 235 1035 l 510 614 l 410 614 l 683 1035 l 900 1035 l 565 521 l 903 0 l 686 0 l 410 426 l 510 426 l 232 0 l 15 0 z "},"Y":{"ha":917,"x_min":15,"x_max":901,"o":"m 364 0 l 364 458 l 15 1035 l 231 1035 l 497 585 l 421 585 l 686 1035 l 901 1035 l 554 460 l 554 0 l 364 0 z "},"Ý":{"ha":917,"x_min":15,"x_max":901,"o":"m 364 0 l 364 458 l 15 1035 l 231 1035 l 497 585 l 421 585 l 686 1035 l 901 1035 l 554 460 l 554 0 l 364 0 m 369 1169 l 460 1410 l 696 1410 l 549 1169 l 369 1169 z "},"Ŷ":{"ha":917,"x_min":15,"x_max":901,"o":"m 364 0 l 364 458 l 15 1035 l 231 1035 l 497 585 l 421 585 l 686 1035 l 901 1035 l 554 460 l 554 0 l 364 0 m 189 1169 l 351 1399 l 567 1399 l 731 1169 l 550 1169 l 460 1294 l 369 1169 l 189 1169 z "},"Ÿ":{"ha":917,"x_min":15,"x_max":901,"o":"m 364 0 l 364 458 l 15 1035 l 231 1035 l 497 585 l 421 585 l 686 1035 l 901 1035 l 554 460 l 554 0 l 364 0 m 213 1169 l 213 1361 l 403 1361 l 403 1169 l 213 1169 m 514 1169 l 514 1361 l 706 1361 l 706 1169 l 514 1169 z "},"Ẏ":{"ha":917,"x_min":15,"x_max":901,"o":"m 364 0 l 364 458 l 15 1035 l 231 1035 l 497 585 l 421 585 l 686 1035 l 901 1035 l 554 460 l 554 0 l 364 0 m 364 1169 l 364 1361 l 554 1361 l 554 1169 l 364 1169 z "},"Ỵ":{"ha":917,"x_min":15,"x_max":901,"o":"m 364 0 l 364 458 l 15 1035 l 231 1035 l 497 585 l 421 585 l 686 1035 l 901 1035 l 554 460 l 554 0 l 364 0 m 364 -315 l 364 -125 l 554 -125 l 554 -315 l 364 -315 z "},"Ỳ":{"ha":917,"x_min":15,"x_max":901,"o":"m 364 0 l 364 458 l 15 1035 l 231 1035 l 497 585 l 421 585 l 686 1035 l 901 1035 l 554 460 l 554 0 l 364 0 m 369 1169 l 222 1410 l 458 1410 l 549 1169 l 369 1169 z "},"Ỷ":{"ha":917,"x_min":15,"x_max":901,"o":"m 364 0 l 364 458 l 15 1035 l 231 1035 l 497 585 l 421 585 l 686 1035 l 901 1035 l 554 460 l 554 0 l 364 0 m 472 1114 l 393 1204 q 447 1243 432 1224 q 463 1288 463 1263 q 442 1329 463 1314 q 383 1344 421 1344 q 349 1342 367 1344 q 314 1332 331 1340 l 293 1447 q 349 1465 317 1460 q 415 1471 381 1471 q 567 1425 510 1471 q 625 1304 625 1379 q 584 1198 625 1247 q 472 1114 543 1149 z "},"Ȳ":{"ha":917,"x_min":15,"x_max":901,"o":"m 364 0 l 364 458 l 15 1035 l 231 1035 l 497 585 l 421 585 l 686 1035 l 901 1035 l 554 460 l 554 0 l 364 0 m 235 1197 l 235 1347 l 682 1347 l 682 1197 l 235 1197 z "},"Ỹ":{"ha":917,"x_min":15,"x_max":901,"o":"m 364 0 l 364 458 l 15 1035 l 231 1035 l 497 585 l 421 585 l 686 1035 l 901 1035 l 554 460 l 554 0 l 364 0 m 558 1169 q 495 1181 521 1169 q 451 1208 469 1193 q 415 1234 433 1222 q 374 1246 397 1246 q 338 1228 350 1246 q 325 1175 325 1211 l 185 1175 q 235 1338 185 1286 q 356 1390 285 1390 q 421 1379 394 1390 q 467 1353 447 1368 q 503 1326 486 1338 q 542 1315 521 1315 q 581 1334 569 1315 q 592 1385 592 1353 l 732 1385 q 681 1224 731 1279 q 558 1169 631 1169 z "},"Z":{"ha":793,"x_min":19,"x_max":775,"o":"m 19 0 l 19 149 l 521 868 l 49 868 l 49 1035 l 761 1035 l 761 886 l 261 167 l 775 167 l 775 0 l 19 0 z "},"Ź":{"ha":793,"x_min":19,"x_max":775,"o":"m 19 0 l 19 149 l 521 868 l 49 868 l 49 1035 l 761 1035 l 761 886 l 261 167 l 775 167 l 775 0 l 19 0 m 308 1169 l 399 1410 l 635 1410 l 488 1169 l 308 1169 z "},"Ž":{"ha":793,"x_min":19,"x_max":775,"o":"m 19 0 l 19 149 l 521 868 l 49 868 l 49 1035 l 761 1035 l 761 886 l 261 167 l 775 167 l 775 0 l 19 0 m 289 1169 l 126 1399 l 307 1399 l 397 1274 l 488 1399 l 668 1399 l 504 1169 l 289 1169 z "},"Ż":{"ha":793,"x_min":19,"x_max":775,"o":"m 19 0 l 19 149 l 521 868 l 49 868 l 49 1035 l 761 1035 l 761 886 l 261 167 l 775 167 l 775 0 l 19 0 m 303 1169 l 303 1361 l 493 1361 l 493 1169 l 303 1169 z "},"Ẓ":{"ha":793,"x_min":19,"x_max":775,"o":"m 19 0 l 19 149 l 521 868 l 49 868 l 49 1035 l 761 1035 l 761 886 l 261 167 l 775 167 l 775 0 l 19 0 m 303 -315 l 303 -125 l 493 -125 l 493 -315 l 303 -315 z "},"a":{"ha":806,"x_min":54,"x_max":722,"o":"m 314 -17 q 176 10 235 -17 q 86 85 118 36 q 54 200 54 135 q 82 312 54 263 q 168 394 110 361 q 315 442 226 428 l 563 482 l 563 343 l 350 307 q 269 272 296 297 q 243 207 243 247 q 273 145 243 168 q 347 122 303 122 q 448 147 404 122 q 516 214 492 171 q 540 308 540 257 l 540 503 q 502 584 540 551 q 401 617 464 617 q 298 585 343 617 q 232 503 253 554 l 83 575 q 153 678 106 635 q 267 747 201 722 q 408 772 332 772 q 572 738 501 772 q 683 644 643 704 q 722 503 722 583 l 722 0 l 550 0 l 550 129 l 589 132 q 519 51 560 83 q 428 1 479 18 q 314 -17 376 -17 z "},"á":{"ha":806,"x_min":54,"x_max":722,"o":"m 314 -17 q 176 10 235 -17 q 86 85 118 36 q 54 200 54 135 q 82 312 54 263 q 168 394 110 361 q 315 442 226 428 l 563 482 l 563 343 l 350 307 q 269 272 296 297 q 243 207 243 247 q 273 145 243 168 q 347 122 303 122 q 448 147 404 122 q 516 214 492 171 q 540 308 540 257 l 540 503 q 502 584 540 551 q 401 617 464 617 q 298 585 343 617 q 232 503 253 554 l 83 575 q 153 678 106 635 q 267 747 201 722 q 408 772 332 772 q 572 738 501 772 q 683 644 643 704 q 722 503 722 583 l 722 0 l 550 0 l 550 129 l 589 132 q 519 51 560 83 q 428 1 479 18 q 314 -17 376 -17 m 319 889 l 410 1129 l 646 1129 l 499 889 l 319 889 z "},"ă":{"ha":806,"x_min":54,"x_max":722,"o":"m 314 -17 q 176 10 235 -17 q 86 85 118 36 q 54 200 54 135 q 82 312 54 263 q 168 394 110 361 q 315 442 226 428 l 563 482 l 563 343 l 350 307 q 269 272 296 297 q 243 207 243 247 q 273 145 243 168 q 347 122 303 122 q 448 147 404 122 q 516 214 492 171 q 540 308 540 257 l 540 503 q 502 584 540 551 q 401 617 464 617 q 298 585 343 617 q 232 503 253 554 l 83 575 q 153 678 106 635 q 267 747 201 722 q 408 772 332 772 q 572 738 501 772 q 683 644 643 704 q 722 503 722 583 l 722 0 l 550 0 l 550 129 l 589 132 q 519 51 560 83 q 428 1 479 18 q 314 -17 376 -17 m 410 894 q 254 928 315 894 q 163 1013 193 961 q 132 1124 133 1065 l 311 1124 q 339 1058 313 1082 q 410 1035 365 1035 q 483 1058 457 1035 q 511 1124 508 1082 l 689 1124 q 658 1011 688 1064 q 567 926 628 958 q 410 894 506 894 z "},"ắ":{"ha":806,"x_min":54,"x_max":722,"o":"m 314 -17 q 176 10 235 -17 q 86 85 118 36 q 54 200 54 135 q 82 312 54 263 q 168 394 110 361 q 315 442 226 428 l 563 482 l 563 343 l 350 307 q 269 272 296 297 q 243 207 243 247 q 273 145 243 168 q 347 122 303 122 q 448 147 404 122 q 516 214 492 171 q 540 308 540 257 l 540 503 q 502 584 540 551 q 401 617 464 617 q 298 585 343 617 q 232 503 253 554 l 83 575 q 153 678 106 635 q 267 747 201 722 q 408 772 332 772 q 572 738 501 772 q 683 644 643 704 q 722 503 722 583 l 722 0 l 550 0 l 550 129 l 589 132 q 519 51 560 83 q 428 1 479 18 q 314 -17 376 -17 m 410 894 q 254 927 315 894 q 163 1010 193 960 q 132 1117 133 1061 l 311 1117 q 339 1056 313 1078 q 410 1035 365 1035 q 483 1056 457 1035 q 511 1117 508 1078 l 689 1117 q 658 1008 688 1058 q 567 926 628 957 q 410 894 506 894 m 319 1158 l 411 1399 l 647 1399 l 500 1158 l 319 1158 z "},"ặ":{"ha":806,"x_min":54,"x_max":722,"o":"m 314 -17 q 176 10 235 -17 q 86 85 118 36 q 54 200 54 135 q 82 312 54 263 q 168 394 110 361 q 315 442 226 428 l 563 482 l 563 343 l 350 307 q 269 272 296 297 q 243 207 243 247 q 273 145 243 168 q 347 122 303 122 q 448 147 404 122 q 516 214 492 171 q 540 308 540 257 l 540 503 q 502 584 540 551 q 401 617 464 617 q 298 585 343 617 q 232 503 253 554 l 83 575 q 153 678 106 635 q 267 747 201 722 q 408 772 332 772 q 572 738 501 772 q 683 644 643 704 q 722 503 722 583 l 722 0 l 550 0 l 550 129 l 589 132 q 519 51 560 83 q 428 1 479 18 q 314 -17 376 -17 m 308 -315 l 308 -125 l 499 -125 l 499 -315 l 308 -315 m 410 894 q 254 928 315 894 q 163 1013 193 961 q 132 1124 133 1065 l 311 1124 q 339 1058 313 1082 q 410 1035 365 1035 q 483 1058 457 1035 q 511 1124 508 1082 l 689 1124 q 658 1011 688 1064 q 567 926 628 958 q 410 894 506 894 z "},"ằ":{"ha":806,"x_min":54,"x_max":722,"o":"m 314 -17 q 176 10 235 -17 q 86 85 118 36 q 54 200 54 135 q 82 312 54 263 q 168 394 110 361 q 315 442 226 428 l 563 482 l 563 343 l 350 307 q 269 272 296 297 q 243 207 243 247 q 273 145 243 168 q 347 122 303 122 q 448 147 404 122 q 516 214 492 171 q 540 308 540 257 l 540 503 q 502 584 540 551 q 401 617 464 617 q 298 585 343 617 q 232 503 253 554 l 83 575 q 153 678 106 635 q 267 747 201 722 q 408 772 332 772 q 572 738 501 772 q 683 644 643 704 q 722 503 722 583 l 722 0 l 550 0 l 550 129 l 589 132 q 519 51 560 83 q 428 1 479 18 q 314 -17 376 -17 m 410 894 q 254 926 315 894 q 163 1008 193 957 q 132 1117 133 1058 l 310 1117 q 338 1056 311 1078 q 410 1035 364 1035 q 481 1056 456 1035 q 510 1117 507 1078 l 689 1117 q 658 1010 688 1061 q 566 927 628 960 q 410 894 504 894 m 321 1158 l 172 1399 l 410 1399 l 500 1158 l 321 1158 z "},"ẳ":{"ha":806,"x_min":54,"x_max":722,"o":"m 314 -17 q 176 10 235 -17 q 86 85 118 36 q 54 200 54 135 q 82 312 54 263 q 168 394 110 361 q 315 442 226 428 l 563 482 l 563 343 l 350 307 q 269 272 296 297 q 243 207 243 247 q 273 145 243 168 q 347 122 303 122 q 448 147 404 122 q 516 214 492 171 q 540 308 540 257 l 540 503 q 502 584 540 551 q 401 617 464 617 q 298 585 343 617 q 232 503 253 554 l 83 575 q 153 678 106 635 q 267 747 201 722 q 408 772 332 772 q 572 738 501 772 q 683 644 643 704 q 722 503 722 583 l 722 0 l 550 0 l 550 129 l 589 132 q 519 51 560 83 q 428 1 479 18 q 314 -17 376 -17 m 410 894 q 254 927 315 894 q 163 1010 193 960 q 132 1117 133 1061 l 310 1117 q 339 1056 313 1078 q 410 1035 365 1035 q 483 1056 457 1035 q 511 1117 508 1078 l 689 1117 q 656 1009 686 1060 q 565 926 625 958 q 410 894 504 894 m 422 1125 l 344 1215 q 399 1253 383 1235 q 414 1299 414 1272 q 393 1340 414 1324 q 335 1356 372 1356 q 300 1353 318 1356 q 264 1343 282 1351 l 243 1457 q 299 1476 268 1469 q 365 1482 331 1482 q 518 1436 461 1482 q 575 1314 575 1390 q 535 1208 575 1257 q 422 1125 494 1160 z "},"ẵ":{"ha":806,"x_min":54,"x_max":722,"o":"m 314 -17 q 176 10 235 -17 q 86 85 118 36 q 54 200 54 135 q 82 312 54 263 q 168 394 110 361 q 315 442 226 428 l 563 482 l 563 343 l 350 307 q 269 272 296 297 q 243 207 243 247 q 273 145 243 168 q 347 122 303 122 q 448 147 404 122 q 516 214 492 171 q 540 308 540 257 l 540 503 q 502 584 540 551 q 401 617 464 617 q 298 585 343 617 q 232 503 253 554 l 83 575 q 153 678 106 635 q 267 747 201 722 q 408 772 332 772 q 572 738 501 772 q 683 644 643 704 q 722 503 722 583 l 722 0 l 550 0 l 550 129 l 589 132 q 519 51 560 83 q 428 1 479 18 q 314 -17 376 -17 m 496 1189 q 443 1201 464 1189 q 406 1227 422 1213 q 376 1253 390 1242 q 342 1265 361 1265 q 313 1247 322 1265 q 304 1194 304 1229 l 165 1194 q 187 1316 165 1268 q 244 1387 208 1364 q 319 1410 279 1410 q 374 1399 351 1410 q 413 1372 396 1388 q 445 1346 431 1357 q 476 1335 460 1335 q 506 1353 499 1335 q 513 1404 513 1372 l 651 1404 q 603 1243 650 1297 q 496 1189 557 1189 m 410 889 q 253 922 315 889 q 163 1005 192 954 q 131 1111 133 1056 l 310 1111 q 338 1051 311 1072 q 410 1029 364 1029 q 482 1051 456 1029 q 510 1111 508 1072 l 688 1111 q 655 1003 685 1054 q 565 921 625 953 q 410 889 504 889 z "},"â":{"ha":806,"x_min":54,"x_max":722,"o":"m 314 -17 q 176 10 235 -17 q 86 85 118 36 q 54 200 54 135 q 82 312 54 263 q 168 394 110 361 q 315 442 226 428 l 563 482 l 563 343 l 350 307 q 269 272 296 297 q 243 207 243 247 q 273 145 243 168 q 347 122 303 122 q 448 147 404 122 q 516 214 492 171 q 540 308 540 257 l 540 503 q 502 584 540 551 q 401 617 464 617 q 298 585 343 617 q 232 503 253 554 l 83 575 q 153 678 106 635 q 267 747 201 722 q 408 772 332 772 q 572 738 501 772 q 683 644 643 704 q 722 503 722 583 l 722 0 l 550 0 l 550 129 l 589 132 q 519 51 560 83 q 428 1 479 18 q 314 -17 376 -17 m 139 889 l 301 1118 l 517 1118 l 681 889 l 500 889 l 410 1014 l 319 889 l 139 889 z "},"ấ":{"ha":806,"x_min":54,"x_max":890,"o":"m 314 -17 q 176 10 235 -17 q 86 85 118 36 q 54 200 54 135 q 82 312 54 263 q 168 394 110 361 q 315 442 226 428 l 563 482 l 563 343 l 350 307 q 269 272 296 297 q 243 207 243 247 q 273 145 243 168 q 347 122 303 122 q 448 147 404 122 q 516 214 492 171 q 540 308 540 257 l 540 503 q 502 584 540 551 q 401 617 464 617 q 298 585 343 617 q 232 503 253 554 l 83 575 q 153 678 106 635 q 267 747 201 722 q 408 772 332 772 q 572 738 501 772 q 683 644 643 704 q 722 503 722 583 l 722 0 l 550 0 l 550 129 l 589 132 q 519 51 560 83 q 428 1 479 18 q 314 -17 376 -17 m 139 889 l 301 1104 l 517 1104 l 681 889 l 500 889 l 410 1000 l 319 889 l 139 889 m 621 997 l 685 1199 l 890 1199 l 769 997 l 621 997 z "},"ậ":{"ha":806,"x_min":54,"x_max":722,"o":"m 314 -17 q 176 10 235 -17 q 86 85 118 36 q 54 200 54 135 q 82 312 54 263 q 168 394 110 361 q 315 442 226 428 l 563 482 l 563 343 l 350 307 q 269 272 296 297 q 243 207 243 247 q 273 145 243 168 q 347 122 303 122 q 448 147 404 122 q 516 214 492 171 q 540 308 540 257 l 540 503 q 502 584 540 551 q 401 617 464 617 q 298 585 343 617 q 232 503 253 554 l 83 575 q 153 678 106 635 q 267 747 201 722 q 408 772 332 772 q 572 738 501 772 q 683 644 643 704 q 722 503 722 583 l 722 0 l 550 0 l 550 129 l 589 132 q 519 51 560 83 q 428 1 479 18 q 314 -17 376 -17 m 308 -315 l 308 -125 l 499 -125 l 499 -315 l 308 -315 m 139 889 l 301 1118 l 517 1118 l 681 889 l 500 889 l 410 1014 l 319 889 l 139 889 z "},"ầ":{"ha":806,"x_min":54,"x_max":847,"o":"m 314 -17 q 176 10 235 -17 q 86 85 118 36 q 54 200 54 135 q 82 312 54 263 q 168 394 110 361 q 315 442 226 428 l 563 482 l 563 343 l 350 307 q 269 272 296 297 q 243 207 243 247 q 273 145 243 168 q 347 122 303 122 q 448 147 404 122 q 516 214 492 171 q 540 308 540 257 l 540 503 q 502 584 540 551 q 401 617 464 617 q 298 585 343 617 q 232 503 253 554 l 83 575 q 153 678 106 635 q 267 747 201 722 q 408 772 332 772 q 572 738 501 772 q 683 644 643 704 q 722 503 722 583 l 722 0 l 550 0 l 550 129 l 589 132 q 519 51 560 83 q 428 1 479 18 q 314 -17 376 -17 m 139 889 l 301 1104 l 517 1104 l 681 889 l 500 889 l 410 1000 l 319 889 l 139 889 m 699 997 l 579 1199 l 785 1199 l 847 997 l 699 997 z "},"ẩ":{"ha":806,"x_min":54,"x_max":821,"o":"m 314 -17 q 176 10 235 -17 q 86 85 118 36 q 54 200 54 135 q 82 312 54 263 q 168 394 110 361 q 315 442 226 428 l 563 482 l 563 343 l 350 307 q 269 272 296 297 q 243 207 243 247 q 273 145 243 168 q 347 122 303 122 q 448 147 404 122 q 516 214 492 171 q 540 308 540 257 l 540 503 q 502 584 540 551 q 401 617 464 617 q 298 585 343 617 q 232 503 253 554 l 83 575 q 153 678 106 635 q 267 747 201 722 q 408 772 332 772 q 572 738 501 772 q 683 644 643 704 q 722 503 722 583 l 722 0 l 550 0 l 550 129 l 589 132 q 519 51 560 83 q 428 1 479 18 q 314 -17 376 -17 m 139 889 l 301 1104 l 517 1104 l 681 889 l 500 889 l 410 1000 l 319 889 l 139 889 m 678 985 l 606 1069 q 657 1105 643 1088 q 671 1146 671 1122 q 651 1185 671 1169 q 597 1200 632 1200 q 565 1198 582 1200 q 532 1188 547 1196 l 513 1294 q 565 1311 536 1306 q 626 1317 593 1317 q 767 1274 714 1317 q 821 1161 821 1232 q 782 1063 821 1108 q 678 985 743 1017 z "},"ẫ":{"ha":806,"x_min":54,"x_max":722,"o":"m 314 -17 q 176 10 235 -17 q 86 85 118 36 q 54 200 54 135 q 82 312 54 263 q 168 394 110 361 q 315 442 226 428 l 563 482 l 563 343 l 350 307 q 269 272 296 297 q 243 207 243 247 q 273 145 243 168 q 347 122 303 122 q 448 147 404 122 q 516 214 492 171 q 540 308 540 257 l 540 503 q 502 584 540 551 q 401 617 464 617 q 298 585 343 617 q 232 503 253 554 l 83 575 q 153 678 106 635 q 267 747 201 722 q 408 772 332 772 q 572 738 501 772 q 683 644 643 704 q 722 503 722 583 l 722 0 l 550 0 l 550 129 l 589 132 q 519 51 560 83 q 428 1 479 18 q 314 -17 376 -17 m 139 889 l 301 1104 l 517 1104 l 681 889 l 500 889 l 410 1000 l 319 889 l 139 889 m 497 1189 q 444 1201 465 1189 q 406 1227 422 1213 q 376 1253 390 1242 q 342 1265 361 1265 q 313 1247 322 1265 q 304 1194 304 1229 l 167 1194 q 188 1316 167 1268 q 244 1387 210 1364 q 319 1410 279 1410 q 375 1399 353 1410 q 414 1372 397 1388 q 445 1346 431 1357 q 478 1335 460 1335 q 506 1353 499 1335 q 514 1404 514 1372 l 653 1404 q 605 1243 651 1297 q 497 1189 558 1189 z "},"ȁ":{"ha":806,"x_min":19,"x_max":722,"o":"m 314 -17 q 176 10 235 -17 q 86 85 118 36 q 54 200 54 135 q 82 312 54 263 q 168 394 110 361 q 315 442 226 428 l 563 482 l 563 343 l 350 307 q 269 272 296 297 q 243 207 243 247 q 273 145 243 168 q 347 122 303 122 q 448 147 404 122 q 516 214 492 171 q 540 308 540 257 l 540 503 q 502 584 540 551 q 401 617 464 617 q 298 585 343 617 q 232 503 253 554 l 83 575 q 153 678 106 635 q 267 747 201 722 q 408 772 332 772 q 572 738 501 772 q 683 644 643 704 q 722 503 722 583 l 722 0 l 550 0 l 550 129 l 589 132 q 519 51 560 83 q 428 1 479 18 q 314 -17 376 -17 m 167 889 l 19 1133 l 253 1133 l 343 889 l 167 889 m 475 889 l 326 1133 l 560 1133 l 650 889 l 475 889 z "},"ä":{"ha":806,"x_min":54,"x_max":722,"o":"m 314 -17 q 176 10 235 -17 q 86 85 118 36 q 54 200 54 135 q 82 312 54 263 q 168 394 110 361 q 315 442 226 428 l 563 482 l 563 343 l 350 307 q 269 272 296 297 q 243 207 243 247 q 273 145 243 168 q 347 122 303 122 q 448 147 404 122 q 516 214 492 171 q 540 308 540 257 l 540 503 q 502 584 540 551 q 401 617 464 617 q 298 585 343 617 q 232 503 253 554 l 83 575 q 153 678 106 635 q 267 747 201 722 q 408 772 332 772 q 572 738 501 772 q 683 644 643 704 q 722 503 722 583 l 722 0 l 550 0 l 550 129 l 589 132 q 519 51 560 83 q 428 1 479 18 q 314 -17 376 -17 m 164 889 l 164 1081 l 354 1081 l 354 889 l 164 889 m 465 889 l 465 1081 l 657 1081 l 657 889 l 465 889 z "},"ạ":{"ha":806,"x_min":54,"x_max":722,"o":"m 314 -17 q 176 10 235 -17 q 86 85 118 36 q 54 200 54 135 q 82 312 54 263 q 168 394 110 361 q 315 442 226 428 l 563 482 l 563 343 l 350 307 q 269 272 296 297 q 243 207 243 247 q 273 145 243 168 q 347 122 303 122 q 448 147 404 122 q 516 214 492 171 q 540 308 540 257 l 540 503 q 502 584 540 551 q 401 617 464 617 q 298 585 343 617 q 232 503 253 554 l 83 575 q 153 678 106 635 q 267 747 201 722 q 408 772 332 772 q 572 738 501 772 q 683 644 643 704 q 722 503 722 583 l 722 0 l 550 0 l 550 129 l 589 132 q 519 51 560 83 q 428 1 479 18 q 314 -17 376 -17 m 308 -315 l 308 -125 l 499 -125 l 499 -315 l 308 -315 z "},"à":{"ha":806,"x_min":54,"x_max":722,"o":"m 314 -17 q 176 10 235 -17 q 86 85 118 36 q 54 200 54 135 q 82 312 54 263 q 168 394 110 361 q 315 442 226 428 l 563 482 l 563 343 l 350 307 q 269 272 296 297 q 243 207 243 247 q 273 145 243 168 q 347 122 303 122 q 448 147 404 122 q 516 214 492 171 q 540 308 540 257 l 540 503 q 502 584 540 551 q 401 617 464 617 q 298 585 343 617 q 232 503 253 554 l 83 575 q 153 678 106 635 q 267 747 201 722 q 408 772 332 772 q 572 738 501 772 q 683 644 643 704 q 722 503 722 583 l 722 0 l 550 0 l 550 129 l 589 132 q 519 51 560 83 q 428 1 479 18 q 314 -17 376 -17 m 321 889 l 174 1129 l 410 1129 l 500 889 l 321 889 z "},"ả":{"ha":806,"x_min":54,"x_max":722,"o":"m 314 -17 q 176 10 235 -17 q 86 85 118 36 q 54 200 54 135 q 82 312 54 263 q 168 394 110 361 q 315 442 226 428 l 563 482 l 563 343 l 350 307 q 269 272 296 297 q 243 207 243 247 q 273 145 243 168 q 347 122 303 122 q 448 147 404 122 q 516 214 492 171 q 540 308 540 257 l 540 503 q 502 584 540 551 q 401 617 464 617 q 298 585 343 617 q 232 503 253 554 l 83 575 q 153 678 106 635 q 267 747 201 722 q 408 772 332 772 q 572 738 501 772 q 683 644 643 704 q 722 503 722 583 l 722 0 l 550 0 l 550 129 l 589 132 q 519 51 560 83 q 428 1 479 18 q 314 -17 376 -17 m 422 833 l 343 924 q 397 963 382 943 q 413 1007 413 982 q 392 1049 413 1033 q 333 1064 371 1064 q 299 1062 317 1064 q 264 1051 281 1060 l 243 1167 q 299 1185 267 1179 q 365 1190 331 1190 q 517 1144 460 1190 q 575 1024 575 1099 q 534 917 575 967 q 422 833 493 868 z "},"ȃ":{"ha":806,"x_min":54,"x_max":722,"o":"m 314 -17 q 176 10 235 -17 q 86 85 118 36 q 54 200 54 135 q 82 312 54 263 q 168 394 110 361 q 315 442 226 428 l 563 482 l 563 343 l 350 307 q 269 272 296 297 q 243 207 243 247 q 273 145 243 168 q 347 122 303 122 q 448 147 404 122 q 516 214 492 171 q 540 308 540 257 l 540 503 q 502 584 540 551 q 401 617 464 617 q 298 585 343 617 q 232 503 253 554 l 83 575 q 153 678 106 635 q 267 747 201 722 q 408 772 332 772 q 572 738 501 772 q 683 644 643 704 q 722 503 722 583 l 722 0 l 550 0 l 550 129 l 589 132 q 519 51 560 83 q 428 1 479 18 q 314 -17 376 -17 m 132 889 q 163 999 133 947 q 254 1085 193 1051 q 410 1118 315 1118 q 567 1086 506 1118 q 658 1002 628 1054 q 689 889 688 950 l 511 889 q 483 954 508 931 q 410 978 457 978 q 339 954 365 978 q 311 889 313 931 l 132 889 z "},"ā":{"ha":806,"x_min":54,"x_max":722,"o":"m 314 -17 q 176 10 235 -17 q 86 85 118 36 q 54 200 54 135 q 82 312 54 263 q 168 394 110 361 q 315 442 226 428 l 563 482 l 563 343 l 350 307 q 269 272 296 297 q 243 207 243 247 q 273 145 243 168 q 347 122 303 122 q 448 147 404 122 q 516 214 492 171 q 540 308 540 257 l 540 503 q 502 584 540 551 q 401 617 464 617 q 298 585 343 617 q 232 503 253 554 l 83 575 q 153 678 106 635 q 267 747 201 722 q 408 772 332 772 q 572 738 501 772 q 683 644 643 704 q 722 503 722 583 l 722 0 l 550 0 l 550 129 l 589 132 q 519 51 560 83 q 428 1 479 18 q 314 -17 376 -17 m 186 917 l 186 1067 l 633 1067 l 633 917 l 186 917 z "},"ą":{"ha":806,"x_min":54,"x_max":799,"o":"m 314 -17 q 176 10 235 -17 q 86 85 118 36 q 54 200 54 135 q 82 312 54 263 q 168 394 110 361 q 315 442 226 428 l 563 482 l 563 343 l 350 307 q 269 272 296 297 q 243 207 243 247 q 273 145 243 168 q 347 122 303 122 q 448 147 404 122 q 516 214 492 171 q 540 308 540 257 l 540 503 q 502 584 540 551 q 401 617 464 617 q 298 585 343 617 q 232 503 253 554 l 83 575 q 153 678 106 635 q 267 747 201 722 q 408 772 332 772 q 572 738 501 772 q 683 644 643 704 q 722 503 722 583 l 722 0 l 550 0 l 550 129 l 589 132 q 519 51 560 83 q 428 1 479 18 q 314 -17 376 -17 m 651 -329 q 511 -282 564 -329 q 458 -164 458 -235 q 481 -66 458 -111 q 551 10 504 -21 q 668 54 597 42 l 708 54 l 708 0 q 658 -25 681 -6 q 621 -73 635 -44 q 607 -137 607 -101 q 630 -190 607 -171 q 681 -208 653 -208 q 722 -201 704 -208 q 760 -179 740 -194 l 799 -283 q 734 -317 769 -304 q 651 -329 699 -329 z "},"å":{"ha":806,"x_min":54,"x_max":722,"o":"m 314 -17 q 176 10 235 -17 q 86 85 118 36 q 54 200 54 135 q 82 312 54 263 q 168 394 110 361 q 315 442 226 428 l 563 482 l 563 343 l 350 307 q 269 272 296 297 q 243 207 243 247 q 273 145 243 168 q 347 122 303 122 q 448 147 404 122 q 516 214 492 171 q 540 308 540 257 l 540 503 q 502 584 540 551 q 401 617 464 617 q 298 585 343 617 q 232 503 253 554 l 83 575 q 153 678 106 635 q 267 747 201 722 q 408 772 332 772 q 572 738 501 772 q 683 644 643 704 q 722 503 722 583 l 722 0 l 550 0 l 550 129 l 589 132 q 519 51 560 83 q 428 1 479 18 q 314 -17 376 -17 m 410 831 q 286 877 336 831 q 236 999 236 924 q 285 1119 236 1072 q 410 1165 335 1165 q 533 1119 483 1165 q 582 999 582 1072 q 533 877 582 924 q 410 831 483 831 m 410 939 q 451 956 435 939 q 467 999 467 972 q 451 1041 467 1025 q 410 1057 435 1057 q 367 1041 385 1057 q 350 999 350 1025 q 367 956 350 972 q 410 939 383 939 z "},"ǻ":{"ha":806,"x_min":54,"x_max":722,"o":"m 314 -17 q 176 10 235 -17 q 86 85 118 36 q 54 200 54 135 q 82 312 54 263 q 168 394 110 361 q 315 442 226 428 l 563 482 l 563 343 l 350 307 q 269 272 296 297 q 243 207 243 247 q 273 145 243 168 q 347 122 303 122 q 448 147 404 122 q 516 214 492 171 q 540 308 540 257 l 540 503 q 502 584 540 551 q 401 617 464 617 q 298 585 343 617 q 232 503 253 554 l 83 575 q 153 678 106 635 q 267 747 201 722 q 408 772 332 772 q 572 738 501 772 q 683 644 643 704 q 722 503 722 583 l 722 0 l 550 0 l 550 129 l 589 132 q 519 51 560 83 q 428 1 479 18 q 314 -17 376 -17 m 410 831 q 286 877 336 831 q 236 999 236 924 q 285 1119 236 1072 q 410 1165 335 1165 q 533 1119 483 1165 q 582 999 582 1072 q 533 877 582 924 q 410 831 483 831 m 410 939 q 451 956 435 939 q 467 999 467 972 q 451 1041 467 1025 q 410 1057 435 1057 q 367 1041 385 1057 q 350 999 350 1025 q 367 956 350 972 q 410 939 383 939 m 371 1074 l 440 1299 l 646 1299 l 532 1074 l 371 1074 z "},"ã":{"ha":806,"x_min":54,"x_max":722,"o":"m 314 -17 q 176 10 235 -17 q 86 85 118 36 q 54 200 54 135 q 82 312 54 263 q 168 394 110 361 q 315 442 226 428 l 563 482 l 563 343 l 350 307 q 269 272 296 297 q 243 207 243 247 q 273 145 243 168 q 347 122 303 122 q 448 147 404 122 q 516 214 492 171 q 540 308 540 257 l 540 503 q 502 584 540 551 q 401 617 464 617 q 298 585 343 617 q 232 503 253 554 l 83 575 q 153 678 106 635 q 267 747 201 722 q 408 772 332 772 q 572 738 501 772 q 683 644 643 704 q 722 503 722 583 l 722 0 l 550 0 l 550 129 l 589 132 q 519 51 560 83 q 428 1 479 18 q 314 -17 376 -17 m 510 889 q 447 901 472 889 q 403 927 421 913 q 367 953 385 942 q 325 965 349 965 q 289 948 301 965 q 276 894 276 931 l 136 894 q 186 1058 136 1006 q 307 1110 236 1110 q 372 1099 346 1110 q 418 1072 399 1088 q 455 1046 438 1057 q 493 1035 472 1035 q 532 1053 521 1035 q 543 1104 543 1072 l 683 1104 q 632 944 682 999 q 510 889 582 889 z "},"æ":{"ha":1343,"x_min":54,"x_max":1289,"o":"m 314 -17 q 176 10 235 -17 q 86 85 118 36 q 54 200 54 135 q 82 312 54 263 q 168 394 110 361 q 315 442 226 428 l 540 478 l 540 503 q 502 584 540 551 q 401 617 464 617 q 298 585 343 617 q 232 503 253 554 l 83 575 q 153 678 106 635 q 267 747 201 722 q 408 772 332 772 q 581 733 507 772 q 690 626 654 693 l 626 628 q 754 733 678 693 q 922 772 831 772 q 1078 743 1010 772 q 1193 663 1146 714 q 1265 545 1240 611 q 1289 403 1289 479 q 1287 363 1289 383 q 1281 326 1285 342 l 736 326 q 768 230 742 271 q 838 166 794 189 q 938 143 882 143 q 1043 169 1000 143 q 1113 240 1086 196 l 1260 168 q 1191 72 1238 114 q 1084 7 1144 31 q 956 -17 1024 -17 q 790 18 865 -17 q 665 124 715 53 l 704 161 l 704 0 l 550 0 l 550 163 l 586 124 q 515 47 556 78 q 425 -1 475 15 q 314 -17 375 -17 m 347 122 q 448 147 404 122 q 516 214 492 171 q 540 308 540 257 l 540 339 l 350 307 q 269 272 296 297 q 243 207 243 247 q 273 145 243 168 q 347 122 303 122 m 740 465 l 1096 465 q 1069 547 1092 511 q 1008 603 1046 583 q 922 622 969 622 q 838 604 876 622 q 774 551 800 586 q 740 465 749 515 z "},"ǽ":{"ha":1343,"x_min":54,"x_max":1289,"o":"m 314 -17 q 176 10 235 -17 q 86 85 118 36 q 54 200 54 135 q 82 312 54 263 q 168 394 110 361 q 315 442 226 428 l 540 478 l 540 503 q 502 584 540 551 q 401 617 464 617 q 298 585 343 617 q 232 503 253 554 l 83 575 q 153 678 106 635 q 267 747 201 722 q 408 772 332 772 q 581 733 507 772 q 690 626 654 693 l 626 628 q 754 733 678 693 q 922 772 831 772 q 1078 743 1010 772 q 1193 663 1146 714 q 1265 545 1240 611 q 1289 403 1289 479 q 1287 363 1289 383 q 1281 326 1285 342 l 736 326 q 768 230 742 271 q 838 166 794 189 q 938 143 882 143 q 1043 169 1000 143 q 1113 240 1086 196 l 1260 168 q 1191 72 1238 114 q 1084 7 1144 31 q 956 -17 1024 -17 q 790 18 865 -17 q 665 124 715 53 l 704 161 l 704 0 l 550 0 l 550 163 l 586 124 q 515 47 556 78 q 425 -1 475 15 q 314 -17 375 -17 m 347 122 q 448 147 404 122 q 516 214 492 171 q 540 308 540 257 l 540 339 l 350 307 q 269 272 296 297 q 243 207 243 247 q 273 145 243 168 q 347 122 303 122 m 740 465 l 1096 465 q 1069 547 1092 511 q 1008 603 1046 583 q 922 622 969 622 q 838 604 876 622 q 774 551 800 586 q 740 465 749 515 m 582 889 l 672 1129 l 908 1129 l 761 889 l 582 889 z "},"b":{"ha":933,"x_min":85,"x_max":879,"o":"m 497 -17 q 347 16 415 -17 q 238 110 278 49 l 256 146 l 256 0 l 85 0 l 85 1051 l 267 1051 l 267 606 l 239 643 q 344 738 278 704 q 499 772 411 772 q 692 719 606 772 q 828 578 778 667 q 879 378 879 489 q 829 178 879 268 q 693 35 779 88 q 497 -17 607 -17 m 476 150 q 588 179 539 150 q 663 260 636 208 q 690 378 690 311 q 663 495 690 444 q 588 576 636 546 q 476 606 539 606 q 369 576 417 606 q 294 495 321 547 q 267 378 267 443 q 294 260 267 311 q 369 179 321 208 q 476 150 417 150 z "},"c":{"ha":844,"x_min":54,"x_max":792,"o":"m 449 -17 q 247 35 336 -17 q 106 177 157 88 q 54 379 54 267 q 106 581 54 492 q 247 721 157 669 q 449 772 336 772 q 599 744 529 772 q 719 666 668 715 q 792 549 769 617 l 632 479 q 562 571 611 536 q 449 606 513 606 q 342 576 389 606 q 269 496 296 547 q 243 378 243 444 q 269 260 243 311 q 342 179 296 208 q 449 150 389 150 q 563 185 514 150 q 632 278 611 219 l 792 206 q 719 91 769 142 q 600 12 669 40 q 449 -17 531 -17 z "},"ć":{"ha":844,"x_min":54,"x_max":792,"o":"m 449 -17 q 247 35 336 -17 q 106 177 157 88 q 54 379 54 267 q 106 581 54 492 q 247 721 157 669 q 449 772 336 772 q 599 744 529 772 q 719 666 668 715 q 792 549 769 617 l 632 479 q 562 571 611 536 q 449 606 513 606 q 342 576 389 606 q 269 496 296 547 q 243 378 243 444 q 269 260 243 311 q 342 179 296 208 q 449 150 389 150 q 563 185 514 150 q 632 278 611 219 l 792 206 q 719 91 769 142 q 600 12 669 40 q 449 -17 531 -17 m 358 889 l 449 1129 l 685 1129 l 538 889 l 358 889 z "},"č":{"ha":844,"x_min":54,"x_max":792,"o":"m 449 -17 q 247 35 336 -17 q 106 177 157 88 q 54 379 54 267 q 106 581 54 492 q 247 721 157 669 q 449 772 336 772 q 599 744 529 772 q 719 666 668 715 q 792 549 769 617 l 632 479 q 562 571 611 536 q 449 606 513 606 q 342 576 389 606 q 269 496 296 547 q 243 378 243 444 q 269 260 243 311 q 342 179 296 208 q 449 150 389 150 q 563 185 514 150 q 632 278 611 219 l 792 206 q 719 91 769 142 q 600 12 669 40 q 449 -17 531 -17 m 340 889 l 178 1118 l 358 1118 l 449 993 l 539 1118 l 719 1118 l 556 889 l 340 889 z "},"ç":{"ha":844,"x_min":54,"x_max":792,"o":"m 449 -17 q 247 35 336 -17 q 106 177 157 88 q 54 379 54 267 q 106 581 54 492 q 247 721 157 669 q 449 772 336 772 q 599 744 529 772 q 719 666 668 715 q 792 549 769 617 l 632 479 q 562 571 611 536 q 449 606 513 606 q 342 576 389 606 q 269 496 296 547 q 243 378 243 444 q 269 260 243 311 q 342 179 296 208 q 449 150 389 150 q 563 185 514 150 q 632 278 611 219 l 792 206 q 719 91 769 142 q 600 12 669 40 q 449 -17 531 -17 m 463 -329 q 381 -317 426 -329 q 306 -283 336 -306 l 344 -179 q 390 -201 365 -193 q 439 -208 415 -208 q 486 -196 469 -208 q 503 -161 503 -183 q 469 -119 503 -135 q 372 -96 436 -103 l 401 14 l 508 14 l 496 -42 q 610 -87 568 -51 q 651 -175 651 -122 q 600 -287 651 -246 q 463 -329 549 -329 z "},"ḉ":{"ha":844,"x_min":54,"x_max":792,"o":"m 449 -17 q 247 35 336 -17 q 106 177 157 88 q 54 379 54 267 q 106 581 54 492 q 247 721 157 669 q 449 772 336 772 q 599 744 529 772 q 719 666 668 715 q 792 549 769 617 l 632 479 q 562 571 611 536 q 449 606 513 606 q 342 576 389 606 q 269 496 296 547 q 243 378 243 444 q 269 260 243 311 q 342 179 296 208 q 449 150 389 150 q 563 185 514 150 q 632 278 611 219 l 792 206 q 719 91 769 142 q 600 12 669 40 q 449 -17 531 -17 m 463 -329 q 381 -317 426 -329 q 306 -283 336 -306 l 344 -179 q 390 -201 365 -193 q 439 -208 415 -208 q 486 -196 469 -208 q 503 -161 503 -183 q 469 -119 503 -135 q 372 -96 436 -103 l 401 14 l 508 14 l 496 -42 q 610 -87 568 -51 q 651 -175 651 -122 q 600 -287 651 -246 q 463 -329 549 -329 m 358 889 l 449 1129 l 685 1129 l 538 889 l 358 889 z "},"ĉ":{"ha":844,"x_min":54,"x_max":792,"o":"m 449 -17 q 247 35 336 -17 q 106 177 157 88 q 54 379 54 267 q 106 581 54 492 q 247 721 157 669 q 449 772 336 772 q 599 744 529 772 q 719 666 668 715 q 792 549 769 617 l 632 479 q 562 571 611 536 q 449 606 513 606 q 342 576 389 606 q 269 496 296 547 q 243 378 243 444 q 269 260 243 311 q 342 179 296 208 q 449 150 389 150 q 563 185 514 150 q 632 278 611 219 l 792 206 q 719 91 769 142 q 600 12 669 40 q 449 -17 531 -17 m 178 889 l 340 1118 l 556 1118 l 719 889 l 539 889 l 449 1014 l 358 889 l 178 889 z "},"ċ":{"ha":844,"x_min":54,"x_max":792,"o":"m 449 -17 q 247 35 336 -17 q 106 177 157 88 q 54 379 54 267 q 106 581 54 492 q 247 721 157 669 q 449 772 336 772 q 599 744 529 772 q 719 666 668 715 q 792 549 769 617 l 632 479 q 562 571 611 536 q 449 606 513 606 q 342 576 389 606 q 269 496 296 547 q 243 378 243 444 q 269 260 243 311 q 342 179 296 208 q 449 150 389 150 q 563 185 514 150 q 632 278 611 219 l 792 206 q 719 91 769 142 q 600 12 669 40 q 449 -17 531 -17 m 354 889 l 354 1081 l 544 1081 l 544 889 l 354 889 z "},"d":{"ha":933,"x_min":54,"x_max":849,"o":"m 436 -17 q 240 35 326 -17 q 104 178 154 88 q 54 378 54 268 q 104 578 54 489 q 241 719 154 667 q 435 772 328 772 q 588 738 521 772 q 694 643 656 704 l 667 606 l 667 1051 l 849 1051 l 849 0 l 676 0 l 676 146 l 696 110 q 588 16 657 49 q 436 -17 518 -17 m 456 150 q 565 179 518 150 q 640 260 613 208 q 667 378 667 311 q 640 495 667 443 q 565 576 613 547 q 456 606 518 606 q 346 576 394 606 q 270 495 297 546 q 243 378 243 444 q 270 260 243 311 q 346 179 297 208 q 456 150 394 150 z "},"ď":{"ha":1201,"x_min":54,"x_max":1158,"o":"m 436 -17 q 240 35 326 -17 q 104 178 154 88 q 54 378 54 268 q 104 578 54 489 q 241 719 154 667 q 435 772 328 772 q 588 738 521 772 q 694 643 656 704 l 667 606 l 667 1051 l 849 1051 l 849 0 l 676 0 l 676 146 l 696 110 q 588 16 657 49 q 436 -17 518 -17 m 456 150 q 565 179 518 150 q 640 260 613 208 q 667 378 667 311 q 640 495 667 443 q 565 576 613 547 q 456 606 518 606 q 346 576 394 606 q 270 495 297 546 q 243 378 243 444 q 270 260 243 311 q 346 179 297 208 q 456 150 394 150 m 933 789 l 933 1051 l 1158 1051 l 1099 789 l 933 789 z "},"đ":{"ha":933,"x_min":54,"x_max":963,"o":"m 553 819 l 553 958 l 963 958 l 963 819 l 553 819 m 436 -17 q 240 35 326 -17 q 104 178 154 88 q 54 378 54 268 q 104 578 54 489 q 241 719 154 667 q 435 772 328 772 q 588 738 521 772 q 694 643 656 704 l 667 606 l 667 1051 l 849 1051 l 849 0 l 676 0 l 676 146 l 696 110 q 588 16 657 49 q 436 -17 518 -17 m 456 150 q 565 179 518 150 q 640 260 613 208 q 667 378 667 311 q 640 495 667 443 q 565 576 613 547 q 456 606 518 606 q 346 576 394 606 q 270 495 297 546 q 243 378 243 444 q 270 260 243 311 q 346 179 297 208 q 456 150 394 150 z "},"ḍ":{"ha":933,"x_min":54,"x_max":849,"o":"m 436 -17 q 240 35 326 -17 q 104 178 154 88 q 54 378 54 268 q 104 578 54 489 q 241 719 154 667 q 435 772 328 772 q 588 738 521 772 q 694 643 656 704 l 667 606 l 667 1051 l 849 1051 l 849 0 l 676 0 l 676 146 l 696 110 q 588 16 657 49 q 436 -17 518 -17 m 456 150 q 565 179 518 150 q 640 260 613 208 q 667 378 667 311 q 640 495 667 443 q 565 576 613 547 q 456 606 518 606 q 346 576 394 606 q 270 495 297 546 q 243 378 243 444 q 270 260 243 311 q 346 179 297 208 q 456 150 394 150 m 372 -315 l 372 -125 l 563 -125 l 563 -315 l 372 -315 z "},"ḏ":{"ha":933,"x_min":54,"x_max":849,"o":"m 436 -17 q 240 35 326 -17 q 104 178 154 88 q 54 378 54 268 q 104 578 54 489 q 241 719 154 667 q 435 772 328 772 q 588 738 521 772 q 694 643 656 704 l 667 606 l 667 1051 l 849 1051 l 849 0 l 676 0 l 676 146 l 696 110 q 588 16 657 49 q 436 -17 518 -17 m 456 150 q 565 179 518 150 q 640 260 613 208 q 667 378 667 311 q 640 495 667 443 q 565 576 613 547 q 456 606 518 606 q 346 576 394 606 q 270 495 297 546 q 243 378 243 444 q 270 260 243 311 q 346 179 297 208 q 456 150 394 150 m 244 -287 l 244 -139 l 692 -139 l 692 -287 l 244 -287 z "},"ǆ":{"ha":1601,"x_min":54,"x_max":1582,"o":"m 436 -17 q 240 35 326 -17 q 104 178 154 88 q 54 378 54 268 q 104 578 54 489 q 241 719 154 667 q 435 772 328 772 q 588 738 521 772 q 694 643 656 704 l 667 606 l 667 1051 l 849 1051 l 849 0 l 676 0 l 676 146 l 696 110 q 588 16 657 49 q 436 -17 518 -17 m 456 150 q 565 179 518 150 q 640 260 613 208 q 667 378 667 311 q 640 495 667 443 q 565 576 613 547 q 456 606 518 606 q 346 576 394 606 q 270 495 297 546 q 243 378 243 444 q 270 260 243 311 q 346 179 297 208 q 456 150 394 150 m 953 0 l 953 147 l 1392 656 l 1419 593 l 972 593 l 972 756 l 1581 756 l 1581 607 l 1150 99 l 1122 161 l 1583 161 l 1583 0 l 953 0 m 1164 889 l 1001 1118 l 1182 1118 l 1272 993 l 1363 1118 l 1543 1118 l 1379 889 l 1164 889 z "},"ð":{"ha":906,"x_min":54,"x_max":853,"o":"m 456 -17 q 301 12 374 -17 q 172 92 228 40 q 85 217 117 144 q 54 374 54 289 q 106 570 54 483 q 244 708 157 657 q 443 758 332 758 q 535 747 493 758 q 614 710 576 735 q 686 649 651 686 l 654 592 q 631 713 651 657 q 576 812 611 768 q 492 885 540 856 q 389 930 444 914 q 274 946 333 946 q 202 940 238 946 q 129 922 167 935 l 108 1071 q 306 1106 211 1106 q 492 1072 407 1106 q 644 976 578 1038 q 758 832 711 914 q 828 655 804 750 q 853 458 853 560 q 801 194 853 299 q 660 36 749 89 q 456 -17 571 -17 m 454 150 q 562 179 515 150 q 635 259 608 208 q 663 372 663 310 q 637 484 663 435 q 565 563 611 533 q 454 592 518 592 q 344 563 392 592 q 269 485 296 535 q 243 372 243 435 q 271 257 243 307 q 347 178 299 207 q 454 150 394 150 m 308 782 l 308 865 l 781 1047 l 781 964 l 308 782 z "},"e":{"ha":850,"x_min":54,"x_max":797,"o":"m 443 -17 q 239 36 326 -17 q 103 179 151 89 q 54 379 54 269 q 103 581 54 493 q 238 721 153 669 q 429 772 324 772 q 585 743 518 772 q 700 663 653 714 q 772 545 747 611 q 797 403 797 479 q 795 363 797 383 q 788 326 793 342 l 204 326 l 204 465 l 685 465 l 599 400 q 592 514 611 464 q 531 593 574 564 q 429 622 489 622 q 328 594 372 622 q 260 510 283 565 q 243 378 238 456 q 262 255 238 308 q 334 172 286 201 q 444 143 382 143 q 551 169 507 143 q 619 240 594 196 l 767 168 q 697 72 744 114 q 585 7 650 31 q 443 -17 521 -17 z "},"é":{"ha":850,"x_min":54,"x_max":797,"o":"m 443 -17 q 239 36 326 -17 q 103 179 151 89 q 54 379 54 269 q 103 581 54 493 q 238 721 153 669 q 429 772 324 772 q 585 743 518 772 q 700 663 653 714 q 772 545 747 611 q 797 403 797 479 q 795 363 797 383 q 788 326 793 342 l 204 326 l 204 465 l 685 465 l 599 400 q 592 514 611 464 q 531 593 574 564 q 429 622 489 622 q 328 594 372 622 q 260 510 283 565 q 243 378 238 456 q 262 255 238 308 q 334 172 286 201 q 444 143 382 143 q 551 169 507 143 q 619 240 594 196 l 767 168 q 697 72 744 114 q 585 7 650 31 q 443 -17 521 -17 m 336 889 l 426 1129 l 663 1129 l 515 889 l 336 889 z "},"ĕ":{"ha":850,"x_min":54,"x_max":797,"o":"m 443 -17 q 239 36 326 -17 q 103 179 151 89 q 54 379 54 269 q 103 581 54 493 q 238 721 153 669 q 429 772 324 772 q 585 743 518 772 q 700 663 653 714 q 772 545 747 611 q 797 403 797 479 q 795 363 797 383 q 788 326 793 342 l 204 326 l 204 465 l 685 465 l 599 400 q 592 514 611 464 q 531 593 574 564 q 429 622 489 622 q 328 594 372 622 q 260 510 283 565 q 243 378 238 456 q 262 255 238 308 q 334 172 286 201 q 444 143 382 143 q 551 169 507 143 q 619 240 594 196 l 767 168 q 697 72 744 114 q 585 7 650 31 q 443 -17 521 -17 m 425 894 q 269 928 331 894 q 178 1013 208 961 q 147 1124 149 1065 l 326 1124 q 354 1058 328 1082 q 425 1035 381 1035 q 498 1058 472 1035 q 526 1124 524 1082 l 704 1124 q 673 1011 703 1064 q 582 926 643 958 q 425 894 521 894 z "},"ě":{"ha":850,"x_min":54,"x_max":797,"o":"m 443 -17 q 239 36 326 -17 q 103 179 151 89 q 54 379 54 269 q 103 581 54 493 q 238 721 153 669 q 429 772 324 772 q 585 743 518 772 q 700 663 653 714 q 772 545 747 611 q 797 403 797 479 q 795 363 797 383 q 788 326 793 342 l 204 326 l 204 465 l 685 465 l 599 400 q 592 514 611 464 q 531 593 574 564 q 429 622 489 622 q 328 594 372 622 q 260 510 283 565 q 243 378 238 456 q 262 255 238 308 q 334 172 286 201 q 444 143 382 143 q 551 169 507 143 q 619 240 594 196 l 767 168 q 697 72 744 114 q 585 7 650 31 q 443 -17 521 -17 m 318 889 l 156 1118 l 336 1118 l 426 993 l 517 1118 l 697 1118 l 533 889 l 318 889 z "},"ḝ":{"ha":850,"x_min":54,"x_max":797,"o":"m 443 -17 q 239 36 326 -17 q 103 179 151 89 q 54 379 54 269 q 103 581 54 493 q 238 721 153 669 q 429 772 324 772 q 585 743 518 772 q 700 663 653 714 q 772 545 747 611 q 797 403 797 479 q 795 363 797 383 q 788 326 793 342 l 204 326 l 204 465 l 685 465 l 599 400 q 592 514 611 464 q 531 593 574 564 q 429 622 489 622 q 328 594 372 622 q 260 510 283 565 q 243 378 238 456 q 262 255 238 308 q 334 172 286 201 q 444 143 382 143 q 551 169 507 143 q 619 240 594 196 l 767 168 q 697 72 744 114 q 585 7 650 31 q 443 -17 521 -17 m 440 -329 q 359 -317 404 -329 q 283 -283 314 -306 l 322 -179 q 368 -201 343 -193 q 417 -208 393 -208 q 464 -196 447 -208 q 481 -161 481 -183 q 447 -119 481 -135 q 350 -96 414 -103 l 379 14 l 486 14 l 474 -42 q 588 -87 546 -51 q 629 -175 629 -122 q 578 -287 629 -246 q 440 -329 526 -329 m 425 894 q 269 928 331 894 q 178 1013 208 961 q 147 1124 149 1065 l 326 1124 q 354 1058 328 1082 q 425 1035 381 1035 q 498 1058 472 1035 q 526 1124 524 1082 l 704 1124 q 673 1011 703 1064 q 582 926 643 958 q 425 894 521 894 z "},"ê":{"ha":850,"x_min":54,"x_max":797,"o":"m 443 -17 q 239 36 326 -17 q 103 179 151 89 q 54 379 54 269 q 103 581 54 493 q 238 721 153 669 q 429 772 324 772 q 585 743 518 772 q 700 663 653 714 q 772 545 747 611 q 797 403 797 479 q 795 363 797 383 q 788 326 793 342 l 204 326 l 204 465 l 685 465 l 599 400 q 592 514 611 464 q 531 593 574 564 q 429 622 489 622 q 328 594 372 622 q 260 510 283 565 q 243 378 238 456 q 262 255 238 308 q 334 172 286 201 q 444 143 382 143 q 551 169 507 143 q 619 240 594 196 l 767 168 q 697 72 744 114 q 585 7 650 31 q 443 -17 521 -17 m 156 889 l 318 1118 l 533 1118 l 697 889 l 517 889 l 426 1014 l 336 889 l 156 889 z "},"ế":{"ha":850,"x_min":54,"x_max":907,"o":"m 443 -17 q 239 36 326 -17 q 103 179 151 89 q 54 379 54 269 q 103 581 54 493 q 238 721 153 669 q 429 772 324 772 q 585 743 518 772 q 700 663 653 714 q 772 545 747 611 q 797 403 797 479 q 795 363 797 383 q 788 326 793 342 l 204 326 l 204 465 l 685 465 l 599 400 q 592 514 611 464 q 531 593 574 564 q 429 622 489 622 q 328 594 372 622 q 260 510 283 565 q 243 378 238 456 q 262 255 238 308 q 334 172 286 201 q 444 143 382 143 q 551 169 507 143 q 619 240 594 196 l 767 168 q 697 72 744 114 q 585 7 650 31 q 443 -17 521 -17 m 156 889 l 318 1104 l 533 1104 l 697 889 l 517 889 l 426 1000 l 336 889 l 156 889 m 638 997 l 701 1199 l 907 1199 l 786 997 l 638 997 z "},"ệ":{"ha":850,"x_min":54,"x_max":797,"o":"m 443 -17 q 239 36 326 -17 q 103 179 151 89 q 54 379 54 269 q 103 581 54 493 q 238 721 153 669 q 429 772 324 772 q 585 743 518 772 q 700 663 653 714 q 772 545 747 611 q 797 403 797 479 q 795 363 797 383 q 788 326 793 342 l 204 326 l 204 465 l 685 465 l 599 400 q 592 514 611 464 q 531 593 574 564 q 429 622 489 622 q 328 594 372 622 q 260 510 283 565 q 243 378 238 456 q 262 255 238 308 q 334 172 286 201 q 444 143 382 143 q 551 169 507 143 q 619 240 594 196 l 767 168 q 697 72 744 114 q 585 7 650 31 q 443 -17 521 -17 m 331 -315 l 331 -125 l 521 -125 l 521 -315 l 331 -315 m 156 889 l 318 1118 l 533 1118 l 697 889 l 517 889 l 426 1014 l 336 889 l 156 889 z "},"ề":{"ha":850,"x_min":54,"x_max":864,"o":"m 443 -17 q 239 36 326 -17 q 103 179 151 89 q 54 379 54 269 q 103 581 54 493 q 238 721 153 669 q 429 772 324 772 q 585 743 518 772 q 700 663 653 714 q 772 545 747 611 q 797 403 797 479 q 795 363 797 383 q 788 326 793 342 l 204 326 l 204 465 l 685 465 l 599 400 q 592 514 611 464 q 531 593 574 564 q 429 622 489 622 q 328 594 372 622 q 260 510 283 565 q 243 378 238 456 q 262 255 238 308 q 334 172 286 201 q 444 143 382 143 q 551 169 507 143 q 619 240 594 196 l 767 168 q 697 72 744 114 q 585 7 650 31 q 443 -17 521 -17 m 156 889 l 318 1104 l 533 1104 l 697 889 l 517 889 l 426 1000 l 336 889 l 156 889 m 715 997 l 596 1199 l 801 1199 l 864 997 l 715 997 z "},"ể":{"ha":850,"x_min":54,"x_max":838,"o":"m 443 -17 q 239 36 326 -17 q 103 179 151 89 q 54 379 54 269 q 103 581 54 493 q 238 721 153 669 q 429 772 324 772 q 585 743 518 772 q 700 663 653 714 q 772 545 747 611 q 797 403 797 479 q 795 363 797 383 q 788 326 793 342 l 204 326 l 204 465 l 685 465 l 599 400 q 592 514 611 464 q 531 593 574 564 q 429 622 489 622 q 328 594 372 622 q 260 510 283 565 q 243 378 238 456 q 262 255 238 308 q 334 172 286 201 q 444 143 382 143 q 551 169 507 143 q 619 240 594 196 l 767 168 q 697 72 744 114 q 585 7 650 31 q 443 -17 521 -17 m 156 889 l 318 1104 l 533 1104 l 697 889 l 517 889 l 426 1000 l 336 889 l 156 889 m 694 985 l 622 1069 q 674 1105 660 1088 q 688 1146 688 1122 q 668 1185 688 1169 q 614 1200 649 1200 q 581 1198 599 1200 q 549 1188 564 1196 l 529 1294 q 581 1311 553 1306 q 643 1317 610 1317 q 784 1274 731 1317 q 838 1161 838 1232 q 799 1063 838 1108 q 694 985 760 1017 z "},"ễ":{"ha":850,"x_min":54,"x_max":797,"o":"m 443 -17 q 239 36 326 -17 q 103 179 151 89 q 54 379 54 269 q 103 581 54 493 q 238 721 153 669 q 429 772 324 772 q 585 743 518 772 q 700 663 653 714 q 772 545 747 611 q 797 403 797 479 q 795 363 797 383 q 788 326 793 342 l 204 326 l 204 465 l 685 465 l 599 400 q 592 514 611 464 q 531 593 574 564 q 429 622 489 622 q 328 594 372 622 q 260 510 283 565 q 243 378 238 456 q 262 255 238 308 q 334 172 286 201 q 444 143 382 143 q 551 169 507 143 q 619 240 594 196 l 767 168 q 697 72 744 114 q 585 7 650 31 q 443 -17 521 -17 m 156 889 l 318 1104 l 533 1104 l 697 889 l 517 889 l 426 1000 l 336 889 l 156 889 m 514 1189 q 460 1201 482 1189 q 423 1227 439 1213 q 392 1253 407 1242 q 358 1265 378 1265 q 330 1247 339 1265 q 321 1194 321 1229 l 183 1194 q 205 1316 183 1268 q 261 1387 226 1364 q 336 1410 296 1410 q 392 1399 369 1410 q 431 1372 414 1388 q 462 1346 447 1357 q 494 1335 476 1335 q 523 1353 515 1335 q 531 1404 531 1372 l 669 1404 q 622 1243 668 1297 q 514 1189 575 1189 z "},"ȅ":{"ha":850,"x_min":36,"x_max":797,"o":"m 443 -17 q 239 36 326 -17 q 103 179 151 89 q 54 379 54 269 q 103 581 54 493 q 238 721 153 669 q 429 772 324 772 q 585 743 518 772 q 700 663 653 714 q 772 545 747 611 q 797 403 797 479 q 795 363 797 383 q 788 326 793 342 l 204 326 l 204 465 l 685 465 l 599 400 q 592 514 611 464 q 531 593 574 564 q 429 622 489 622 q 328 594 372 622 q 260 510 283 565 q 243 378 238 456 q 262 255 238 308 q 334 172 286 201 q 444 143 382 143 q 551 169 507 143 q 619 240 594 196 l 767 168 q 697 72 744 114 q 585 7 650 31 q 443 -17 521 -17 m 183 889 l 36 1133 l 269 1133 l 360 889 l 183 889 m 492 889 l 343 1133 l 576 1133 l 667 889 l 492 889 z "},"ë":{"ha":850,"x_min":54,"x_max":797,"o":"m 443 -17 q 239 36 326 -17 q 103 179 151 89 q 54 379 54 269 q 103 581 54 493 q 238 721 153 669 q 429 772 324 772 q 585 743 518 772 q 700 663 653 714 q 772 545 747 611 q 797 403 797 479 q 795 363 797 383 q 788 326 793 342 l 204 326 l 204 465 l 685 465 l 599 400 q 592 514 611 464 q 531 593 574 564 q 429 622 489 622 q 328 594 372 622 q 260 510 283 565 q 243 378 238 456 q 262 255 238 308 q 334 172 286 201 q 444 143 382 143 q 551 169 507 143 q 619 240 594 196 l 767 168 q 697 72 744 114 q 585 7 650 31 q 443 -17 521 -17 m 181 889 l 181 1081 l 371 1081 l 371 889 l 181 889 m 482 889 l 482 1081 l 674 1081 l 674 889 l 482 889 z "},"ė":{"ha":850,"x_min":54,"x_max":797,"o":"m 443 -17 q 239 36 326 -17 q 103 179 151 89 q 54 379 54 269 q 103 581 54 493 q 238 721 153 669 q 429 772 324 772 q 585 743 518 772 q 700 663 653 714 q 772 545 747 611 q 797 403 797 479 q 795 363 797 383 q 788 326 793 342 l 204 326 l 204 465 l 685 465 l 599 400 q 592 514 611 464 q 531 593 574 564 q 429 622 489 622 q 328 594 372 622 q 260 510 283 565 q 243 378 238 456 q 262 255 238 308 q 334 172 286 201 q 444 143 382 143 q 551 169 507 143 q 619 240 594 196 l 767 168 q 697 72 744 114 q 585 7 650 31 q 443 -17 521 -17 m 331 889 l 331 1081 l 521 1081 l 521 889 l 331 889 z "},"ẹ":{"ha":850,"x_min":54,"x_max":797,"o":"m 443 -17 q 239 36 326 -17 q 103 179 151 89 q 54 379 54 269 q 103 581 54 493 q 238 721 153 669 q 429 772 324 772 q 585 743 518 772 q 700 663 653 714 q 772 545 747 611 q 797 403 797 479 q 795 363 797 383 q 788 326 793 342 l 204 326 l 204 465 l 685 465 l 599 400 q 592 514 611 464 q 531 593 574 564 q 429 622 489 622 q 328 594 372 622 q 260 510 283 565 q 243 378 238 456 q 262 255 238 308 q 334 172 286 201 q 444 143 382 143 q 551 169 507 143 q 619 240 594 196 l 767 168 q 697 72 744 114 q 585 7 650 31 q 443 -17 521 -17 m 331 -315 l 331 -125 l 521 -125 l 521 -315 l 331 -315 z "},"è":{"ha":850,"x_min":54,"x_max":797,"o":"m 443 -17 q 239 36 326 -17 q 103 179 151 89 q 54 379 54 269 q 103 581 54 493 q 238 721 153 669 q 429 772 324 772 q 585 743 518 772 q 700 663 653 714 q 772 545 747 611 q 797 403 797 479 q 795 363 797 383 q 788 326 793 342 l 204 326 l 204 465 l 685 465 l 599 400 q 592 514 611 464 q 531 593 574 564 q 429 622 489 622 q 328 594 372 622 q 260 510 283 565 q 243 378 238 456 q 262 255 238 308 q 334 172 286 201 q 444 143 382 143 q 551 169 507 143 q 619 240 594 196 l 767 168 q 697 72 744 114 q 585 7 650 31 q 443 -17 521 -17 m 336 889 l 189 1129 l 425 1129 l 515 889 l 336 889 z "},"ẻ":{"ha":850,"x_min":54,"x_max":797,"o":"m 443 -17 q 239 36 326 -17 q 103 179 151 89 q 54 379 54 269 q 103 581 54 493 q 238 721 153 669 q 429 772 324 772 q 585 743 518 772 q 700 663 653 714 q 772 545 747 611 q 797 403 797 479 q 795 363 797 383 q 788 326 793 342 l 204 326 l 204 465 l 685 465 l 599 400 q 592 514 611 464 q 531 593 574 564 q 429 622 489 622 q 328 594 372 622 q 260 510 283 565 q 243 378 238 456 q 262 255 238 308 q 334 172 286 201 q 444 143 382 143 q 551 169 507 143 q 619 240 594 196 l 767 168 q 697 72 744 114 q 585 7 650 31 q 443 -17 521 -17 m 439 833 l 360 924 q 414 963 399 943 q 429 1007 429 982 q 408 1049 429 1033 q 350 1064 388 1064 q 315 1062 333 1064 q 281 1051 297 1060 l 260 1167 q 315 1185 283 1179 q 382 1190 347 1190 q 534 1144 476 1190 q 592 1024 592 1099 q 551 917 592 967 q 439 833 510 868 z "},"ȇ":{"ha":850,"x_min":54,"x_max":797,"o":"m 443 -17 q 239 36 326 -17 q 103 179 151 89 q 54 379 54 269 q 103 581 54 493 q 238 721 153 669 q 429 772 324 772 q 585 743 518 772 q 700 663 653 714 q 772 545 747 611 q 797 403 797 479 q 795 363 797 383 q 788 326 793 342 l 204 326 l 204 465 l 685 465 l 599 400 q 592 514 611 464 q 531 593 574 564 q 429 622 489 622 q 328 594 372 622 q 260 510 283 565 q 243 378 238 456 q 262 255 238 308 q 334 172 286 201 q 444 143 382 143 q 551 169 507 143 q 619 240 594 196 l 767 168 q 697 72 744 114 q 585 7 650 31 q 443 -17 521 -17 m 147 889 q 178 999 149 947 q 269 1085 208 1051 q 425 1118 331 1118 q 582 1086 521 1118 q 673 1002 643 1054 q 704 889 703 950 l 526 889 q 498 954 524 931 q 425 978 472 978 q 354 954 381 978 q 326 889 328 931 l 147 889 z "},"ē":{"ha":850,"x_min":54,"x_max":797,"o":"m 443 -17 q 239 36 326 -17 q 103 179 151 89 q 54 379 54 269 q 103 581 54 493 q 238 721 153 669 q 429 772 324 772 q 585 743 518 772 q 700 663 653 714 q 772 545 747 611 q 797 403 797 479 q 795 363 797 383 q 788 326 793 342 l 204 326 l 204 465 l 685 465 l 599 400 q 592 514 611 464 q 531 593 574 564 q 429 622 489 622 q 328 594 372 622 q 260 510 283 565 q 243 378 238 456 q 262 255 238 308 q 334 172 286 201 q 444 143 382 143 q 551 169 507 143 q 619 240 594 196 l 767 168 q 697 72 744 114 q 585 7 650 31 q 443 -17 521 -17 m 203 917 l 203 1067 l 650 1067 l 650 917 l 203 917 z "},"ḗ":{"ha":850,"x_min":54,"x_max":797,"o":"m 443 -17 q 239 36 326 -17 q 103 179 151 89 q 54 379 54 269 q 103 581 54 493 q 238 721 153 669 q 429 772 324 772 q 585 743 518 772 q 700 663 653 714 q 772 545 747 611 q 797 403 797 479 q 795 363 797 383 q 788 326 793 342 l 204 326 l 204 465 l 685 465 l 599 400 q 592 514 611 464 q 531 593 574 564 q 429 622 489 622 q 328 594 372 622 q 260 510 283 565 q 243 378 238 456 q 262 255 238 308 q 334 172 286 201 q 444 143 382 143 q 551 169 507 143 q 619 240 594 196 l 767 168 q 697 72 744 114 q 585 7 650 31 q 443 -17 521 -17 m 333 1153 l 424 1393 l 661 1393 l 513 1153 l 333 1153 m 200 917 l 200 1067 l 647 1067 l 647 917 l 200 917 z "},"ḕ":{"ha":850,"x_min":54,"x_max":797,"o":"m 443 -17 q 239 36 326 -17 q 103 179 151 89 q 54 379 54 269 q 103 581 54 493 q 238 721 153 669 q 429 772 324 772 q 585 743 518 772 q 700 663 653 714 q 772 545 747 611 q 797 403 797 479 q 795 363 797 383 q 788 326 793 342 l 204 326 l 204 465 l 685 465 l 599 400 q 592 514 611 464 q 531 593 574 564 q 429 622 489 622 q 328 594 372 622 q 260 510 283 565 q 243 378 238 456 q 262 255 238 308 q 334 172 286 201 q 444 143 382 143 q 551 169 507 143 q 619 240 594 196 l 767 168 q 697 72 744 114 q 585 7 650 31 q 443 -17 521 -17 m 201 917 l 201 1067 l 650 1067 l 650 917 l 201 917 m 336 1153 l 189 1393 l 425 1393 l 515 1153 l 336 1153 z "},"ę":{"ha":850,"x_min":54,"x_max":797,"o":"m 443 -17 q 239 36 326 -17 q 103 179 151 89 q 54 379 54 269 q 103 581 54 493 q 238 721 153 669 q 429 772 324 772 q 585 743 518 772 q 700 663 653 714 q 772 545 747 611 q 797 403 797 479 q 795 363 797 383 q 788 326 793 342 l 204 326 l 204 465 l 685 465 l 599 400 q 592 514 611 464 q 531 593 574 564 q 429 622 489 622 q 328 594 372 622 q 260 510 283 565 q 243 378 238 456 q 262 255 238 308 q 334 172 286 201 q 444 143 382 143 q 551 169 507 143 q 619 240 594 196 l 767 168 q 697 72 744 114 q 585 7 650 31 q 443 -17 521 -17 m 406 -329 q 265 -282 318 -329 q 213 -164 213 -235 q 235 -66 213 -111 q 305 10 258 -21 q 422 54 351 42 l 463 54 l 463 0 q 412 -25 435 -6 q 375 -73 389 -44 q 361 -137 361 -101 q 384 -190 361 -171 q 435 -208 407 -208 q 476 -201 458 -208 q 514 -179 494 -194 l 553 -283 q 488 -317 524 -304 q 406 -329 453 -329 z "},"ẽ":{"ha":850,"x_min":54,"x_max":797,"o":"m 443 -17 q 239 36 326 -17 q 103 179 151 89 q 54 379 54 269 q 103 581 54 493 q 238 721 153 669 q 429 772 324 772 q 585 743 518 772 q 700 663 653 714 q 772 545 747 611 q 797 403 797 479 q 795 363 797 383 q 788 326 793 342 l 204 326 l 204 465 l 685 465 l 599 400 q 592 514 611 464 q 531 593 574 564 q 429 622 489 622 q 328 594 372 622 q 260 510 283 565 q 243 378 238 456 q 262 255 238 308 q 334 172 286 201 q 444 143 382 143 q 551 169 507 143 q 619 240 594 196 l 767 168 q 697 72 744 114 q 585 7 650 31 q 443 -17 521 -17 m 526 889 q 463 901 489 889 q 419 927 438 913 q 383 953 401 942 q 342 965 365 965 q 306 948 318 965 q 293 894 293 931 l 153 894 q 203 1058 153 1006 q 324 1110 253 1110 q 389 1099 363 1110 q 435 1072 415 1088 q 472 1046 454 1057 q 510 1035 489 1035 q 549 1053 538 1035 q 560 1104 560 1072 l 700 1104 q 649 944 699 999 q 526 889 599 889 z "},"ə":{"ha":850,"x_min":54,"x_max":797,"o":"m 421 -17 q 265 13 333 -17 q 150 92 197 42 q 78 210 103 143 q 54 353 54 276 q 56 394 54 374 q 63 429 57 414 l 646 429 l 646 290 l 165 290 l 253 356 q 258 242 239 292 q 319 163 276 192 q 421 133 363 133 q 523 162 479 133 q 590 245 567 190 q 607 378 614 300 q 589 500 614 447 q 517 583 564 553 q 406 613 469 613 q 300 586 343 613 q 231 515 257 560 l 83 586 q 153 683 107 642 q 265 749 200 725 q 407 772 331 772 q 611 719 524 772 q 748 576 699 667 q 797 376 797 486 q 748 175 797 264 q 613 35 699 86 q 421 -17 528 -17 z "},"f":{"ha":564,"x_min":39,"x_max":529,"o":"m 172 0 l 172 593 l 39 593 l 39 756 l 172 756 l 172 781 q 208 927 172 867 q 307 1019 243 988 q 458 1051 371 1051 q 495 1049 475 1051 q 529 1044 515 1047 l 529 888 q 503 891 515 890 q 482 892 492 892 q 388 865 421 892 q 354 781 354 838 l 354 756 l 522 756 l 522 593 l 354 593 l 354 0 l 172 0 z "},"g":{"ha":906,"x_min":54,"x_max":821,"o":"m 451 -306 q 294 -278 367 -306 q 170 -201 222 -250 q 94 -85 118 -151 l 264 -21 q 330 -106 281 -74 q 451 -139 379 -139 q 549 -118 507 -139 q 615 -58 592 -97 q 639 38 639 -18 l 639 210 l 674 168 q 569 65 635 100 q 421 31 504 31 q 232 79 315 31 q 101 213 149 128 q 54 403 54 297 q 101 593 54 510 q 231 724 149 676 q 417 772 313 772 q 566 737 501 772 q 674 635 631 701 l 649 589 l 649 756 l 821 756 l 821 38 q 773 -139 821 -61 q 642 -261 725 -217 q 451 -306 560 -306 m 443 199 q 545 224 501 199 q 614 296 589 250 q 639 401 639 342 q 613 506 639 460 q 544 579 588 553 q 443 606 500 606 q 340 579 386 606 q 269 506 294 553 q 243 401 243 460 q 269 297 243 343 q 340 225 294 251 q 443 199 385 199 z "},"ğ":{"ha":906,"x_min":54,"x_max":821,"o":"m 451 -306 q 294 -278 367 -306 q 170 -201 222 -250 q 94 -85 118 -151 l 264 -21 q 330 -106 281 -74 q 451 -139 379 -139 q 549 -118 507 -139 q 615 -58 592 -97 q 639 38 639 -18 l 639 210 l 674 168 q 569 65 635 100 q 421 31 504 31 q 232 79 315 31 q 101 213 149 128 q 54 403 54 297 q 101 593 54 510 q 231 724 149 676 q 417 772 313 772 q 566 737 501 772 q 674 635 631 701 l 649 589 l 649 756 l 821 756 l 821 38 q 773 -139 821 -61 q 642 -261 725 -217 q 451 -306 560 -306 m 443 199 q 545 224 501 199 q 614 296 589 250 q 639 401 639 342 q 613 506 639 460 q 544 579 588 553 q 443 606 500 606 q 340 579 386 606 q 269 506 294 553 q 243 401 243 460 q 269 297 243 343 q 340 225 294 251 q 443 199 385 199 m 453 894 q 297 928 358 894 q 206 1013 236 961 q 175 1124 176 1065 l 354 1124 q 382 1058 356 1082 q 453 1035 408 1035 q 526 1058 500 1035 q 554 1124 551 1082 l 732 1124 q 701 1011 731 1064 q 610 926 671 958 q 453 894 549 894 z "},"ǧ":{"ha":906,"x_min":54,"x_max":821,"o":"m 451 -306 q 294 -278 367 -306 q 170 -201 222 -250 q 94 -85 118 -151 l 264 -21 q 330 -106 281 -74 q 451 -139 379 -139 q 549 -118 507 -139 q 615 -58 592 -97 q 639 38 639 -18 l 639 210 l 674 168 q 569 65 635 100 q 421 31 504 31 q 232 79 315 31 q 101 213 149 128 q 54 403 54 297 q 101 593 54 510 q 231 724 149 676 q 417 772 313 772 q 566 737 501 772 q 674 635 631 701 l 649 589 l 649 756 l 821 756 l 821 38 q 773 -139 821 -61 q 642 -261 725 -217 q 451 -306 560 -306 m 443 199 q 545 224 501 199 q 614 296 589 250 q 639 401 639 342 q 613 506 639 460 q 544 579 588 553 q 443 606 500 606 q 340 579 386 606 q 269 506 294 553 q 243 401 243 460 q 269 297 243 343 q 340 225 294 251 q 443 199 385 199 m 344 889 l 182 1118 l 363 1118 l 453 993 l 543 1118 l 724 1118 l 560 889 l 344 889 z "},"ĝ":{"ha":906,"x_min":54,"x_max":821,"o":"m 451 -306 q 294 -278 367 -306 q 170 -201 222 -250 q 94 -85 118 -151 l 264 -21 q 330 -106 281 -74 q 451 -139 379 -139 q 549 -118 507 -139 q 615 -58 592 -97 q 639 38 639 -18 l 639 210 l 674 168 q 569 65 635 100 q 421 31 504 31 q 232 79 315 31 q 101 213 149 128 q 54 403 54 297 q 101 593 54 510 q 231 724 149 676 q 417 772 313 772 q 566 737 501 772 q 674 635 631 701 l 649 589 l 649 756 l 821 756 l 821 38 q 773 -139 821 -61 q 642 -261 725 -217 q 451 -306 560 -306 m 443 199 q 545 224 501 199 q 614 296 589 250 q 639 401 639 342 q 613 506 639 460 q 544 579 588 553 q 443 606 500 606 q 340 579 386 606 q 269 506 294 553 q 243 401 243 460 q 269 297 243 343 q 340 225 294 251 q 443 199 385 199 m 182 889 l 344 1118 l 560 1118 l 724 889 l 543 889 l 453 1014 l 363 889 l 182 889 z "},"ģ":{"ha":906,"x_min":54,"x_max":821,"o":"m 451 -306 q 294 -278 367 -306 q 170 -201 222 -250 q 94 -85 118 -151 l 264 -21 q 330 -106 281 -74 q 451 -139 379 -139 q 549 -118 507 -139 q 615 -58 592 -97 q 639 38 639 -18 l 639 210 l 674 168 q 569 65 635 100 q 421 31 504 31 q 232 79 315 31 q 101 213 149 128 q 54 403 54 297 q 101 593 54 510 q 231 724 149 676 q 417 772 313 772 q 566 737 501 772 q 674 635 631 701 l 649 589 l 649 756 l 821 756 l 821 38 q 773 -139 821 -61 q 642 -261 725 -217 q 451 -306 560 -306 m 443 199 q 545 224 501 199 q 614 296 589 250 q 639 401 639 342 q 613 506 639 460 q 544 579 588 553 q 443 606 500 606 q 340 579 386 606 q 269 506 294 553 q 243 401 243 460 q 269 297 243 343 q 340 225 294 251 q 443 199 385 199 m 311 846 l 411 1106 l 583 1106 l 543 846 l 311 846 z "},"ġ":{"ha":906,"x_min":54,"x_max":821,"o":"m 451 -306 q 294 -278 367 -306 q 170 -201 222 -250 q 94 -85 118 -151 l 264 -21 q 330 -106 281 -74 q 451 -139 379 -139 q 549 -118 507 -139 q 615 -58 592 -97 q 639 38 639 -18 l 639 210 l 674 168 q 569 65 635 100 q 421 31 504 31 q 232 79 315 31 q 101 213 149 128 q 54 403 54 297 q 101 593 54 510 q 231 724 149 676 q 417 772 313 772 q 566 737 501 772 q 674 635 631 701 l 649 589 l 649 756 l 821 756 l 821 38 q 773 -139 821 -61 q 642 -261 725 -217 q 451 -306 560 -306 m 443 199 q 545 224 501 199 q 614 296 589 250 q 639 401 639 342 q 613 506 639 460 q 544 579 588 553 q 443 606 500 606 q 340 579 386 606 q 269 506 294 553 q 243 401 243 460 q 269 297 243 343 q 340 225 294 251 q 443 199 385 199 m 358 889 l 358 1081 l 549 1081 l 549 889 l 358 889 z "},"ḡ":{"ha":906,"x_min":54,"x_max":821,"o":"m 451 -306 q 294 -278 367 -306 q 170 -201 222 -250 q 94 -85 118 -151 l 264 -21 q 330 -106 281 -74 q 451 -139 379 -139 q 549 -118 507 -139 q 615 -58 592 -97 q 639 38 639 -18 l 639 210 l 674 168 q 569 65 635 100 q 421 31 504 31 q 232 79 315 31 q 101 213 149 128 q 54 403 54 297 q 101 593 54 510 q 231 724 149 676 q 417 772 313 772 q 566 737 501 772 q 674 635 631 701 l 649 589 l 649 756 l 821 756 l 821 38 q 773 -139 821 -61 q 642 -261 725 -217 q 451 -306 560 -306 m 443 199 q 545 224 501 199 q 614 296 589 250 q 639 401 639 342 q 613 506 639 460 q 544 579 588 553 q 443 606 500 606 q 340 579 386 606 q 269 506 294 553 q 243 401 243 460 q 269 297 243 343 q 340 225 294 251 q 443 199 385 199 m 229 917 l 229 1067 l 676 1067 l 676 917 l 229 917 z "},"h":{"ha":824,"x_min":85,"x_max":754,"o":"m 85 0 l 85 1051 l 267 1051 l 267 607 l 242 633 q 328 737 268 701 q 469 772 389 772 q 617 736 553 772 q 718 635 682 700 q 754 486 754 571 l 754 0 l 572 0 l 572 443 q 553 529 572 493 q 499 585 533 565 q 419 606 465 606 q 340 585 375 606 q 286 529 306 565 q 267 443 267 493 l 267 0 l 85 0 z "},"ħ":{"ha":824,"x_min":-29,"x_max":754,"o":"m -29 819 l -29 958 l 381 958 l 381 819 l -29 819 m 85 0 l 85 1051 l 267 1051 l 267 607 l 242 633 q 328 737 268 701 q 469 772 389 772 q 617 736 553 772 q 718 635 682 700 q 754 486 754 571 l 754 0 l 572 0 l 572 443 q 553 529 572 493 q 499 585 533 565 q 419 606 465 606 q 340 585 375 606 q 286 529 306 565 q 267 443 267 493 l 267 0 l 85 0 z "},"ḫ":{"ha":824,"x_min":85,"x_max":754,"o":"m 85 0 l 85 1051 l 267 1051 l 267 607 l 242 633 q 328 737 268 701 q 469 772 389 772 q 617 736 553 772 q 718 635 682 700 q 754 486 754 571 l 754 0 l 572 0 l 572 443 q 553 529 572 493 q 499 585 533 565 q 419 606 465 606 q 340 585 375 606 q 286 529 306 565 q 267 443 267 493 l 267 0 l 85 0 m 413 -354 q 257 -321 318 -354 q 166 -235 196 -287 q 135 -125 136 -183 l 314 -125 q 342 -190 315 -167 q 413 -214 368 -214 q 485 -190 460 -214 q 514 -125 511 -167 l 692 -125 q 660 -237 690 -185 q 569 -322 631 -290 q 413 -354 508 -354 z "},"ĥ":{"ha":824,"x_min":-96,"x_max":754,"o":"m 85 0 l 85 1051 l 267 1051 l 267 607 l 242 633 q 328 737 268 701 q 469 772 389 772 q 617 736 553 772 q 718 635 682 700 q 754 486 754 571 l 754 0 l 572 0 l 572 443 q 553 529 572 493 q 499 585 533 565 q 419 606 465 606 q 340 585 375 606 q 286 529 306 565 q 267 443 267 493 l 267 0 l 85 0 m -94 1169 l 68 1399 l 283 1399 l 447 1169 l 267 1169 l 176 1294 l 86 1169 l -94 1169 z "},"ḥ":{"ha":824,"x_min":85,"x_max":754,"o":"m 85 0 l 85 1051 l 267 1051 l 267 607 l 242 633 q 328 737 268 701 q 469 772 389 772 q 617 736 553 772 q 718 635 682 700 q 754 486 754 571 l 754 0 l 572 0 l 572 443 q 553 529 572 493 q 499 585 533 565 q 419 606 465 606 q 340 585 375 606 q 286 529 306 565 q 267 443 267 493 l 267 0 l 85 0 m 318 -315 l 318 -125 l 508 -125 l 508 -315 l 318 -315 z "},"i":{"ha":350,"x_min":85,"x_max":267,"o":"m 85 0 l 85 756 l 267 756 l 267 0 l 85 0 m 85 840 l 85 1035 l 267 1035 l 267 840 l 85 840 z "},"ı":{"ha":317,"x_min":68,"x_max":250,"o":"m 68 0 l 68 756 l 250 756 l 250 0 l 68 0 z "},"í":{"ha":317,"x_min":68,"x_max":396,"o":"m 68 0 l 68 756 l 250 756 l 250 0 l 68 0 m 69 889 l 160 1129 l 396 1129 l 249 889 l 69 889 z "},"ĭ":{"ha":317,"x_min":-121,"x_max":438,"o":"m 68 0 l 68 756 l 250 756 l 250 0 l 68 0 m 158 894 q 3 928 64 894 q -88 1013 -58 961 q -119 1124 -118 1065 l 60 1124 q 88 1058 61 1082 q 158 1035 114 1035 q 231 1058 206 1035 q 260 1124 257 1082 l 438 1124 q 406 1011 436 1064 q 315 926 376 958 q 158 894 254 894 z "},"î":{"ha":317,"x_min":-112,"x_max":429,"o":"m 68 0 l 68 756 l 250 756 l 250 0 l 68 0 m -111 889 l 51 1118 l 267 1118 l 431 889 l 250 889 l 160 1014 l 69 889 l -111 889 z "},"ȉ":{"ha":317,"x_min":-232,"x_max":400,"o":"m 68 0 l 68 756 l 250 756 l 250 0 l 68 0 m -83 889 l -231 1133 l 3 1133 l 93 889 l -83 889 m 225 889 l 76 1133 l 310 1133 l 400 889 l 225 889 z "},"ï":{"ha":317,"x_min":-87,"x_max":406,"o":"m 68 0 l 68 756 l 250 756 l 250 0 l 68 0 m -87 889 l -87 1081 l 103 1081 l 103 889 l -87 889 m 214 889 l 214 1081 l 406 1081 l 406 889 l 214 889 z "},"ḯ":{"ha":317,"x_min":-90,"x_max":403,"o":"m 68 0 l 68 756 l 250 756 l 250 0 l 68 0 m 68 1153 l 158 1393 l 396 1393 l 247 1153 l 68 1153 m -89 889 l -89 1081 l 101 1081 l 101 889 l -89 889 m 213 889 l 213 1081 l 404 1081 l 404 889 l 213 889 z "},"ị":{"ha":350,"x_min":81,"x_max":271,"o":"m 85 0 l 85 756 l 267 756 l 267 0 l 85 0 m 85 840 l 85 1035 l 267 1035 l 267 840 l 85 840 m 81 -315 l 81 -125 l 271 -125 l 271 -315 l 81 -315 z "},"ì":{"ha":317,"x_min":-79,"x_max":250,"o":"m 68 0 l 68 756 l 250 756 l 250 0 l 68 0 m 69 889 l -78 1129 l 158 1129 l 249 889 l 69 889 z "},"ỉ":{"ha":317,"x_min":-8,"x_max":324,"o":"m 68 0 l 68 756 l 250 756 l 250 0 l 68 0 m 172 833 l 93 924 q 147 963 132 943 q 163 1007 163 982 q 142 1049 163 1033 q 83 1064 121 1064 q 49 1062 67 1064 q 14 1051 31 1060 l -7 1167 q 49 1185 17 1179 q 115 1190 81 1190 q 267 1144 210 1190 q 325 1024 325 1099 q 284 917 325 967 q 172 833 243 868 z "},"ȋ":{"ha":317,"x_min":-121,"x_max":438,"o":"m 68 0 l 68 756 l 250 756 l 250 0 l 68 0 m -119 889 q -88 999 -118 947 q 3 1085 -58 1051 q 158 1118 64 1118 q 315 1086 254 1118 q 406 1002 376 1054 q 438 889 436 950 l 260 889 q 231 954 257 931 q 158 978 206 978 q 88 954 114 978 q 60 889 61 931 l -119 889 z "},"ī":{"ha":317,"x_min":-65,"x_max":382,"o":"m 68 0 l 68 756 l 250 756 l 250 0 l 68 0 m -65 917 l -65 1067 l 382 1067 l 382 917 l -65 917 z "},"į":{"ha":317,"x_min":-44,"x_max":297,"o":"m 68 0 l 68 756 l 250 756 l 250 0 l 68 0 m 64 889 l 64 1081 l 254 1081 l 254 889 l 64 889 m 149 -329 q 8 -282 61 -329 q -44 -164 -44 -235 q -22 -66 -44 -111 q 48 10 1 -21 q 165 54 94 42 l 206 54 l 206 0 q 155 -25 178 -6 q 118 -73 132 -44 q 104 -137 104 -101 q 127 -190 104 -171 q 178 -208 150 -208 q 219 -201 201 -208 q 257 -179 238 -194 l 296 -283 q 231 -317 267 -304 q 149 -329 196 -329 z "},"ĩ":{"ha":317,"x_min":-115,"x_max":432,"o":"m 68 0 l 68 756 l 250 756 l 250 0 l 68 0 m 258 889 q 195 901 221 889 q 151 927 169 913 q 115 953 133 942 q 74 965 97 965 q 38 948 50 965 q 25 894 25 931 l -115 894 q -65 1058 -115 1006 q 56 1110 -15 1110 q 121 1099 94 1110 q 167 1072 147 1088 q 203 1046 186 1057 q 242 1035 221 1035 q 281 1053 269 1035 q 292 1104 292 1072 l 432 1104 q 381 944 431 999 q 258 889 331 889 z "},"ĳ":{"ha":701,"x_min":85,"x_max":617,"o":"m 85 0 l 85 756 l 267 756 l 267 0 l 85 0 m 85 840 l 85 1035 l 267 1035 l 267 840 l 85 840 m 331 -307 q 293 -306 313 -307 q 261 -301 274 -304 l 261 -143 q 311 -147 286 -147 q 402 -120 369 -147 q 435 -37 435 -93 l 435 756 l 617 756 l 617 -37 q 582 -184 617 -124 q 483 -276 547 -244 q 331 -307 418 -307 m 435 840 l 435 1035 l 617 1035 l 617 840 l 435 840 z "},"j":{"ha":350,"x_min":-89,"x_max":267,"o":"m -19 -307 q -57 -306 -37 -307 q -89 -301 -76 -304 l -89 -143 q -39 -147 -64 -147 q 52 -120 19 -147 q 85 -37 85 -93 l 85 756 l 267 756 l 267 -37 q 232 -184 267 -124 q 133 -276 197 -244 q -19 -307 68 -307 m 85 840 l 85 1035 l 267 1035 l 267 840 l 85 840 z "},"ȷ":{"ha":350,"x_min":-89,"x_max":267,"o":"m -19 -307 q -57 -306 -37 -307 q -89 -301 -76 -304 l -89 -143 q -39 -147 -64 -147 q 52 -120 19 -147 q 85 -37 85 -93 l 85 756 l 267 756 l 267 -37 q 232 -184 267 -124 q 133 -276 197 -244 q -19 -307 68 -307 z "},"ĵ":{"ha":350,"x_min":-96,"x_max":447,"o":"m -19 -307 q -57 -306 -37 -307 q -89 -301 -76 -304 l -89 -143 q -39 -147 -64 -147 q 52 -120 19 -147 q 85 -37 85 -93 l 85 756 l 267 756 l 267 -37 q 232 -184 267 -124 q 133 -276 197 -244 q -19 -307 68 -307 m -94 889 l 68 1118 l 283 1118 l 447 889 l 267 889 l 176 1014 l 86 889 l -94 889 z "},"k":{"ha":801,"x_min":85,"x_max":785,"o":"m 85 0 l 85 1051 l 267 1051 l 267 363 l 197 383 l 553 756 l 779 756 l 500 451 l 785 0 l 576 0 l 329 392 l 438 414 l 210 169 l 267 281 l 267 0 l 85 0 z "},"ķ":{"ha":801,"x_min":85,"x_max":785,"o":"m 85 0 l 85 1051 l 267 1051 l 267 363 l 197 383 l 553 756 l 779 756 l 500 451 l 785 0 l 576 0 l 329 392 l 438 414 l 210 169 l 267 281 l 267 0 l 85 0 m 246 -357 l 286 -97 l 518 -97 l 417 -357 l 246 -357 z "},"ĸ":{"ha":801,"x_min":85,"x_max":786,"o":"m 578 0 l 354 319 l 364 467 l 550 756 l 753 756 l 519 386 l 786 0 l 578 0 m 85 0 l 85 756 l 267 756 l 267 0 l 85 0 m 197 313 l 197 475 l 463 475 l 463 313 l 197 313 z "},"l":{"ha":350,"x_min":85,"x_max":267,"o":"m 85 0 l 85 1051 l 267 1051 l 267 0 l 85 0 z "},"ĺ":{"ha":350,"x_min":85,"x_max":413,"o":"m 85 0 l 85 1051 l 267 1051 l 267 0 l 85 0 m 86 1169 l 176 1410 l 413 1410 l 265 1169 l 86 1169 z "},"ľ":{"ha":618,"x_min":85,"x_max":576,"o":"m 85 0 l 85 1051 l 267 1051 l 267 0 l 85 0 m 351 789 l 351 1051 l 576 1051 l 517 789 l 351 789 z "},"ļ":{"ha":350,"x_min":19,"x_max":292,"o":"m 85 0 l 85 1051 l 267 1051 l 267 0 l 85 0 m 21 -357 l 61 -97 l 293 -97 l 192 -357 l 21 -357 z "},"ŀ":{"ha":594,"x_min":85,"x_max":551,"o":"m 451 415 q 380 445 410 415 q 350 517 350 475 q 380 588 350 558 q 451 617 410 617 q 522 588 493 617 q 551 517 551 558 q 522 444 551 474 q 451 415 493 415 m 85 0 l 85 1051 l 267 1051 l 267 0 l 85 0 z "},"ḷ":{"ha":350,"x_min":81,"x_max":271,"o":"m 85 0 l 85 1051 l 267 1051 l 267 0 l 85 0 m 81 -315 l 81 -125 l 271 -125 l 271 -315 l 81 -315 z "},"ǉ":{"ha":701,"x_min":85,"x_max":617,"o":"m 85 0 l 85 1051 l 267 1051 l 267 0 l 85 0 m 331 -307 q 293 -306 313 -307 q 261 -301 274 -304 l 261 -143 q 311 -147 286 -147 q 402 -120 369 -147 q 435 -37 435 -93 l 435 756 l 617 756 l 617 -37 q 582 -184 617 -124 q 483 -276 547 -244 q 331 -307 418 -307 m 435 840 l 435 1035 l 617 1035 l 617 840 l 435 840 z "},"ḻ":{"ha":350,"x_min":-49,"x_max":400,"o":"m 85 0 l 85 1051 l 267 1051 l 267 0 l 85 0 m -47 -287 l -47 -139 l 400 -139 l 400 -287 l -47 -287 z "},"ł":{"ha":497,"x_min":42,"x_max":454,"o":"m 42 335 l 42 513 l 454 754 l 454 576 l 42 335 m 158 0 l 158 1051 l 340 1051 l 340 0 l 158 0 z "},"m":{"ha":1283,"x_min":85,"x_max":1214,"o":"m 85 0 l 85 756 l 256 756 l 256 581 l 236 610 q 319 732 257 692 q 467 772 382 772 q 631 724 560 772 q 722 596 701 675 l 671 592 q 775 727 706 682 q 935 772 844 772 q 1078 736 1015 772 q 1178 635 1142 700 q 1214 486 1214 571 l 1214 0 l 1032 0 l 1032 443 q 1014 529 1032 493 q 964 585 996 565 q 886 606 932 606 q 810 585 843 606 q 758 529 776 565 q 740 443 740 493 l 740 0 l 558 0 l 558 443 q 540 529 558 493 q 490 585 522 565 q 413 606 457 606 q 336 585 369 606 q 285 529 303 565 q 267 443 267 493 l 267 0 l 85 0 z "},"ṃ":{"ha":1283,"x_min":85,"x_max":1214,"o":"m 85 0 l 85 756 l 256 756 l 256 581 l 236 610 q 319 732 257 692 q 467 772 382 772 q 631 724 560 772 q 722 596 701 675 l 671 592 q 775 727 706 682 q 935 772 844 772 q 1078 736 1015 772 q 1178 635 1142 700 q 1214 486 1214 571 l 1214 0 l 1032 0 l 1032 443 q 1014 529 1032 493 q 964 585 996 565 q 886 606 932 606 q 810 585 843 606 q 758 529 776 565 q 740 443 740 493 l 740 0 l 558 0 l 558 443 q 540 529 558 493 q 490 585 522 565 q 413 606 457 606 q 336 585 369 606 q 285 529 303 565 q 267 443 267 493 l 267 0 l 85 0 m 547 -315 l 547 -125 l 738 -125 l 738 -315 l 547 -315 z "},"n":{"ha":824,"x_min":85,"x_max":754,"o":"m 85 0 l 85 756 l 256 756 l 256 607 l 242 633 q 328 737 268 701 q 469 772 389 772 q 617 736 553 772 q 718 635 682 700 q 754 486 754 571 l 754 0 l 572 0 l 572 443 q 553 529 572 493 q 499 585 533 565 q 419 606 465 606 q 340 585 375 606 q 286 529 306 565 q 267 443 267 493 l 267 0 l 85 0 z "},"ń":{"ha":824,"x_min":85,"x_max":754,"o":"m 85 0 l 85 756 l 256 756 l 256 607 l 242 633 q 328 737 268 701 q 469 772 389 772 q 617 736 553 772 q 718 635 682 700 q 754 486 754 571 l 754 0 l 572 0 l 572 443 q 553 529 572 493 q 499 585 533 565 q 419 606 465 606 q 340 585 375 606 q 286 529 306 565 q 267 443 267 493 l 267 0 l 85 0 m 322 889 l 413 1129 l 649 1129 l 501 889 l 322 889 z "},"ň":{"ha":824,"x_min":85,"x_max":754,"o":"m 85 0 l 85 756 l 256 756 l 256 607 l 242 633 q 328 737 268 701 q 469 772 389 772 q 617 736 553 772 q 718 635 682 700 q 754 486 754 571 l 754 0 l 572 0 l 572 443 q 553 529 572 493 q 499 585 533 565 q 419 606 465 606 q 340 585 375 606 q 286 529 306 565 q 267 443 267 493 l 267 0 l 85 0 m 304 889 l 142 1118 l 322 1118 l 413 993 l 503 1118 l 683 1118 l 519 889 l 304 889 z "},"ņ":{"ha":824,"x_min":85,"x_max":754,"o":"m 85 0 l 85 756 l 256 756 l 256 607 l 242 633 q 328 737 268 701 q 469 772 389 772 q 617 736 553 772 q 718 635 682 700 q 754 486 754 571 l 754 0 l 572 0 l 572 443 q 553 529 572 493 q 499 585 533 565 q 419 606 465 606 q 340 585 375 606 q 286 529 306 565 q 267 443 267 493 l 267 0 l 85 0 m 257 -357 l 297 -97 l 529 -97 l 428 -357 l 257 -357 z "},"ṅ":{"ha":824,"x_min":85,"x_max":754,"o":"m 85 0 l 85 756 l 256 756 l 256 607 l 242 633 q 328 737 268 701 q 469 772 389 772 q 617 736 553 772 q 718 635 682 700 q 754 486 754 571 l 754 0 l 572 0 l 572 443 q 553 529 572 493 q 499 585 533 565 q 419 606 465 606 q 340 585 375 606 q 286 529 306 565 q 267 443 267 493 l 267 0 l 85 0 m 318 889 l 318 1081 l 508 1081 l 508 889 l 318 889 z "},"ṇ":{"ha":824,"x_min":85,"x_max":754,"o":"m 85 0 l 85 756 l 256 756 l 256 607 l 242 633 q 328 737 268 701 q 469 772 389 772 q 617 736 553 772 q 718 635 682 700 q 754 486 754 571 l 754 0 l 572 0 l 572 443 q 553 529 572 493 q 499 585 533 565 q 419 606 465 606 q 340 585 375 606 q 286 529 306 565 q 267 443 267 493 l 267 0 l 85 0 m 318 -315 l 318 -125 l 508 -125 l 508 -315 l 318 -315 z "},"ǌ":{"ha":1174,"x_min":85,"x_max":1089,"o":"m 85 0 l 85 756 l 256 756 l 256 607 l 242 633 q 328 737 268 701 q 469 772 389 772 q 617 736 553 772 q 718 635 682 700 q 754 486 754 571 l 754 0 l 572 0 l 572 443 q 553 529 572 493 q 499 585 533 565 q 419 606 465 606 q 340 585 375 606 q 286 529 306 565 q 267 443 267 493 l 267 0 l 85 0 m 804 -307 q 767 -306 786 -307 q 735 -301 747 -304 l 735 -143 q 785 -147 760 -147 q 876 -120 843 -147 q 908 -37 908 -93 l 908 756 l 1090 756 l 1090 -37 q 1056 -184 1090 -124 q 956 -276 1021 -244 q 804 -307 892 -307 m 908 840 l 908 1035 l 1090 1035 l 1090 840 l 908 840 z "},"ṉ":{"ha":824,"x_min":85,"x_max":754,"o":"m 85 0 l 85 756 l 256 756 l 256 607 l 242 633 q 328 737 268 701 q 469 772 389 772 q 617 736 553 772 q 718 635 682 700 q 754 486 754 571 l 754 0 l 572 0 l 572 443 q 553 529 572 493 q 499 585 533 565 q 419 606 465 606 q 340 585 375 606 q 286 529 306 565 q 267 443 267 493 l 267 0 l 85 0 m 189 -287 l 189 -139 l 636 -139 l 636 -287 l 189 -287 z "},"ñ":{"ha":824,"x_min":85,"x_max":754,"o":"m 85 0 l 85 756 l 256 756 l 256 607 l 242 633 q 328 737 268 701 q 469 772 389 772 q 617 736 553 772 q 718 635 682 700 q 754 486 754 571 l 754 0 l 572 0 l 572 443 q 553 529 572 493 q 499 585 533 565 q 419 606 465 606 q 340 585 375 606 q 286 529 306 565 q 267 443 267 493 l 267 0 l 85 0 m 513 889 q 449 901 475 889 q 406 927 424 913 q 369 953 388 942 q 328 965 351 965 q 292 948 304 965 q 279 894 279 931 l 139 894 q 189 1058 139 1006 q 310 1110 239 1110 q 375 1099 349 1110 q 421 1072 401 1088 q 458 1046 440 1057 q 496 1035 475 1035 q 535 1053 524 1035 q 546 1104 546 1072 l 686 1104 q 635 944 685 999 q 513 889 585 889 z "},"ŋ":{"ha":833,"x_min":75,"x_max":744,"o":"m 460 -307 q 422 -306 442 -307 q 389 -301 403 -304 l 389 -143 q 439 -147 414 -147 q 531 -120 499 -147 q 563 -37 563 -93 l 563 443 q 544 529 563 493 q 490 585 525 565 q 410 606 456 606 q 331 585 365 606 q 276 529 296 565 q 257 443 257 493 l 257 0 l 75 0 l 75 756 l 247 756 l 247 607 l 232 633 q 319 737 260 701 q 460 772 379 772 q 608 736 544 772 q 708 635 672 700 q 744 486 744 571 l 744 -37 q 710 -184 744 -124 q 611 -276 675 -244 q 460 -307 547 -307 z "},"o":{"ha":906,"x_min":54,"x_max":853,"o":"m 454 -17 q 252 35 343 -17 q 108 175 161 86 q 54 378 54 264 q 108 581 54 492 q 251 721 161 669 q 454 772 342 772 q 656 721 565 772 q 799 581 746 669 q 853 378 853 493 q 799 175 853 264 q 654 35 744 86 q 454 -17 564 -17 m 454 150 q 562 179 515 150 q 635 260 608 208 q 663 378 663 313 q 635 495 663 444 q 562 576 608 546 q 454 606 515 606 q 344 576 392 606 q 270 495 297 546 q 243 378 243 444 q 270 260 243 313 q 344 179 297 208 q 454 150 392 150 z "},"ó":{"ha":906,"x_min":54,"x_max":853,"o":"m 454 -17 q 252 35 343 -17 q 108 175 161 86 q 54 378 54 264 q 108 581 54 492 q 251 721 161 669 q 454 772 342 772 q 656 721 565 772 q 799 581 746 669 q 853 378 853 493 q 799 175 853 264 q 654 35 744 86 q 454 -17 564 -17 m 454 150 q 562 179 515 150 q 635 260 608 208 q 663 378 663 313 q 635 495 663 444 q 562 576 608 546 q 454 606 515 606 q 344 576 392 606 q 270 495 297 546 q 243 378 243 444 q 270 260 243 313 q 344 179 297 208 q 454 150 392 150 m 364 889 l 454 1129 l 690 1129 l 543 889 l 364 889 z "},"ŏ":{"ha":906,"x_min":54,"x_max":853,"o":"m 454 -17 q 252 35 343 -17 q 108 175 161 86 q 54 378 54 264 q 108 581 54 492 q 251 721 161 669 q 454 772 342 772 q 656 721 565 772 q 799 581 746 669 q 853 378 853 493 q 799 175 853 264 q 654 35 744 86 q 454 -17 564 -17 m 454 150 q 562 179 515 150 q 635 260 608 208 q 663 378 663 313 q 635 495 663 444 q 562 576 608 546 q 454 606 515 606 q 344 576 392 606 q 270 495 297 546 q 243 378 243 444 q 270 260 243 313 q 344 179 297 208 q 454 150 392 150 m 453 894 q 297 928 358 894 q 206 1013 236 961 q 175 1124 176 1065 l 354 1124 q 382 1058 356 1082 q 453 1035 408 1035 q 526 1058 500 1035 q 554 1124 551 1082 l 732 1124 q 701 1011 731 1064 q 610 926 671 958 q 453 894 549 894 z "},"ô":{"ha":906,"x_min":54,"x_max":853,"o":"m 454 -17 q 252 35 343 -17 q 108 175 161 86 q 54 378 54 264 q 108 581 54 492 q 251 721 161 669 q 454 772 342 772 q 656 721 565 772 q 799 581 746 669 q 853 378 853 493 q 799 175 853 264 q 654 35 744 86 q 454 -17 564 -17 m 454 150 q 562 179 515 150 q 635 260 608 208 q 663 378 663 313 q 635 495 663 444 q 562 576 608 546 q 454 606 515 606 q 344 576 392 606 q 270 495 297 546 q 243 378 243 444 q 270 260 243 313 q 344 179 297 208 q 454 150 392 150 m 183 889 l 346 1118 l 561 1118 l 725 889 l 544 889 l 454 1014 l 364 889 l 183 889 z "},"ố":{"ha":906,"x_min":54,"x_max":935,"o":"m 454 -17 q 252 35 343 -17 q 108 175 161 86 q 54 378 54 264 q 108 581 54 492 q 251 721 161 669 q 454 772 342 772 q 656 721 565 772 q 799 581 746 669 q 853 378 853 493 q 799 175 853 264 q 654 35 744 86 q 454 -17 564 -17 m 454 150 q 562 179 515 150 q 635 260 608 208 q 663 378 663 313 q 635 495 663 444 q 562 576 608 546 q 454 606 515 606 q 344 576 392 606 q 270 495 297 546 q 243 378 243 444 q 270 260 243 313 q 344 179 297 208 q 454 150 392 150 m 183 889 l 346 1104 l 561 1104 l 725 889 l 544 889 l 454 1000 l 364 889 l 183 889 m 665 997 l 729 1199 l 935 1199 l 814 997 l 665 997 z "},"ộ":{"ha":906,"x_min":54,"x_max":853,"o":"m 454 -17 q 252 35 343 -17 q 108 175 161 86 q 54 378 54 264 q 108 581 54 492 q 251 721 161 669 q 454 772 342 772 q 656 721 565 772 q 799 581 746 669 q 853 378 853 493 q 799 175 853 264 q 654 35 744 86 q 454 -17 564 -17 m 454 150 q 562 179 515 150 q 635 260 608 208 q 663 378 663 313 q 635 495 663 444 q 562 576 608 546 q 454 606 515 606 q 344 576 392 606 q 270 495 297 546 q 243 378 243 444 q 270 260 243 313 q 344 179 297 208 q 454 150 392 150 m 358 -315 l 358 -125 l 549 -125 l 549 -315 l 358 -315 m 183 889 l 346 1118 l 561 1118 l 725 889 l 544 889 l 454 1014 l 364 889 l 183 889 z "},"ồ":{"ha":906,"x_min":54,"x_max":892,"o":"m 454 -17 q 252 35 343 -17 q 108 175 161 86 q 54 378 54 264 q 108 581 54 492 q 251 721 161 669 q 454 772 342 772 q 656 721 565 772 q 799 581 746 669 q 853 378 853 493 q 799 175 853 264 q 654 35 744 86 q 454 -17 564 -17 m 454 150 q 562 179 515 150 q 635 260 608 208 q 663 378 663 313 q 635 495 663 444 q 562 576 608 546 q 454 606 515 606 q 344 576 392 606 q 270 495 297 546 q 243 378 243 444 q 270 260 243 313 q 344 179 297 208 q 454 150 392 150 m 183 889 l 346 1104 l 561 1104 l 725 889 l 544 889 l 454 1000 l 364 889 l 183 889 m 743 997 l 624 1199 l 829 1199 l 892 997 l 743 997 z "},"ổ":{"ha":906,"x_min":54,"x_max":865,"o":"m 454 -17 q 252 35 343 -17 q 108 175 161 86 q 54 378 54 264 q 108 581 54 492 q 251 721 161 669 q 454 772 342 772 q 656 721 565 772 q 799 581 746 669 q 853 378 853 493 q 799 175 853 264 q 654 35 744 86 q 454 -17 564 -17 m 454 150 q 562 179 515 150 q 635 260 608 208 q 663 378 663 313 q 635 495 663 444 q 562 576 608 546 q 454 606 515 606 q 344 576 392 606 q 270 495 297 546 q 243 378 243 444 q 270 260 243 313 q 344 179 297 208 q 454 150 392 150 m 183 889 l 346 1104 l 561 1104 l 725 889 l 544 889 l 454 1000 l 364 889 l 183 889 m 722 985 l 650 1069 q 701 1105 688 1088 q 715 1146 715 1122 q 696 1185 715 1169 q 642 1200 676 1200 q 609 1198 626 1200 q 576 1188 592 1196 l 557 1294 q 609 1311 581 1306 q 671 1317 638 1317 q 812 1274 758 1317 q 865 1161 865 1232 q 826 1063 865 1108 q 722 985 788 1017 z "},"ỗ":{"ha":906,"x_min":54,"x_max":853,"o":"m 454 -17 q 252 35 343 -17 q 108 175 161 86 q 54 378 54 264 q 108 581 54 492 q 251 721 161 669 q 454 772 342 772 q 656 721 565 772 q 799 581 746 669 q 853 378 853 493 q 799 175 853 264 q 654 35 744 86 q 454 -17 564 -17 m 454 150 q 562 179 515 150 q 635 260 608 208 q 663 378 663 313 q 635 495 663 444 q 562 576 608 546 q 454 606 515 606 q 344 576 392 606 q 270 495 297 546 q 243 378 243 444 q 270 260 243 313 q 344 179 297 208 q 454 150 392 150 m 183 889 l 346 1104 l 561 1104 l 725 889 l 544 889 l 454 1000 l 364 889 l 183 889 m 542 1189 q 488 1201 510 1189 q 451 1227 467 1213 q 420 1253 435 1242 q 386 1265 406 1265 q 358 1247 367 1265 q 349 1194 349 1229 l 211 1194 q 233 1316 211 1268 q 289 1387 254 1364 q 364 1410 324 1410 q 419 1399 397 1410 q 458 1372 442 1388 q 490 1346 475 1357 q 522 1335 504 1335 q 551 1353 543 1335 q 558 1404 558 1372 l 697 1404 q 649 1243 696 1297 q 542 1189 603 1189 z "},"ȍ":{"ha":906,"x_min":54,"x_max":853,"o":"m 454 -17 q 252 35 343 -17 q 108 175 161 86 q 54 378 54 264 q 108 581 54 492 q 251 721 161 669 q 454 772 342 772 q 656 721 565 772 q 799 581 746 669 q 853 378 853 493 q 799 175 853 264 q 654 35 744 86 q 454 -17 564 -17 m 454 150 q 562 179 515 150 q 635 260 608 208 q 663 378 663 313 q 635 495 663 444 q 562 576 608 546 q 454 606 515 606 q 344 576 392 606 q 270 495 297 546 q 243 378 243 444 q 270 260 243 313 q 344 179 297 208 q 454 150 392 150 m 211 889 l 64 1133 l 297 1133 l 388 889 l 211 889 m 519 889 l 371 1133 l 604 1133 l 694 889 l 519 889 z "},"ö":{"ha":906,"x_min":54,"x_max":853,"o":"m 454 -17 q 252 35 343 -17 q 108 175 161 86 q 54 378 54 264 q 108 581 54 492 q 251 721 161 669 q 454 772 342 772 q 656 721 565 772 q 799 581 746 669 q 853 378 853 493 q 799 175 853 264 q 654 35 744 86 q 454 -17 564 -17 m 454 150 q 562 179 515 150 q 635 260 608 208 q 663 378 663 313 q 635 495 663 444 q 562 576 608 546 q 454 606 515 606 q 344 576 392 606 q 270 495 297 546 q 243 378 243 444 q 270 260 243 313 q 344 179 297 208 q 454 150 392 150 m 208 889 l 208 1081 l 399 1081 l 399 889 l 208 889 m 510 889 l 510 1081 l 701 1081 l 701 889 l 510 889 z "},"ȫ":{"ha":906,"x_min":54,"x_max":853,"o":"m 454 -17 q 252 35 343 -17 q 108 175 161 86 q 54 378 54 264 q 108 581 54 492 q 251 721 161 669 q 454 772 342 772 q 656 721 565 772 q 799 581 746 669 q 853 378 853 493 q 799 175 853 264 q 654 35 744 86 q 454 -17 564 -17 m 454 150 q 562 179 515 150 q 635 260 608 208 q 663 378 663 313 q 635 495 663 444 q 562 576 608 546 q 454 606 515 606 q 344 576 392 606 q 270 495 297 546 q 243 378 243 444 q 270 260 243 313 q 344 179 297 208 q 454 150 392 150 m 208 889 l 208 1081 l 399 1081 l 399 889 l 208 889 m 510 889 l 510 1081 l 701 1081 l 701 889 l 510 889 m 231 1164 l 231 1314 l 678 1314 l 678 1164 l 231 1164 z "},"ȱ":{"ha":906,"x_min":54,"x_max":853,"o":"m 454 -17 q 252 35 343 -17 q 108 175 161 86 q 54 378 54 264 q 108 581 54 492 q 251 721 161 669 q 454 772 342 772 q 656 721 565 772 q 799 581 746 669 q 853 378 853 493 q 799 175 853 264 q 654 35 744 86 q 454 -17 564 -17 m 454 150 q 562 179 515 150 q 635 260 608 208 q 663 378 663 313 q 635 495 663 444 q 562 576 608 546 q 454 606 515 606 q 344 576 392 606 q 270 495 297 546 q 243 378 243 444 q 270 260 243 313 q 344 179 297 208 q 454 150 392 150 m 358 889 l 358 1081 l 550 1081 l 550 889 l 358 889 m 231 1164 l 231 1314 l 678 1314 l 678 1164 l 231 1164 z "},"ọ":{"ha":906,"x_min":54,"x_max":853,"o":"m 454 -17 q 252 35 343 -17 q 108 175 161 86 q 54 378 54 264 q 108 581 54 492 q 251 721 161 669 q 454 772 342 772 q 656 721 565 772 q 799 581 746 669 q 853 378 853 493 q 799 175 853 264 q 654 35 744 86 q 454 -17 564 -17 m 454 150 q 562 179 515 150 q 635 260 608 208 q 663 378 663 313 q 635 495 663 444 q 562 576 608 546 q 454 606 515 606 q 344 576 392 606 q 270 495 297 546 q 243 378 243 444 q 270 260 243 313 q 344 179 297 208 q 454 150 392 150 m 358 -315 l 358 -125 l 549 -125 l 549 -315 l 358 -315 z "},"ò":{"ha":906,"x_min":54,"x_max":853,"o":"m 454 -17 q 252 35 343 -17 q 108 175 161 86 q 54 378 54 264 q 108 581 54 492 q 251 721 161 669 q 454 772 342 772 q 656 721 565 772 q 799 581 746 669 q 853 378 853 493 q 799 175 853 264 q 654 35 744 86 q 454 -17 564 -17 m 454 150 q 562 179 515 150 q 635 260 608 208 q 663 378 663 313 q 635 495 663 444 q 562 576 608 546 q 454 606 515 606 q 344 576 392 606 q 270 495 297 546 q 243 378 243 444 q 270 260 243 313 q 344 179 297 208 q 454 150 392 150 m 364 889 l 217 1129 l 453 1129 l 543 889 l 364 889 z "},"ỏ":{"ha":906,"x_min":54,"x_max":853,"o":"m 454 -17 q 252 35 343 -17 q 108 175 161 86 q 54 378 54 264 q 108 581 54 492 q 251 721 161 669 q 454 772 342 772 q 656 721 565 772 q 799 581 746 669 q 853 378 853 493 q 799 175 853 264 q 654 35 744 86 q 454 -17 564 -17 m 454 150 q 562 179 515 150 q 635 260 608 208 q 663 378 663 313 q 635 495 663 444 q 562 576 608 546 q 454 606 515 606 q 344 576 392 606 q 270 495 297 546 q 243 378 243 444 q 270 260 243 313 q 344 179 297 208 q 454 150 392 150 m 467 833 l 388 924 q 442 963 426 943 q 457 1007 457 982 q 436 1049 457 1033 q 378 1064 415 1064 q 343 1062 361 1064 q 308 1051 325 1060 l 288 1167 q 343 1185 311 1179 q 410 1190 375 1190 q 562 1144 504 1190 q 619 1024 619 1099 q 578 917 619 967 q 467 833 538 868 z "},"ơ":{"ha":906,"x_min":54,"x_max":853,"o":"m 454 -17 q 252 35 343 -17 q 108 175 161 86 q 54 378 54 264 q 108 581 54 492 q 251 721 161 669 q 454 772 342 772 l 601 772 q 628 775 613 772 q 656 792 644 778 q 668 842 668 807 q 660 893 668 865 q 639 949 651 921 l 796 949 q 819 891 810 919 q 828 825 828 863 q 788 703 828 746 q 682 646 747 660 l 694 696 q 809 563 765 644 q 853 378 853 481 q 799 175 853 264 q 654 35 744 86 q 454 -17 564 -17 m 454 150 q 562 179 515 150 q 635 260 608 208 q 663 378 663 313 q 635 495 663 444 q 562 576 608 546 q 454 606 515 606 q 344 576 392 606 q 270 495 297 546 q 243 378 243 444 q 270 260 243 313 q 344 179 297 208 q 454 150 392 150 z "},"ớ":{"ha":906,"x_min":54,"x_max":853,"o":"m 454 -17 q 252 35 343 -17 q 108 175 161 86 q 54 378 54 264 q 108 581 54 492 q 251 721 161 669 q 454 772 342 772 l 601 772 q 628 775 613 772 q 656 792 644 778 q 668 842 668 807 q 660 893 668 865 q 639 949 651 921 l 796 949 q 819 891 810 919 q 828 825 828 863 q 788 703 828 746 q 682 646 747 660 l 694 696 q 809 563 765 644 q 853 378 853 481 q 799 175 853 264 q 654 35 744 86 q 454 -17 564 -17 m 454 150 q 562 179 515 150 q 635 260 608 208 q 663 378 663 313 q 635 495 663 444 q 562 576 608 546 q 454 606 515 606 q 344 576 392 606 q 270 495 297 546 q 243 378 243 444 q 270 260 243 313 q 344 179 297 208 q 454 150 392 150 m 364 889 l 454 1129 l 690 1129 l 543 889 l 364 889 z "},"ợ":{"ha":906,"x_min":54,"x_max":853,"o":"m 454 -17 q 252 35 343 -17 q 108 175 161 86 q 54 378 54 264 q 108 581 54 492 q 251 721 161 669 q 454 772 342 772 l 601 772 q 628 775 613 772 q 656 792 644 778 q 668 842 668 807 q 660 893 668 865 q 639 949 651 921 l 796 949 q 819 891 810 919 q 828 825 828 863 q 788 703 828 746 q 682 646 747 660 l 694 696 q 809 563 765 644 q 853 378 853 481 q 799 175 853 264 q 654 35 744 86 q 454 -17 564 -17 m 454 150 q 562 179 515 150 q 635 260 608 208 q 663 378 663 313 q 635 495 663 444 q 562 576 608 546 q 454 606 515 606 q 344 576 392 606 q 270 495 297 546 q 243 378 243 444 q 270 260 243 313 q 344 179 297 208 q 454 150 392 150 m 358 -315 l 358 -125 l 549 -125 l 549 -315 l 358 -315 z "},"ờ":{"ha":906,"x_min":54,"x_max":853,"o":"m 454 -17 q 252 35 343 -17 q 108 175 161 86 q 54 378 54 264 q 108 581 54 492 q 251 721 161 669 q 454 772 342 772 l 601 772 q 628 775 613 772 q 656 792 644 778 q 668 842 668 807 q 660 893 668 865 q 639 949 651 921 l 796 949 q 819 891 810 919 q 828 825 828 863 q 788 703 828 746 q 682 646 747 660 l 694 696 q 809 563 765 644 q 853 378 853 481 q 799 175 853 264 q 654 35 744 86 q 454 -17 564 -17 m 454 150 q 562 179 515 150 q 635 260 608 208 q 663 378 663 313 q 635 495 663 444 q 562 576 608 546 q 454 606 515 606 q 344 576 392 606 q 270 495 297 546 q 243 378 243 444 q 270 260 243 313 q 344 179 297 208 q 454 150 392 150 m 364 889 l 217 1129 l 453 1129 l 543 889 l 364 889 z "},"ở":{"ha":906,"x_min":54,"x_max":853,"o":"m 454 -17 q 252 35 343 -17 q 108 175 161 86 q 54 378 54 264 q 108 581 54 492 q 251 721 161 669 q 454 772 342 772 l 601 772 q 628 775 613 772 q 656 792 644 778 q 668 842 668 807 q 660 893 668 865 q 639 949 651 921 l 796 949 q 819 891 810 919 q 828 825 828 863 q 788 703 828 746 q 682 646 747 660 l 694 696 q 809 563 765 644 q 853 378 853 481 q 799 175 853 264 q 654 35 744 86 q 454 -17 564 -17 m 454 150 q 562 179 515 150 q 635 260 608 208 q 663 378 663 313 q 635 495 663 444 q 562 576 608 546 q 454 606 515 606 q 344 576 392 606 q 270 495 297 546 q 243 378 243 444 q 270 260 243 313 q 344 179 297 208 q 454 150 392 150 m 467 833 l 388 924 q 442 963 426 943 q 457 1007 457 982 q 436 1049 457 1033 q 378 1064 415 1064 q 343 1062 361 1064 q 308 1051 325 1060 l 288 1167 q 343 1185 311 1179 q 410 1190 375 1190 q 562 1144 504 1190 q 619 1024 619 1099 q 578 917 619 967 q 467 833 538 868 z "},"ỡ":{"ha":906,"x_min":54,"x_max":853,"o":"m 454 -17 q 252 35 343 -17 q 108 175 161 86 q 54 378 54 264 q 108 581 54 492 q 251 721 161 669 q 454 772 342 772 l 601 772 q 628 775 613 772 q 656 792 644 778 q 668 842 668 807 q 660 893 668 865 q 639 949 651 921 l 796 949 q 819 891 810 919 q 828 825 828 863 q 788 703 828 746 q 682 646 747 660 l 694 696 q 809 563 765 644 q 853 378 853 481 q 799 175 853 264 q 654 35 744 86 q 454 -17 564 -17 m 454 150 q 562 179 515 150 q 635 260 608 208 q 663 378 663 313 q 635 495 663 444 q 562 576 608 546 q 454 606 515 606 q 344 576 392 606 q 270 495 297 546 q 243 378 243 444 q 270 260 243 313 q 344 179 297 208 q 454 150 392 150 m 554 889 q 491 901 517 889 q 447 927 465 913 q 411 953 429 942 q 369 965 393 965 q 333 948 346 965 q 321 894 321 931 l 181 894 q 231 1058 181 1006 q 351 1110 281 1110 q 417 1099 390 1110 q 463 1072 443 1088 q 499 1046 482 1057 q 538 1035 517 1035 q 576 1053 565 1035 q 588 1104 588 1072 l 728 1104 q 676 944 726 999 q 554 889 626 889 z "},"ő":{"ha":906,"x_min":54,"x_max":853,"o":"m 454 -17 q 252 35 343 -17 q 108 175 161 86 q 54 378 54 264 q 108 581 54 492 q 251 721 161 669 q 454 772 342 772 q 656 721 565 772 q 799 581 746 669 q 853 378 853 493 q 799 175 853 264 q 654 35 744 86 q 454 -17 564 -17 m 454 150 q 562 179 515 150 q 635 260 608 208 q 663 378 663 313 q 635 495 663 444 q 562 576 608 546 q 454 606 515 606 q 344 576 392 606 q 270 495 297 546 q 243 378 243 444 q 270 260 243 313 q 344 179 297 208 q 454 150 392 150 m 213 889 l 271 1129 l 504 1129 l 388 889 l 213 889 m 519 889 l 579 1129 l 813 1129 l 696 889 l 519 889 z "},"ȏ":{"ha":906,"x_min":54,"x_max":853,"o":"m 454 -17 q 252 35 343 -17 q 108 175 161 86 q 54 378 54 264 q 108 581 54 492 q 251 721 161 669 q 454 772 342 772 q 656 721 565 772 q 799 581 746 669 q 853 378 853 493 q 799 175 853 264 q 654 35 744 86 q 454 -17 564 -17 m 454 150 q 562 179 515 150 q 635 260 608 208 q 663 378 663 313 q 635 495 663 444 q 562 576 608 546 q 454 606 515 606 q 344 576 392 606 q 270 495 297 546 q 243 378 243 444 q 270 260 243 313 q 344 179 297 208 q 454 150 392 150 m 175 889 q 206 999 176 947 q 297 1085 236 1051 q 453 1118 358 1118 q 610 1086 549 1118 q 701 1002 671 1054 q 732 889 731 950 l 554 889 q 526 954 551 931 q 453 978 500 978 q 382 954 408 978 q 354 889 356 931 l 175 889 z "}}}
